<?xml version="1.0" standalone="no"?>
<!DOCTYPE svg PUBLIC "-//W3C//DTD SVG 1.1//EN" "http://www.w3.org/Graphics/SVG/1.1/DTD/svg11.dtd" >
<svg xmlns="http://www.w3.org/2000/svg">
<metadata>
<json>
<![CDATA[
{
	"fontFamily": "iconlace",
	"majorVersion": 1,
	"minorVersion": 0,
	"description": "Font generated by IcoMoon.",
	"version": "Version 1.0",
	"fontId": "iconlace",
	"psName": "iconlace",
	"subFamily": "Regular",
	"fullName": "iconlace"
}
]]>
</json>
</metadata>
<defs>
<font id="iconlace" horiz-adv-x="1024">
<font-face units-per-em="1024" ascent="960" descent="-64" />
<missing-glyph horiz-adv-x="1024" />
<glyph unicode="&#x20;" horiz-adv-x="512" d="" />
<glyph unicode="&#xe900;" glyph-name="gloria" data-tags="icon-gloria-a-dios@1" d="M408.436-15.24v59.9c27.314-12.619 57.059-19.167 87.168-19.197h34.864c30.114 0.030 59.855 6.578 87.173 19.197v-59.9l34.864 9.167v71.015c54.667 39.048 87.113 101.929 87.173 168.939v25.69c16.304-7.898 31.982-17.025 46.901-27.291 17.945-12.614 40.797-16.077 61.693-9.358s37.402 22.845 44.559 43.523c4.22 12.454 7.802 25.113 10.722 37.929 4.623-0.632 9.283-0.973 13.946-1.018 139.478-1.455 144.505 242.764 0.005 243.155-11.1 0.005-22.141-1.595-32.784-4.747-6.099 14.902-13.12 29.424-21.008 43.468 29.877 31.687 40.474 76.866 27.792 118.462s-46.714 73.268-89.238 83.047c-42.519 9.774-87.042-3.833-116.743-35.686-16.787 7.938-34.113 14.701-51.847 20.247 0.922 6.076 1.39 12.213 1.395 18.36 0 67.146-54.637 121.577-122.036 121.577s-122.031-54.432-122.031-121.577c0.005-6.146 0.468-12.284 1.39-18.36-17.733-5.544-35.055-12.308-51.847-20.247-29.7 31.847-74.219 45.45-116.737 35.676-42.519-9.779-76.546-41.451-89.233-83.042-12.682-41.591-2.090-86.77 27.782-118.457-7.888-14.044-14.903-28.565-21.008-43.468-10.637 3.151-21.677 4.752-32.779 4.747-118.037-0.055-140.737-156.335-63.652-223.972 18.867-12.484 41.003-19.158 63.652-19.182 4.709 0.045 9.414 0.386 14.077 1.028 4.896-21.55 11.614-42.649 20.091-63.067 8.789-20.356 26.759-35.344 48.422-40.382 5.222-1.159 10.562-1.761 15.916-1.786 16.419-0.055 32.325 5.7 44.881 16.248 10.919 8.991 22.423 17.256 34.44 24.732v-6.247c0.060-67.011 32.506-129.892 87.168-168.939v-71.015l34.869-9.167zM896.627 508.707c6.795 1.932 13.811 2.966 20.872 3.066 104.781 1.49 105.849-171.924 0.005-173.685-2.538 0-5.062 0.306-7.59 0.557 8.396 56.965 3.858 115.080-13.287 170.063zM844.388 616.225c-33.13 47.903-76.32 88.054-126.574 117.673 33.664 28.872 83.753 27.868 116.224-2.323 32.481-30.191 36.938-79.901 10.35-115.35zM425.868 789.659c0 47.958 39.028 86.84 87.168 86.84 48.144 0 87.168-38.882 87.168-86.84-0.060-3.137-0.293-6.272-0.69-9.388-56.969 12.519-115.988 12.519-172.956 0-0.398 3.116-0.624 6.252-0.69 9.388zM164.364 668.081c-0.040 33.935 19.784 64.773 50.738 78.932 30.955 14.155 67.355 9.032 93.156-13.116-50.255-29.619-93.444-69.77-126.574-117.673-11.246 14.968-17.326 33.162-17.321 51.857zM29.857 435.113c3.661 40.151 29.71 77.352 78.716 76.66 7.061-0.101 14.082-1.134 20.872-3.066-17.255-54.958-21.742-113.107-13.125-170.048-2.569-0.321-5.152-0.512-7.746-0.572-56.465-1.27-83.008 49.906-78.716 97.026zM739.676 355.458v17.392c7.938-3.031 15.896-6.287 23.864-9.759 6.708-2.84 13.231-5.841 19.769-9.011 5.157-2.504 11.221-2.313 16.207 0.502 4.996 2.81 8.281 7.888 8.784 13.582 0.75 8.329 1.108 16.835 1.108 25.158-0.070 72.921-27.686 143.143-77.357 196.696-1.148 1.857-2.634 3.472-4.387 4.772-55.977 58.451-133.53 91.522-214.619 91.527-81.094 0-158.647-33.066-214.629-91.517-1.747-1.3-3.238-2.92-4.387-4.772-60.157-64.758-87.405-153.294-74.028-240.515 0.882-5.7 4.553-10.597 9.792-13.061 5.238-2.459 11.363-2.172 16.339 0.773 6.2 3.663 12.737 7.165 19.139 10.517 7.167 3.778 14.168 7.22 21.128 10.492v-77.829c-20.176-11.009-39.255-23.904-56.984-38.511-8.492-7.010-19.799-9.634-30.527-7.090-10.727 2.549-19.627 9.97-24.035 20.040-18.509 43.834-28.003 90.925-27.923 138.477 1.732 200.209 165.134 361.601 366.104 361.601s364.376-161.393 366.109-361.601c0.050-39.303-6.457-78.34-19.259-115.521-3.591-10.296-11.791-18.35-22.181-21.777-10.547-3.327-22.040-1.585-31.121 4.707-21.033 14.641-43.446 27.22-66.906 37.562v57.166zM530.467 345.167v131.868c0 19.182 15.613 34.737 34.869 34.737 19.259 0 34.869-15.555 34.869-34.737v-191.052c-0.020-19.172-15.618-34.712-34.869-34.732-3.047 0.045-6.079 0.492-9.010 1.33 9.036 15.665 11.383 34.28 6.522 51.687-4.861 17.402-16.525 32.133-32.38 40.898zM373.568 355.458c-18.923-0.065-37.301-6.322-52.3-17.813v87.286c0 19.182 15.608 34.732 34.869 34.732 19.254 0 34.869-15.55 34.869-34.732v-69.475h-17.437zM492.658 355.458h-66.79v121.577c0 19.182 15.613 34.737 34.869 34.737 19.259 0 34.869-15.555 34.869-34.737v-121.848c-0.997 0.040-1.944 0.271-2.947 0.271zM669.94 251.251c-19.249 0.020-34.848 15.56-34.869 34.732v138.948c0 19.182 15.608 34.732 34.869 34.732 19.254 0 34.869-15.55 34.869-34.732v-138.948c-0.025-19.172-15.623-34.712-34.869-34.732zM513.035 651.579c142.601 0.446 259.097-113.329 261.489-255.372-11.569 4.987-23.233 9.414-34.848 13.537v15.188c0.151 25.023-13.297 48.175-35.155 60.507-21.859 12.328-48.703 11.917-70.169-1.089-2.714 27.462-21.612 50.658-48.024 58.962s-55.251 0.111-73.297-20.819c-1.042 1.189-1.874 2.514-3.007 3.643-18.928 18.942-47.117 25.324-72.401 16.397-25.289-8.931-43.148-31.571-45.878-58.164-10.732 6.513-23.047 9.981-35.608 10.030-38.5-0.040-69.696-31.12-69.736-69.47v-28.721c-11.413-4.902-22.821-10.15-34.526-16.237-0.221 4.435-0.338 8.886-0.343 13.347 0.791 143.189 117.775 258.725 261.504 258.257zM530.467 60.2h-34.864c-96.239 0.111-174.225 77.809-174.336 173.68v34.737c0.030 28.766 23.43 52.073 52.3 52.103h119.090c4.613-0.010 9.191-0.828 13.528-2.414 0.121-0.055 0.262-0.060 0.393-0.111 13.015-4.466 22.287-16.001 23.808-29.634 0.715-10.075-2.982-19.97-10.148-27.121-6.517-6.538-15.387-10.206-24.634-10.191h-69.736c-4.623 0-9.056-1.832-12.33-5.088-3.269-3.256-5.102-7.677-5.102-12.284 0-7.080-13.589-17.366-34.869-17.366-9.625 0-17.432-7.777-17.432-17.366 0-9.593 7.807-17.371 17.432-17.371 26.729-1.852 52.184 11.631 65.601 34.737h56.435c12.223 0.065 24.21 3.362 34.732 9.558 28.758-16.969 65.596-10.873 87.304 14.446 21.506-25.249 58.137-31.395 86.765-14.562-4.287-92.646-80.848-165.602-173.939-165.758z" />
<glyph unicode="&#xe901;" glyph-name="testimonio" data-tags="icon-testimonio menu@1x" d="M1003.7 468.351h-56.923c-11.211 0-20.3-9.097-20.3-20.317 0-11.222 9.089-20.317 20.3-20.317h56.923c11.209 0 20.3 9.095 20.3 20.317 0 11.22-9.089 20.317-20.3 20.317zM945.564 525.24c3.234 0 6.513 0.803 9.515 2.493l35.004 19.706c9.12 5.133 12.245 16.501 6.979 25.393-5.266 8.89-16.922 11.935-26.044 6.804l-35.005-19.706c-9.118-5.131-12.243-16.501-6.977-25.393 3.531-5.964 9.938-9.297 16.529-9.297zM996.368 348.964l-36.78 21.11c-9.585 5.501-21.834 2.236-27.365-7.289-5.534-9.525-2.25-21.704 7.331-27.202l36.782-21.11c3.155-1.81 6.599-2.671 9.997-2.671 6.922 0 13.656 3.571 17.368 9.96 5.534 9.523 2.252 21.704-7.333 27.202zM811.071 182.093c-18.292-79.344-38.723-96.519-42.8-96.519-0.166 0-0.367 0.040-0.585 0.1-0.325 0.157-0.641 0.327-0.978 0.468l-0.477 0.199c-6.724 4.029-24.575 25.545-40.761 95.754-9.965 43.224-17.192 95.27-21.313 152.156 56.442 7.343 100.174 55.424 100.174 113.498 0 58.086-43.752 106.178-100.21 113.502 4.113 57.083 11.354 109.306 21.349 152.657 16.176 70.169 34.017 91.703 40.751 95.748l1.769 0.737c0.098 0.014 0.198 0.034 0.282 0.034 4.077 0 24.508-17.175 42.8-96.519 16.322-70.798 25.312-165.232 25.312-265.907s-8.99-195.111-25.314-265.909zM428.709 166.224c0-9.334-7.637-16.928-17.028-16.928h-182.302c-9.39 0-17.028 7.594-17.028 16.928v108.207l216.357-90.349v-17.858zM40.065 506.48l664.395 277.39c-6.573-17.025-12.578-37.353-18.045-61.066-0.621-2.689-1.226-5.421-1.827-8.173l-227.146-84.984c-10.354-3.873-15.589-15.361-11.692-25.651 3.021-7.984 10.648-12.905 18.752-12.905 2.344 0 4.728 0.414 7.054 1.283l204.458 76.496c-10.348-64.549-15.922-140.919-15.922-220.869 0-103.581 9.348-201.173 26.324-274.803 5.467-23.713 11.474-44.038 18.043-61.062l-556.216 232.262v103.919c0 10.997-8.97 19.913-20.033 19.913s-20.033-8.916-20.033-19.913v-87.188l-68.114 28.443v116.908zM700.159 448.002c0 24.918 0.553 49.453 1.629 73.343 35.419-5.996 62.476-36.706 62.476-73.596 0-36.885-27.047-67.588-62.454-73.592-1.092 24.048-1.651 48.752-1.651 73.845zM768.271 850.255c-6.794 0-13.265-1.559-19.438-4.662l-736.556-307.52c-7.439-3.105-12.277-10.338-12.277-18.358v-143.377c0-8.018 4.838-15.255 12.275-18.362l108.047-45.12c0.064-0.028 0.13-0.054 0.194-0.082l51.768-21.614v-124.938c0-31.295 25.612-56.754 57.095-56.754h182.302c31.483 0 57.095 25.46 57.095 56.754v1.129l280.085-116.96c6.165-3.093 12.626-4.646 19.41-4.646 35.309 0 62.084 41.688 81.856 127.451 16.975 73.63 26.324 171.222 26.324 274.803s-9.348 201.173-26.324 274.803c-19.772 85.763-46.547 127.451-81.856 127.451z" />
<glyph unicode="&#xe902;" glyph-name="play-circle" data-tags="play-circle" d="M512 960c134.737 0 264.084-53.894 361.095-150.905s150.905-226.358 150.905-361.095c0-134.737-53.894-264.084-150.905-361.095s-226.358-150.905-361.095-150.905c-134.737 0-264.084 53.894-361.095 150.905s-150.905 226.358-150.905 361.095c0 134.737 53.894 264.084 150.905 361.095s226.358 150.905 361.095 150.905zM512 906.105c-253.305 0-458.106-204.8-458.106-458.106s204.8-458.106 458.106-458.106c253.305 0 458.106 204.8 458.106 458.106s-204.8 458.106-458.106 458.106zM415.414 651.307c3.254 1.67 7.203 1.455 10.25-0.606v0l287.736-195.293c2.679-1.826 4.286-4.824 4.286-8.036s-1.597-6.211-4.286-8.036v0l-287.736-195.293c-1.697-1.142-3.662-1.728-5.636-1.728-1.578 0-3.165 0.371-4.614 1.113-3.264 1.689-5.309 5.019-5.309 8.652v0 390.586c0 3.632 2.044 6.953 5.309 8.642z" />
<glyph unicode="&#xe903;" glyph-name="notification-solid" data-tags="notification-solid" d="M647.418 106.667h261.689c11.378 0 22.756 5.689 28.444 17.067s0 22.756-11.378 34.133v0c-62.578 51.2-102.4 125.156-102.4 204.8v170.667c0 142.222-96.711 261.689-227.556 301.511v39.822c0 45.511-39.822 85.333-85.333 85.333s-85.333-39.822-85.333-85.333v-39.822c-130.844-39.822-227.556-159.289-227.556-301.511v-170.667c0-79.644-39.822-153.6-102.4-204.8-11.378-5.689-11.378-22.756-11.378-34.133 5.689-11.378 17.067-17.067 28.444-17.067h256zM357.284 89.6c0-85.333 68.267-153.6 153.6-153.6s153.6 68.267 153.6 153.6h-307.2z" />
<glyph unicode="&#xe904;" glyph-name="settings-solid" data-tags="settings-solid" d="M380.322-55.523v0 0zM992.855 349.372c-41.528 15.573-72.673 51.91-72.673 98.628s25.955 83.055 72.673 98.628c10.382 5.191 20.764 15.573 15.573 31.146-10.382 46.719-31.146 93.437-57.101 134.965-5.191 10.382-20.764 15.573-36.337 10.382-10.382-10.382-31.146-15.573-46.719-15.573-57.101 0-103.819 46.719-103.819 103.819 0 15.573 5.191 36.337 10.382 51.91 5.191 10.382 0 25.955-10.382 36.337-41.528 25.955-88.246 41.528-134.965 57.101-15.573 5.191-25.955-5.191-31.146-15.573-10.382-51.91-46.719-77.864-93.437-77.864s-83.055 25.955-98.628 72.673c-5.191 10.382-15.573 20.764-31.146 15.573-46.719-10.382-93.437-31.146-134.965-57.101-10.382-5.191-15.573-20.764-5.191-31.146 5.191-15.573 10.382-36.337 10.382-51.91 0-57.101-46.719-103.819-103.819-103.819-15.573 0-36.337 5.191-51.91 10.382-10.382 5.191-25.955 0-36.337-10.382-20.764-36.337-41.528-83.055-51.91-129.774-5.191-15.573 5.191-25.955 15.573-31.146 46.719-15.573 72.673-51.91 72.673-98.628s-25.955-83.055-72.673-98.628c-10.382-5.191-20.764-15.573-15.573-31.146 10.382-46.719 31.146-93.437 57.101-134.965 5.191-10.382 20.764-15.573 36.337-10.382 10.382 10.382 31.146 15.573 46.719 15.573 57.101 0 103.819-46.719 103.819-103.819 0-15.573-5.191-36.337-10.382-51.91-5.191-10.382 0-25.955 10.382-36.337 41.528-25.955 88.246-41.528 134.965-57.101 0 0 5.191 0 5.191 0 10.382 0 20.764 5.191 25.955 15.573 15.573 41.528 51.91 72.673 98.628 72.673s83.055-25.955 98.628-72.673c5.191-10.382 15.573-20.764 31.146-15.573 46.719 10.382 93.437 31.146 134.965 57.101 10.382 5.191 15.573 20.764 10.382 36.337-10.382 15.573-10.382 31.146-10.382 51.91 0 57.101 46.719 103.819 103.819 103.819 15.573 0 36.337-5.191 51.91-10.382 10.382-5.191 25.955 0 36.337 10.382 25.955 41.528 41.528 88.246 57.101 134.965-10.382 10.382-20.764 20.764-31.146 25.955zM504.905 292.271c-88.246 0-155.729 67.482-155.729 155.729s67.482 155.729 155.729 155.729 155.729-67.482 155.729-155.729-67.482-155.729-155.729-155.729z" />
<glyph unicode="&#xe905;" glyph-name="cross-circle-solid" data-tags="cross-circle-solid" d="M873.095 809.095c-97.011 97.011-226.358 150.905-361.095 150.905s-264.084-53.895-361.095-150.905-150.905-226.358-150.905-361.095c0-134.737 53.895-264.084 150.905-361.095s226.358-150.905 361.095-150.905 264.084 53.895 361.095 150.905 150.905 226.358 150.905 361.095c0 134.737-53.895 264.084-150.905 361.095zM776.084 216.253c-5.389-5.389-10.779-10.779-21.558-10.779-5.389 0-10.779 0-16.168 5.389l-226.358 199.411-226.358-199.411c-5.389-5.389-10.779-5.389-16.168-5.389s-16.168 5.389-21.558 10.779c-10.779 10.779-10.779 26.947 0 37.726l220.968 194.021-215.579 194.021c-10.779 10.779-16.168 26.947-5.389 37.726s26.947 10.779 37.726 0l226.358-194.021 226.358 199.411c10.779 10.779 26.947 10.779 37.726 0s10.779-26.947 0-37.726l-220.968-199.411 220.968-194.021c5.389-10.779 10.779-26.947 0-37.726z" />
<glyph unicode="&#xe906;" glyph-name="donate" data-tags="donate" d="M897.435 900.128c-132.757-79.926-53.103-181.167-127.447-255.764-47.794-42.627-95.585-37.299-132.757-26.642 9.956 49.954 29.248 132.691 62.249 173.572l6.565 7.423-0.849-0.912c-7.707-7.869-55.574-57.527-94.516-116.14-26.552-63.941-58.413-181.167-53.103-367.663l-0.012-100.968 22.546 2.235c48.763-4.848 93.056-23.030 132.878-54.545l10.75-8.925c5.319-5.289 5.319-5.289 10.639-10.578 26.598 15.868 58.515 21.157 90.434 21.157 90.434 0 170.225-58.182 196.824-142.81v0l0.279-2.575c1.024-5.736 4.28-14.804-0.279-23.871 0-5.289-10.639-10.578-21.278-10.578v0h-872.405c-15.959 0-26.598 0-31.917 10.578s-5.32 21.157 0 37.025c15.959 37.025 42.557 74.050 74.474 95.207 31.917 26.446 74.474 37.025 117.031 37.025 31.917 0 63.835-5.289 90.434-21.157 5.32 5.289 5.32 10.578 10.639 10.578 37.237 31.736 85.113 52.893 138.308 58.182l-1.234-0.11 0.034 104.132c-4.998 35.105-19.404 93.811-56.499 167.231l-7.225 13.936c-58.413 111.897-180.551 207.809-180.551 207.809 58.413-53.285 100.895-181.167 122.136-255.764-47.794-21.314-116.826-37.299-185.86 15.985-122.136 95.912-15.931 250.437-217.723 351.676 0 0 228.342 95.912 403.582-37.299 138.067-106.569 106.206-207.809 79.655-255.764 21.241-37.299 37.172-69.27 47.794-101.24 5.31 111.897 26.552 197.152 47.794 250.437-21.241 31.971-37.172 101.24 42.483 175.839 111.516 106.569 276.135 53.285 276.135 53.285z" />
<glyph unicode="&#xe907;" glyph-name="home" data-tags="home" d="M877.833 385.996v-304.86c0-22.229-18.418-40.647-40.647-40.647h-243.888v243.888h-162.592v-243.888h-243.888c-22.229 0-40.647 18.418-40.647 40.647v304.86c0 1.27 0.635 2.541 0.635 3.811l365.196 301.049 365.196-301.049c0.635-1.27 0.635-2.541 0.635-3.811zM1019.467 429.819l-39.378-47c-3.175-3.811-8.257-6.351-13.338-6.987h-1.905c-5.081 0-9.526 1.27-13.338 4.446l-439.507 366.467-439.507-366.467c-4.446-3.175-9.526-5.081-15.243-4.446-5.081 0.635-10.162 3.175-13.338 6.987l-39.378 47c-6.987 8.257-5.716 21.595 2.541 28.58l456.654 380.44c26.675 22.229 69.864 22.229 96.539 0l154.971-129.565v123.85c0 11.433 8.892 20.324 20.324 20.324h121.944c11.433 0 20.324-8.892 20.324-20.324v-259.131l139.092-115.593c8.257-6.987 9.526-20.324 2.541-28.58z" />
<glyph unicode="&#xe908;" glyph-name="eye-solid" data-tags="eye-solid" d="M1012.181 491.227c-100.236 169.724-287.194 283.166-500.181 283.166-213.081 0-399.995-113.521-500.181-283.166-15.758-26.669-15.758-59.786 0-86.456 100.239-169.721 287.194-283.164 500.181-283.164 213.081 0 399.995 113.521 500.181 283.166 15.758 26.668 15.758 59.784 0 86.453zM511.995 206.762c-182.317 0-341.501 97.036-426.663 241.239 78.504 132.915 219.874 225.762 384.292 239.474 17.411-17.891 28.16-42.288 28.16-69.19 0-54.854-44.573-99.328-99.559-99.328s-99.559 44.475-99.559 99.328l0.003 0.070c-18.14-33.848-28.452-72.521-28.452-113.605 0-133.23 108.252-241.239 241.781-241.239s241.781 108.014 241.781 241.239c0 55.047-18.494 105.772-49.591 146.366 98.835-41.064 181.168-112.854 234.486-203.125-85.168-144.204-244.346-241.239-426.663-241.239z" />
<glyph unicode="&#xe909;" glyph-name="bookshop" data-tags="bookshop" d="M1007.743 19.355h-131.134l66.567 20.586c11.037 3.399 20.069 10.848 25.433 20.967 5.364 10.117 6.418 21.7 2.97 32.61l-248.075 785.247c-5.661 17.965-22.222 30.035-41.22 30.035-4.377 0-8.726-0.661-12.91-1.959l-152.501-47.129c-1.462-0.45-2.879-0.978-4.256-1.566v6.211c0 23.572-19.38 42.75-43.198 42.75h-160.775c-10.198 0-19.565-3.534-26.96-9.403-7.41 5.868-16.795 9.403-27.012 9.403h-160.968c-23.845 0-43.247-19.178-43.247-42.75v-845h-34.203c-8.977 0-16.254-7.198-16.254-16.078s7.277-16.078 16.254-16.078h991.492c8.977 0 16.254 7.198 16.254 16.078s-7.277 16.078-16.254 16.078zM939.817 75.837c-1.328-2.508-3.568-4.355-6.327-5.202l-152.485-47.155c-1.040-0.324-2.109-0.484-3.176-0.484-4.651 0-8.87 3.071-10.258 7.466l-182.88 578.933 172.97 53.439 182.89-578.908c0.859-2.71 0.597-5.584-0.732-8.089zM747.965 693.524l-172.97-53.439-19.778 62.61 172.966 53.448 19.784-62.619zM526.558 829.015l152.525 47.137c1.049 0.326 2.127 0.491 3.199 0.491 4.691 0 8.779-2.991 10.186-7.457l26.018-82.353-172.966-53.448-25.995 82.293c-1.762 5.616 1.39 11.596 7.031 13.337zM737.089 19.355h-224.476v710.391l224.476-710.391zM297.948 533.887h182.155v-44.769h-182.155v44.769zM480.106 566.041h-182.155v157.354h182.155v-157.354zM265.44 680.703h-182.479v42.692h182.479v-42.692zM82.962 648.548h182.479v-42.718h-182.479v42.718zM297.948 456.963h182.155v-437.611h-182.155v437.611zM308.641 874.95h160.775c5.893 0 10.69-4.752 10.69-10.595v-108.803h-182.155v108.8c-0.003 5.843 4.795 10.597 10.69 10.597zM93.701 874.95h160.965c5.942 0 10.774-4.752 10.774-10.595v-108.803h-182.479v108.8c0 5.843 4.82 10.597 10.739 10.597zM82.962 573.676h182.479v-554.323h-182.479v554.323z" />
<glyph unicode="&#xe90a;" glyph-name="bullhorn-solid" data-tags="bullhorn-solid" d="M511.999 707.28v-390.504c-10.944 1.024-21.822 2.752-32.83 3.264v0h-84.986l107.386-214.834c12.544-23.743 7.872-54.397-11.775-74.044v0l-76.859-76.219c-11.647-12.159-27.903-18.943-44.989-18.943-4.224 0-8.511 0.448-12.799 1.344-21.631 4.352-39.23 19.262-47.101 39.805v0l-128.632 342.891h-19.391c-17.663 0-31.998 14.335-31.998 31.998v0 31.998h-95.994c-17.663 0-31.998 14.335-31.998 31.998v0 191.988c0 17.663 14.335 31.998 31.998 31.998v0h95.994v31.998c0 17.663 14.335 31.998 31.998 31.998v0h318.827c11.135 0.512 22.079 2.24 33.15 3.264v0zM991.969 960c3.2 0 6.079-0.96 8.96-1.792 0.64-0.192 1.216 0.128 1.856-0.064 0.192-0.064 0.32-0.32 0.512-0.384 5.439-2.112 9.856-5.76 13.375-10.239 0.832-1.024 1.408-1.92 2.048-3.008 3.072-4.927 5.248-10.368 5.248-16.511v0-831.948c0-6.144-2.176-11.583-5.248-16.511-0.704-1.088-1.28-1.984-2.048-3.008-3.52-4.544-7.936-8.127-13.375-10.239-0.192-0.064-0.32-0.32-0.512-0.384-3.584-1.216-7.168-1.856-10.815-1.856-4.672 0-9.023 1.088-13.056 2.816-0.96 0.448-1.728 1.28-2.688 1.856-2.944 1.664-5.696 3.648-7.936 6.144-0.32 0.384-0.768 0.512-1.024 0.832-99.77 121.145-238.897 202.099-391.271 231.793v0 408.999c152.374 29.694 291.502 110.713 391.271 231.857 0.256 0.256 0.64 0.32 0.896 0.576 3.776 4.224 8.511 7.296 14.015 9.087 1.216 0.384 2.367 0.448 3.584 0.704 2.112 0.448 4.032 1.28 6.208 1.28z" />
<glyph unicode="&#xe90b;" glyph-name="live-play" data-tags="live-play" d="M512 960c282.77 0 512-229.23 512-512s-229.23-512-512-512c-282.77 0-512 229.23-512 512s229.23 512 512 512zM508.343 908.8c-252.473 0-457.143-204.67-457.143-457.143s204.67-457.143 457.143-457.143c252.473 0 457.143 204.67 457.143 457.143s-204.67 457.143-457.143 457.143zM378.951 698.813l4.648-0.033c4.719-0.502 9.036-2.209 12.951-5.12v0l300.976-225.581c3.313-2.61 5.823-5.622 7.63-9.035s2.711-7.128 2.711-11.043c0-3.915-0.904-7.629-2.711-11.244s-4.317-6.526-7.63-8.835v0l-300.976-225.882c-2.309-1.707-4.718-2.912-7.329-3.715s-5.221-1.206-7.831-1.206c-2.008 0-3.915 0.101-5.622 0.402-1.807 0.402-3.614 1.004-5.622 2.008-4.216 2.309-7.529 5.42-10.039 9.336s-3.715 8.333-3.715 13.252v0 451.464c0 4.92 1.306 9.438 3.715 13.453s5.823 7.027 10.039 9.035c4.217 2.309 8.734 3.213 13.453 2.711zM406.387 623.587v-351.473l234.315 175.987-234.315 175.486z" />
<glyph unicode="&#xe90c;" glyph-name="list-solid" data-tags="list-solid" d="M998.4 166.401h-768c-14.131 0-25.6 11.469-25.6 25.6s11.469 25.6 25.6 25.6h768c14.131 0 25.6-11.469 25.6-25.6s-11.469-25.6-25.6-25.6zM998.4 422.4h-768c-14.131 0-25.6 11.469-25.6 25.6s11.469 25.6 25.6 25.6h768c14.131 0 25.6-11.469 25.6-25.6s-11.469-25.6-25.6-25.6zM998.4 678.4h-768c-14.131 0-25.6 11.469-25.6 25.6s11.469 25.6 25.6 25.6h768c14.131 0 25.6-11.469 25.6-25.6s-11.469-25.6-25.6-25.6zM76.8 627.201c-42.342 0-76.8 34.458-76.8 76.8s34.458 76.8 76.8 76.8c42.342 0 76.8-34.458 76.8-76.8s-34.458-76.8-76.8-76.8zM76.8 371.2c-42.342 0-76.8 34.458-76.8 76.8s34.458 76.8 76.8 76.8c42.342 0 76.8-34.458 76.8-76.8s-34.458-76.8-76.8-76.8zM76.8 115.2c-42.342 0-76.8 34.458-76.8 76.8s34.458 76.8 76.8 76.8c42.342 0 76.8-34.458 76.8-76.8s-34.458-76.8-76.8-76.8z" />
<glyph unicode="&#xe90d;" glyph-name="heart-solid" data-tags="heart-solid" d="M517.447-12.256c-5.447 0-10.894 0-10.894 5.447-5.447 5.447-125.277 70.809-250.553 179.745-70.809 65.362-130.723 130.723-174.298 201.532-54.468 87.149-81.702 168.851-81.702 250.553 0 157.957 130.723 283.234 283.234 283.234 54.468 0 108.936-21.787 157.957-54.468 27.234-21.787 54.468-49.021 70.809-76.255 16.34 27.234 43.574 54.468 70.809 76.255 49.021 38.128 108.936 54.468 157.957 54.468 157.957 0 283.234-130.723 283.234-283.234 0-81.702-27.234-168.851-81.702-256-43.574-65.362-98.043-136.17-174.298-201.532-125.277-108.936-245.106-179.745-250.553-179.745 10.894 0 5.447 0 0 0v0z" />
<glyph unicode="&#xe90e;" glyph-name="ministries" data-tags="ministries" d="M453.825 894.396l5.097-4.093 372.943-339.781c9.362-8.531 15.303-20.244 16.81-32.831l0.379-6.356v-522.76c0-27.064-20.155-49.407-45.978-52.266l-5.615-0.309h-745.877c-26.551 0-48.476 20.538-51.281 46.853l-0.303 5.722v522.76c0 12.815 4.604 25.133 12.803 34.665l4.394 4.523 372.943 339.781c17.969 16.37 44.319 17.735 63.685 4.093zM489.61 912.826c19.603 17.867 49.179 17.867 68.782 0v0l372.943-339.772c10.922-9.962 17.198-24.245 17.198-39.196v0-522.76c0-28.989-23.146-52.575-51.593-52.575v0 33.794c10.163 0 18.43 8.424 18.43 18.781v0 522.76c0 5.35-2.233 10.453-6.138 14.011v0l-372.943 339.772c-6.991 6.377-17.577 6.377-24.568 0v0zM424.536 869.897c-3.297 0-6.595-0.899-9.51-2.694l-2.774-2.093-372.943-339.772c-2.935-2.675-4.93-6.214-5.744-10.067l-0.411-3.936v-522.76c0-9.070 6.329-16.653 14.72-18.408l3.71-0.382h254.008v292.837h209.992v-292.837h281.877c8.901 0 16.342 6.45 18.064 15.006l0.375 3.783v522.76c0 4.012-1.256 7.886-3.531 11.070l-2.606 2.933-372.951 339.772c-3.491 3.189-7.888 4.788-12.275 4.788zM482.43 228.828h-143.684v-259.043h143.684v259.043zM565.086 946.619c19.594 17.832 49.162 17.85 68.765 0v0l372.943-339.781c10.931-9.944 17.206-24.227 17.206-39.187v0-522.76c0-28.997-23.146-52.575-51.593-52.575v0 33.785c10.163 0 18.43 8.424 18.43 18.79v0 522.76c0 5.341-2.233 10.436-6.138 13.994v0l-372.943 339.781c-7.008 6.386-17.586 6.369-24.594 0v0z" />
<glyph unicode="&#xe90f;" glyph-name="send-solid" data-tags="icon-send-solid" d="M889.765 478.252l102.706-2.227-928.809 456.472c-8.35 4.175-18.37 2.505-25.329-3.897-6.68-6.402-8.628-16.422-5.010-25.050l189.269-425.298h667.173zM893.94 433.718h-669.956l-175.352-441.998c-3.34-8.35-1.392-17.814 5.010-23.937 0.278-0.278 0.557-0.557 0.835-0.835 6.958-6.123 16.979-7.515 25.050-3.34l912.944 472.337-98.531-2.227z" />
<glyph unicode="&#xe910;" glyph-name="map-marker-solid" data-tags="map-marker-solid" d="M512 960c-168.96 0-307.2-138.24-307.2-307.2 0-76.8 15.36-163.84 46.080-256 25.6-71.68 56.32-148.48 97.28-225.28 71.68-133.12 138.24-220.16 143.36-225.28s10.24-10.24 20.48-10.24v0c10.24 0 15.36 5.12 20.48 10.24s71.68 92.16 143.36 225.28c40.96 76.8 76.8 153.6 97.28 225.28 30.72 92.16 46.080 179.2 46.080 256 0 168.96-138.24 307.2-307.2 307.2zM512 550.4c-56.32 0-102.4 46.080-102.4 102.4s46.080 102.4 102.4 102.4 102.4-46.080 102.4-102.4c0-56.32-46.080-102.4-102.4-102.4z" />
<glyph unicode="&#xe911;" glyph-name="phone-solid" data-tags="phone-solid" d="M819.2-64c-92.16 0-189.44 25.6-286.72 76.8-92.16 46.080-184.32 112.64-261.12 194.56s-148.48 168.96-194.56 261.12c-51.2 97.28-76.8 194.56-76.8 286.72 0 56.32 56.32 117.76 76.8 138.24 35.84 30.72 87.040 66.56 128 66.56 20.48 0 40.96-10.24 71.68-40.96 20.48-20.48 46.080-46.080 71.68-76.8 15.36-20.48 87.040-117.76 87.040-163.84 0-35.84-40.96-66.56-87.040-92.16-20.48-10.24-35.84-20.48-51.2-35.84-15.36-10.24-15.36-15.36-15.36-15.36 46.080-122.88 194.56-271.36 317.44-317.44 0 0 5.12 5.12 20.48 15.36 10.24 15.36 20.48 30.72 30.72 51.2 30.72 46.080 56.32 87.040 92.16 87.040 46.080 0 143.36-71.68 163.84-87.040 30.72-25.6 56.32-51.2 76.8-71.68 25.6-30.72 40.96-51.2 40.96-71.68 0-40.96-35.84-92.16-66.56-128-20.48-20.48-81.92-76.8-138.24-76.8v0z" />
<glyph unicode="&#xe912;" glyph-name="share-solid" data-tags="share (1)" d="M531.455 92.387c10.057-4.59 21.984-3.213 30.404 3.672l451.85 367.192c6.548 5.279 10.291 13.311 10.291 21.573 0 8.491-3.742 16.294-10.525 21.573l-451.616 365.814c-8.654 6.884-20.347 8.491-30.404 3.672-10.057-4.59-16.372-14.458-16.372-25.474v-192.087c-518.038-18.359-515.933-403.91-514.997-590.719v-22.261c0-12.851 8.654-23.867 21.283-27.081 2.339-0.688 4.911-0.918 7.25-0.918 10.057 0 19.645 5.279 25.025 14.229 152.956 264.377 278.781 277.23 461.44 277.918v-191.628c0-10.786 6.317-20.654 16.372-25.474z" />
<glyph unicode="&#xe913;" glyph-name="play" data-tags="play" d="M167.045 954.568c5.432 5.432 16.297 5.432 27.162 5.432s16.297 0 27.162-5.432l635.586-461.751c16.297-10.865 27.162-27.162 27.162-43.459s-10.865-38.027-27.162-43.459l-635.586-461.751c-16.297-10.865-38.027-10.865-54.324 0s-27.162 27.162-27.162 43.459v923.501c0 16.297 10.865 32.594 27.162 43.459z" />
<glyph unicode="&#xe914;" glyph-name="play-circle-solid" data-tags="play-circle-solid" d="M512 959.369c134.571 0 263.759-53.828 360.65-150.719s150.719-226.079 150.719-360.65c0-134.571-53.828-263.759-150.719-360.65s-226.079-150.719-360.65-150.719c-134.571 0-263.759 53.828-360.65 150.719s-150.719 226.079-150.719 360.65c0 134.571 53.828 263.759 150.719 360.65s226.079 150.719 360.65 150.719zM415.533 651.057c-3.26-1.687-5.302-5.003-5.302-8.631v-390.105c0-3.628 2.041-6.954 5.302-8.641 1.447-0.741 3.032-1.112 4.608-1.112 1.972 0 3.934 0.585 5.629 1.726l287.381 195.052c2.686 1.824 4.281 4.818 4.281 8.026s-1.605 6.203-4.281 8.026l-287.381 195.052c-3.042 2.058-6.986 2.272-10.237 0.605z" />
<glyph unicode="&#xe915;" glyph-name="plus-circle-solid" data-tags="plus-circle-solid" d="M873.095 809.095c-97.011 97.011-226.358 150.905-361.095 150.905s-264.084-53.895-361.095-150.905c-97.011-97.011-150.905-226.358-150.905-361.095s53.895-264.084 150.905-361.095c97.011-97.011 226.358-150.905 361.095-150.905s264.084 53.895 361.095 150.905c97.011 97.011 150.905 226.358 150.905 361.095s-53.895 264.084-150.905 361.095zM835.368 421.053h-296.421v-296.421c0-16.168-10.779-26.947-26.947-26.947s-26.947 10.779-26.947 26.947v296.421h-296.421c-16.168 0-26.947 10.779-26.947 26.947s10.779 26.947 26.947 26.947h296.421v296.421c0 16.168 10.779 26.947 26.947 26.947s26.947-10.779 26.947-26.947v-296.421h296.421c16.168 0 26.947-10.779 26.947-26.947s-10.779-26.947-26.947-26.947z" />
<glyph unicode="&#xe916;" glyph-name="send" data-tags="icon-send" d="M994.002 442.346c0.835 0.835 1.392 1.948 1.948 3.062s1.113 2.227 1.392 3.618c0.278 0.557 0.557 1.113 0.835 1.948 0 0.557 0 0.835 0 1.392 0.278 1.113 0.278 2.505 0.278 3.897s0 2.505-0.278 3.897c0 0.557 0 0.835 0 1.392-0.278 0.835-0.557 1.392-0.835 1.948-0.557 1.392-0.835 2.505-1.67 3.618-0.557 1.113-1.113 1.948-1.948 2.783-0.835 1.113-1.67 1.948-2.505 2.783s-1.948 1.392-3.062 2.227c-0.557 0.278-1.113 1.113-1.948 1.392l-928.531 456.194c-8.35 4.175-18.37 2.505-25.329-3.897-6.68-6.402-8.628-16.422-5.010-25.050l199.289-448.122-183.702-463.709c-3.34-8.35-1.392-17.814 5.010-23.937 0.278-0.278 0.557-0.557 0.835-0.835 6.958-6.123 16.979-7.515 25.050-3.34l913.222 472.337c0.557 0.278 1.113 0.835 1.67 1.392 1.113 0.557 1.948 1.392 3.062 2.227 0.835 0.835 1.67 1.948 2.227 2.783zM93.026 865.418l787.971-387.166h-615.68l-172.29 387.166zM106.108 30.686l159.765 403.031h619.299l-779.064-403.031z" />
<glyph unicode="&#xe917;" glyph-name="tag-solid" data-tags="tag-solid" d="M931.721 959.999h-267.907c-41.674 0-95.256-23.814-125.023-53.581l-512-512c-17.86-17.86-23.814-41.674-23.814-65.488s11.907-47.628 23.814-65.488l303.628-303.628c17.86-17.86 41.674-23.814 65.488-23.814v0c23.814 0 47.628 11.907 65.488 23.814l512 512c23.814 35.721 47.628 89.302 47.628 130.977v267.907c0 47.628-41.674 89.302-89.302 89.302zM812.651 662.325c-47.628 0-89.302 41.674-89.302 89.302s41.674 89.302 89.302 89.302 89.302-41.674 89.302-89.302c0-47.628-41.674-89.302-89.302-89.302z" />
<glyph unicode="&#xe918;" glyph-name="topic" data-tags="topic" d="M838.231 934.111c3.296 0 6.454-0.581 9.406-1.605 99.267-12.351 176.363-97.185 176.363-199.743v0-442.965c0-111.023-90.325-201.348-201.348-201.348v0h-281.818l-0.069-97.817c-0.009-11.629-7.019-22.108-17.768-26.555-3.552-1.472-7.288-2.189-10.991-2.189-7.487 0-14.842 2.925-20.345 8.427v0l-118.137 118.134h-172.176c-111.023 0-201.348 90.325-201.348 201.348v0 442.965c0 105.777 82.006 192.701 185.769 200.689v0 0.658zM822.652 876.583h-621.302c-79.302 0-143.82-64.517-143.82-143.82v0-442.965c0-79.299 64.517-143.82 143.82-143.82v0h186.905c11.765 0 21.935-7.078 26.38-17.281v0l68.654-68.651 0.040 57.189c0.011 15.877 12.883 28.744 28.764 28.744v0h310.559c79.302 0 143.82 64.52 143.82 143.82v0 442.965c0 79.302-64.517 143.82-143.82 143.82v0zM677.874 381.842c15.883 0 28.764-12.877 28.764-28.764 0-15.883-12.877-28.764-28.764-28.764v0h-493.782c-15.883 0-28.764 12.88-28.764 28.764 0 15.887 12.88 28.764 28.764 28.764v0zM791.011 542.922c15.883 0 28.764-12.877 28.764-28.764s-12.877-28.764-28.764-28.764v0h-606.92c-15.883 0-28.764 12.877-28.764 28.764s12.88 28.764 28.764 28.764v0zM604.046 704.001c15.883 0 28.764-12.877 28.764-28.764s-12.877-28.764-28.764-28.764v0h-419.954c-15.883 0-28.764 12.877-28.764 28.764s12.88 28.764 28.764 28.764v0z" />
<glyph unicode="&#xe919;" glyph-name="warning-solid" data-tags="warning-solid" d="M1019.947 26.511l-486.332 864.591c-5.404 10.807-16.211 16.211-21.615 16.211-10.807 0-16.211-5.404-21.615-16.211l-486.332-864.591c-5.404-10.807-5.404-16.211 0-27.018s16.211-10.807 21.615-10.807h972.665c10.807 0 16.211 5.404 21.615 10.807s5.404 21.615 0 27.018zM539.018 123.777c0-16.211-10.807-27.018-27.018-27.018s-27.018 10.807-27.018 27.018v54.037c0 16.211 10.807 27.018 27.018 27.018s27.018-10.807 27.018-27.018v-54.037zM539.018 285.888c0-16.211-10.807-27.018-27.018-27.018s-27.018 10.807-27.018 27.018v270.185c0 16.211 10.807 27.018 27.018 27.018s27.018-10.807 27.018-27.018v-270.185z" />
<glyph unicode="&#xe91a;" glyph-name="notification" data-tags="notification" d="M927.294 157.854c-65.078 48.865-102.394 123.555-102.394 204.845v170.657c0 142.954-96.365 263.836-227.543 301.039v40.276c0 47.044-38.285 85.329-85.329 85.329s-85.329-38.285-85.329-85.329v-40.276c-131.178-37.26-227.543-158.086-227.543-301.039v-170.657c0-81.29-37.317-155.924-102.394-204.845-9.784-7.338-13.766-20.138-9.898-31.743s14.734-19.454 26.964-19.454h258.83c-1.878-9.329-2.901-18.829-2.901-28.443 0-78.389 63.825-142.214 142.214-142.214s142.214 63.825 142.214 142.214c0 9.557-0.967 19.113-2.844 28.443h258.83c12.23 0 23.095 7.851 26.964 19.454s-0.113 24.404-9.898 31.743zM483.585 874.671c0 15.7 12.743 28.443 28.443 28.443s28.443-12.743 28.443-28.443v-29.752c-9.386 0.853-18.829 1.309-28.443 1.309s-19.057-0.456-28.443-1.309v29.752zM597.357 78.271c0-47.044-38.285-85.329-85.329-85.329s-85.329 38.285-85.329 85.329c0 9.727 1.707 19.341 4.892 28.443h160.873c3.185-9.102 4.892-18.716 4.892-28.443zM184.48 163.599c14.506 17.578 27.134 36.748 37.488 56.942 22.641 44.258 34.075 92.098 34.075 142.158v170.657c0 141.133 114.853 255.986 255.986 255.986s255.986-114.853 255.986-255.986v-170.657c0-50.059 11.49-97.9 34.075-142.158 10.353-20.251 22.982-39.364 37.488-56.942h-655.153z" />
<glyph unicode="&#xe91b;" glyph-name="calendar" data-tags="calendar" d="M947.2 857.6h-128v25.6c0 14.131-11.469 25.6-25.6 25.6s-25.6-11.469-25.6-25.6v-25.6h-512v25.6c0 14.131-11.469 25.6-25.6 25.6s-25.6-11.469-25.6-25.6v-25.6h-128c-42.342 0-76.8-34.458-76.8-76.8v-716.8c0-42.342 34.458-76.8 76.8-76.8h870.4c42.342 0 76.8 34.458 76.8 76.8v716.8c0 42.342-34.458 76.8-76.8 76.8zM76.8 806.4h128v-76.8c0-14.131 11.469-25.6 25.6-25.6s25.6 11.469 25.6 25.6v76.8h512v-76.8c0-14.131 11.469-25.6 25.6-25.6s25.6 11.469 25.6 25.6v76.8h128c14.131 0 25.6-11.469 25.6-25.6v-128h-921.6v128c0 14.131 11.469 25.6 25.6 25.6zM947.2 38.4h-870.4c-14.131 0-25.6 11.469-25.6 25.6v537.6h921.6v-537.6c0-14.131-11.469-25.6-25.6-25.6zM384 448h-51.2c-14.131 0-25.6 11.469-25.6 25.6s11.469 25.6 25.6 25.6h51.2c14.131 0 25.6-11.469 25.6-25.6s-11.469-25.6-25.6-25.6zM537.6 448h-51.2c-14.131 0-25.6 11.469-25.6 25.6s11.469 25.6 25.6 25.6h51.2c14.131 0 25.6-11.469 25.6-25.6s-11.469-25.6-25.6-25.6zM691.2 448h-51.2c-14.131 0-25.6 11.469-25.6 25.6s11.469 25.6 25.6 25.6h51.2c14.131 0 25.6-11.469 25.6-25.6s-11.469-25.6-25.6-25.6zM844.8 448h-51.2c-14.131 0-25.6 11.469-25.6 25.6s11.469 25.6 25.6 25.6h51.2c14.131 0 25.6-11.469 25.6-25.6s-11.469-25.6-25.6-25.6zM230.4 345.6h-51.2c-14.131 0-25.6 11.469-25.6 25.6s11.469 25.6 25.6 25.6h51.2c14.131 0 25.6-11.469 25.6-25.6s-11.469-25.6-25.6-25.6zM384 345.6h-51.2c-14.131 0-25.6 11.469-25.6 25.6s11.469 25.6 25.6 25.6h51.2c14.131 0 25.6-11.469 25.6-25.6s-11.469-25.6-25.6-25.6zM537.6 345.6h-51.2c-14.131 0-25.6 11.469-25.6 25.6s11.469 25.6 25.6 25.6h51.2c14.131 0 25.6-11.469 25.6-25.6s-11.469-25.6-25.6-25.6zM691.2 345.6h-51.2c-14.131 0-25.6 11.469-25.6 25.6s11.469 25.6 25.6 25.6h51.2c14.131 0 25.6-11.469 25.6-25.6s-11.469-25.6-25.6-25.6zM844.8 345.6h-51.2c-14.131 0-25.6 11.469-25.6 25.6s11.469 25.6 25.6 25.6h51.2c14.131 0 25.6-11.469 25.6-25.6s-11.469-25.6-25.6-25.6zM230.4 243.2h-51.2c-14.131 0-25.6 11.469-25.6 25.6s11.469 25.6 25.6 25.6h51.2c14.131 0 25.6-11.469 25.6-25.6s-11.469-25.6-25.6-25.6zM384 243.2h-51.2c-14.131 0-25.6 11.469-25.6 25.6s11.469 25.6 25.6 25.6h51.2c14.131 0 25.6-11.469 25.6-25.6s-11.469-25.6-25.6-25.6zM537.6 243.2h-51.2c-14.131 0-25.6 11.469-25.6 25.6s11.469 25.6 25.6 25.6h51.2c14.131 0 25.6-11.469 25.6-25.6s-11.469-25.6-25.6-25.6zM691.2 243.2h-51.2c-14.131 0-25.6 11.469-25.6 25.6s11.469 25.6 25.6 25.6h51.2c14.131 0 25.6-11.469 25.6-25.6s-11.469-25.6-25.6-25.6zM844.8 243.2h-51.2c-14.131 0-25.6 11.469-25.6 25.6s11.469 25.6 25.6 25.6h51.2c14.131 0 25.6-11.469 25.6-25.6s-11.469-25.6-25.6-25.6zM230.4 140.8h-51.2c-14.131 0-25.6 11.469-25.6 25.6s11.469 25.6 25.6 25.6h51.2c14.131 0 25.6-11.469 25.6-25.6s-11.469-25.6-25.6-25.6zM384 140.8h-51.2c-14.131 0-25.6 11.469-25.6 25.6s11.469 25.6 25.6 25.6h51.2c14.131 0 25.6-11.469 25.6-25.6s-11.469-25.6-25.6-25.6zM537.6 140.8h-51.2c-14.131 0-25.6 11.469-25.6 25.6s11.469 25.6 25.6 25.6h51.2c14.131 0 25.6-11.469 25.6-25.6s-11.469-25.6-25.6-25.6zM691.2 140.8h-51.2c-14.131 0-25.6 11.469-25.6 25.6s11.469 25.6 25.6 25.6h51.2c14.131 0 25.6-11.469 25.6-25.6s-11.469-25.6-25.6-25.6zM844.8 140.8h-51.2c-14.131 0-25.6 11.469-25.6 25.6s11.469 25.6 25.6 25.6h51.2c14.131 0 25.6-11.469 25.6-25.6s-11.469-25.6-25.6-25.6z" />
<glyph unicode="&#xe91c;" glyph-name="down-circle" data-tags="down-circle" d="M874.065 85.962c96.687 96.687 149.935 225.28 149.935 362.065s-53.248 265.324-149.935 362.011-225.28 149.935-362.065 149.935-265.324-53.248-362.065-149.935-149.935-225.28-149.935-362.011 53.248-265.324 149.935-362.065 225.28-149.935 362.065-149.935 265.324 53.248 362.065 149.935zM53.894 448.028c0 252.604 205.501 458.105 458.105 458.105s458.105-205.501 458.105-458.105c0-252.604-205.501-458.105-458.105-458.105s-458.105 205.501-458.105 458.105zM215.579 528.87c0 6.899 2.641 13.797 7.868 19.079 10.509 10.509 27.594 10.509 38.103 0l250.395-250.395 250.395 250.395c10.509 10.509 27.594 10.509 38.103 0s10.509-27.594 0-38.103l-269.474-269.474c-10.509-10.509-27.594-10.509-38.103 0l-269.474 269.474c-5.282 5.282-7.868 12.18-7.868 19.079z" />
<glyph unicode="&#xe91d;" glyph-name="chevron-down" data-tags="chevron-down" d="M0.055 690.508c0 6.899 2.641 13.797 7.869 19.080 10.51 10.51 27.595 10.51 38.105 0l465.992-465.992 465.992 465.992c10.51 10.51 27.595 10.51 38.105 0s10.51-27.595 0-38.105l-485.072-485.072c-10.51-10.51-27.595-10.51-38.105 0l-485.072 485.072c-5.282 5.282-7.869 12.18-7.869 19.080z" />
<glyph unicode="&#xe91e;" glyph-name="chevron-previous" data-tags="chevron-previous" d="M754.508-63.945c6.899 0 13.797 2.641 19.080 7.869 10.51 10.51 10.51 27.595 0 38.105l-465.992 465.992 465.992 465.992c10.51 10.51 10.51 27.595 0 38.105s-27.595 10.51-38.105 0l-485.072-485.072c-10.51-10.51-10.51-27.595 0-38.105l485.072-485.072c5.282-5.282 12.18-7.869 19.080-7.869z" />
<glyph unicode="&#xe91f;" glyph-name="chevron-next" data-tags="chevron-next" d="M269.492-63.945c-6.899 0-13.797 2.641-19.080 7.869-10.51 10.51-10.51 27.595 0 38.105l465.992 465.992-465.992 465.992c-10.51 10.51-10.51 27.595 0 38.105s27.595 10.51 38.105 0l485.072-485.072c10.51-10.51 10.51-27.595 0-38.105l-485.072-485.072c-5.282-5.282-12.18-7.869-19.080-7.869z" />
<glyph unicode="&#xe920;" glyph-name="chevron-up-circle" data-tags="chevron-up-circle" d="M149.935 810.092c-96.687-96.687-149.935-225.28-149.935-362.065s53.248-265.324 149.935-362.065 225.28-149.935 362.065-149.935 265.324 53.248 362.065 149.935 149.935 225.28 149.935 362.011-53.248 265.324-149.935 362.065-225.28 149.935-362.065 149.935-265.324-53.248-362.065-149.935zM970.106 448.027c0-252.604-205.501-458.105-458.105-458.105s-458.105 205.501-458.105 458.105c0 252.604 205.501 458.105 458.105 458.105s458.105-205.501 458.105-458.105zM808.422 367.185c0-6.899-2.641-13.797-7.868-19.079-10.509-10.509-27.594-10.509-38.103 0l-250.395 250.395-250.395-250.395c-10.509-10.509-27.594-10.509-38.103 0s-10.509 27.594 0 38.103l269.474 269.474c10.509 10.509 27.594 10.509 38.103 0l269.474-269.474c5.282-5.282 7.868-12.18 7.868-19.079z" />
<glyph unicode="&#xe921;" glyph-name="bubble-cc" data-tags="bubble-cc" d="M513.055 905.16c134.459 0 263.539-43.027 360.35-118.324 48.405-37.649 86.054-80.675 112.946-129.080 21.513-48.405 37.649-102.189 37.649-155.972s-16.135-107.566-43.027-161.351c-26.892-48.405-64.54-91.432-112.946-129.080-96.811-75.297-225.89-118.324-360.35-118.324-53.784 0-107.566 5.378-161.351 21.513-21.513-16.135-64.54-43.027-118.324-69.919-75.297-32.27-145.216-53.784-198.999-53.784-10.758 0-21.514 5.38-26.893 21.515s0 21.513 10.757 32.27c91.432 53.784 129.080 134.459 139.838 172.107-96.811 69.919-150.593 177.485-150.593 285.052 0 53.784 16.135 107.566 43.027 161.351 26.892 48.405 64.54 91.432 112.946 129.080 91.432 69.919 220.512 112.946 354.971 112.946zM513.054 851.377c-252.782 0-457.16-155.972-457.16-349.593 0-96.811 53.784-193.621 150.593-258.162 10.757-5.378 10.757-16.135 10.757-26.892-5.378-21.513-26.892-86.054-86.054-150.593 69.919 26.892 145.216 64.54 198.999 107.566 5.378 5.378 16.135 5.378 21.513 5.378 48.405-16.135 102.189-21.513 161.351-21.513 252.782 0 457.16 155.972 457.16 349.593s-204.377 344.215-457.16 344.215zM360.049 686.57c33.988 0 61.702-8.997 83.139-26.991s36.821-46.541 46.151-85.638v0l-75.641-16.661-1.036 6.011c-6.492 33.092-23.586 49.637-51.28 49.637-18.883 0-34.1-7.997-45.652-23.992s-17.327-42.986-17.327-80.973c0-41.987 5.776-71.643 17.327-88.971s26.991-25.991 46.319-25.991c14.439 0 26.325 4.943 35.655 14.829s15.994 27.38 19.994 52.483v0l75.641-15.662-1.596-8.122c-16.873-79.891-61.103-119.836-132.694-119.836-47.318 0-82.417 17.994-105.299 53.982s-34.322 79.308-34.322 129.957c0 60.647 12.94 106.798 38.82 138.454s59.813 47.484 101.8 47.484zM671.281 686.57c33.988 0 61.702-8.997 83.139-26.991s36.821-46.541 46.151-85.638v0l-75.641-16.661-1.036 6.011c-6.492 33.092-23.586 49.637-51.28 49.637-18.883 0-34.1-7.997-45.652-23.992s-17.327-42.986-17.327-80.973c0-41.987 5.776-71.643 17.327-88.971s26.991-25.991 46.319-25.991c14.439 0 26.325 4.943 35.655 14.829s15.994 27.38 19.994 52.483v0l75.641-15.662-1.596-8.122c-16.873-79.891-61.103-119.836-132.694-119.836-47.318 0-82.417 17.994-105.299 53.982s-34.322 79.308-34.322 129.957c0 60.647 12.94 106.798 38.82 138.454s59.813 47.484 101.8 47.484z" />
<glyph unicode="&#xe922;" glyph-name="chevron-up" data-tags="chevron-up" d="M0.055 205.492c0-6.899 2.641-13.797 7.869-19.080 10.51-10.51 27.595-10.51 38.105 0l465.992 465.992 465.992-465.992c10.51-10.51 27.595-10.51 38.105 0s10.51 27.595 0 38.105l-485.072 485.072c-10.51 10.51-27.595 10.51-38.105 0l-485.072-485.072c-5.282-5.282-7.869-12.18-7.869-19.080z" />
<glyph unicode="&#xe923;" glyph-name="settings2" data-tags="settings2" d="M387.045-64.001c-2.163 0-4.38 0.264-6.596 0.844-47.386 12.189-92.924 30.974-135.297 55.882-12.295 7.229-16.622 22.902-9.815 35.407 8.39 15.408 12.823 32.821 12.823 50.499 0 58.204-47.332 105.536-105.536 105.536-17.625 0-35.091-4.433-50.499-12.823-12.506-6.807-28.178-2.48-35.407 9.815-24.906 42.426-43.692 87.911-55.882 135.297-3.43 13.403 4.063 27.176 17.15 31.556 42.953 14.459 71.87 54.667 71.87 99.995s-28.864 85.537-71.87 99.995c-13.087 4.433-20.58 18.152-17.15 31.556 12.189 47.386 30.974 92.924 55.882 135.297 7.229 12.295 22.902 16.622 35.407 9.815 15.355-8.39 32.821-12.823 50.499-12.823 58.204 0 105.536 47.332 105.536 105.536 0 17.625-4.433 35.091-12.823 50.499-6.807 12.506-2.48 28.178 9.815 35.407 42.426 24.906 87.911 43.692 135.297 55.882 13.403 3.43 27.176-4.063 31.556-17.15 14.459-42.953 54.667-71.87 99.995-71.87s85.537 28.864 99.995 71.87c4.433 13.087 18.205 20.58 31.556 17.15 47.386-12.189 92.924-30.974 135.297-55.882 12.295-7.229 16.622-22.902 9.815-35.407-8.39-15.408-12.823-32.821-12.823-50.499 0-58.204 47.332-105.536 105.536-105.536 17.625 0 35.091 4.433 50.499 12.823 12.506 6.807 28.178 2.48 35.407-9.815 24.906-42.426 43.692-87.911 55.882-135.297 3.43-13.403-4.063-27.176-17.15-31.556-42.953-14.459-71.87-54.667-71.87-99.995s28.864-85.537 71.87-99.995c13.087-4.433 20.58-18.152 17.15-31.556-12.189-47.386-30.974-92.924-55.882-135.297-7.229-12.295-22.902-16.622-35.407-9.815-15.408 8.39-32.821 12.823-50.499 12.823-58.204 0-105.536-47.332-105.536-105.536 0-17.625 4.433-35.091 12.823-50.499 6.807-12.506 2.48-28.178-9.815-35.407-42.426-24.906-87.911-43.692-135.297-55.882-13.403-3.43-27.176 4.063-31.556 17.15-14.459 42.953-54.667 71.87-99.995 71.87s-85.537-28.864-99.995-71.87c-3.694-10.923-13.931-17.994-25.012-17.994zM512.053 78.578c59.469 0 113.029-33.139 140.099-84.534 27.439 8.495 54.14 19.472 79.68 32.821-5.699 16.569-8.654 34.088-8.654 51.713 0 87.278 71.026 158.304 158.304 158.304 17.625 0 35.143-2.955 51.713-8.654 13.351 25.54 24.378 52.188 32.821 79.68-51.396 27.017-84.534 80.576-84.534 140.099s33.139 113.029 84.534 140.099c-8.495 27.439-19.472 54.14-32.821 79.68-16.569-5.699-34.088-8.654-51.713-8.654-87.278 0-158.304 71.026-158.304 158.304 0 17.625 2.955 35.143 8.654 51.713-25.54 13.351-52.188 24.378-79.68 32.821-27.017-51.396-80.576-84.534-140.099-84.534s-113.029 33.139-140.099 84.534c-27.439-8.443-54.14-19.472-79.68-32.821 5.699-16.569 8.654-34.088 8.654-51.713 0-87.278-71.026-158.304-158.304-158.304-17.625 0-35.143 2.955-51.713 8.654-13.351-25.54-24.378-52.188-32.821-79.68 51.396-27.017 84.534-80.576 84.534-140.099s-33.139-113.029-84.534-140.099c8.443-27.439 19.472-54.14 32.821-79.68 16.569 5.699 34.088 8.654 51.713 8.654 87.278 0 158.304-71.026 158.304-158.304 0-17.625-2.955-35.143-8.654-51.713 25.54-13.351 52.188-24.378 79.68-32.821 27.017 51.396 80.576 84.534 140.099 84.534zM512.053 289.65c-87.278 0-158.304 71.026-158.304 158.304s71.026 158.304 158.304 158.304 158.304-71.026 158.304-158.304-71.026-158.304-158.304-158.304zM512.053 553.49c-58.204 0-105.536-47.332-105.536-105.536s47.332-105.536 105.536-105.536c58.204 0 105.536 47.332 105.536 105.536s-47.332 105.536-105.536 105.536z" />
<glyph unicode="&#xe924;" glyph-name="exit" data-tags="exit" d="M636.496 605.16c15.276 0 27.674 12.398 27.674 27.674v221.39c0 45.772-37.249 83.021-83.021 83.021h-498.128c-45.772 0-83.021-37.249-83.021-83.021v-664.171c0-41.289 29.721-86.342 67.634-102.559l285.704-122.428c9.852-4.206 19.87-6.31 29.444-6.31 11.789 0 23.024 3.211 32.6 9.519 17.379 11.457 27.397 31.825 27.397 55.791v83.021h138.369c45.772 0 83.021 37.249 83.021 83.021v221.39c0 15.276-12.398 27.674-27.674 27.674s-27.674-12.398-27.674-27.674v-221.39c0-15.276-12.398-27.674-27.674-27.674h-138.369v525.802c0 41.289-29.721 86.342-67.634 102.559l-212.645 91.157h418.649c15.276 0 27.674-12.398 27.674-27.674v-221.39c0-15.276 12.398-27.674 27.674-27.674zM353.338 739.876c17.821-7.638 34.094-32.323 34.094-51.695v-664.171c0-5.756-1.55-8.966-2.491-9.576s-4.483-0.775-9.796 1.494l-285.704 122.428c-17.821 7.638-34.094 32.268-34.094 51.695v664.171c0 4.373 0.997 8.469 2.823 12.176l295.169-126.524zM1015.849 541.732l-166.043 166.043c-10.793 10.793-28.338 10.793-39.13 0s-10.793-28.338 0-39.13l118.776-118.776h-348.303c-15.276 0-27.674-12.398-27.674-27.674s12.398-27.674 27.674-27.674h348.303l-118.776-118.776c-10.793-10.793-10.793-28.338 0-39.13 5.424-5.424 12.508-8.081 19.593-8.081s14.169 2.712 19.593 8.081l166.043 166.043c10.793 10.793 10.793 28.338 0 39.13z" />
<glyph unicode="&#xe925;" glyph-name="users" data-tags="users" d="M897.607 465.249l-1.38 0.69c-3.295 1.38-6.412 2.766-9.688 4.159-3.628 1.38-7.271 2.766-10.908 3.985-2.938 1.044-5.878 1.904-8.828 2.766-0.349 0.178-0.868 0.178-1.208 0.349 0.349 0.178 0.69 0.349 1.208 0.513 0.868 0.349 1.904 0.868 2.766 1.208l1.044 0.513c3.295 1.558 6.576 2.938 9.862 4.675l2.070 1.208c3.628 2.070 7.271 4.159 10.908 6.745 1.904 1.208 3.807 2.766 5.543 4.159l6.233 4.853c35.827 29.598 56.432 73.217 56.432 118.211v1.208c0 85.683-69.748 155.25-155.25 155.25-81.699 0-149.715-63.867-154.738-145.566l-0.178-2.070c-0.178-2.602-0.349-5.187-0.349-7.792 0-13.334 1.737-26.485 5.018-39.113-27.003 51.579-81.176 86.886-143.318 86.886-62.487 0-117.183-35.827-144.008-88.622 3.461 12.803 5.365 25.956 5.365 39.469v1.208c0 85.683-69.748 155.25-155.25 155.25-81.873 0.513-149.885-63.357-154.916-145.045l-0.178-2.070c-0.178-2.602-0.349-5.187-0.349-7.792 0-62.487 37.218-118.742 94.855-143.14 0.349-0.178 0.868-0.349 1.38-0.513-0.349-0.178-0.868-0.178-1.208-0.349-3.461-1.044-6.745-2.070-10.040-3.117l-2.248-0.868c-6.745-2.427-13.498-5.187-19.901-8.133l-1.737-0.868c-75.811-36.175-124.618-113.541-124.618-197.319 0-1.904 0.178-3.807 0.178-5.714l0.513-11.598h20.948v19.725h-0.349c0.868 75.287 45.346 144.184 113.198 176.019l2.248 0.868 0.178 0.178c5.365 2.427 10.73 4.675 16.273 6.576l1.737 0.69c2.938 1.044 6.055 2.070 9.172 2.938 3.985 1.208 7.969 2.248 11.943 3.117 2.070 0.513 4.159 0.868 6.233 1.208 1.737 0.349 3.295 0.69 5.018 0.868l0.868 0.178c3.117 0.513 6.055 0.868 9.172 1.208l6.923 0.69c9.172 0.69 17.831 0.69 28.561 0l6.745-0.513c1.737-0.178 3.295-0.349 5.365-0.69l2.427-0.349c2.602-0.349 5.187-0.868 7.613-1.208l1.208-0.178c1.38-0.349 2.938-0.513 4.159-0.868 4.159-0.868 8.303-2.070 12.466-3.117 2.766-0.868 5.365-1.558 7.969-2.427 3.295-1.044 6.576-2.248 9.862-3.628 3.117-1.208 6.233-2.602 9.35-3.985l0.513-0.178c47.594-21.816 83.769-61.266 101.947-108.524-72.001-39.803-117.873-116.49-117.873-199.216 0-2.070 0.178-3.985 0.178-5.878l0.513-12.11h21.816v20.423h-0.349c1.044 78.227 47.255 150.241 117.873 183.299l2.248 0.868 0.349 0.178c5.543 2.602 11.245 4.853 16.963 6.923l1.904 0.69c3.117 1.044 6.233 2.070 9.524 2.938 3.985 1.208 8.133 2.248 12.288 3.117 2.070 0.513 4.323 0.868 6.576 1.38 1.737 0.349 3.461 0.69 5.187 0.868l0.868 0.178c3.117 0.513 6.412 1.044 9.524 1.38l7.271 0.69c9.524 0.69 18.7 0.868 29.598 0l7.101-0.513c1.737-0.178 3.461-0.513 5.543-0.69l2.602-0.349c2.602-0.349 5.365-0.868 7.969-1.38l1.208-0.178c1.558-0.349 2.938-0.513 4.323-0.868 4.323-1.044 8.66-2.070 12.978-3.295 2.766-0.868 5.714-1.737 8.303-2.602 3.461-1.208 6.923-2.427 10.218-3.807 3.295-1.208 6.412-2.602 9.688-4.159l0.513-0.178c71.139-32.712 117.695-103.159 119.943-180.873h0.178v-23.886h21.282l0.69 11.943c0.178 2.070 0.178 3.985 0.178 6.055 0 83.079-45.864 159.588-118.047 199.394 18.17 46.559 53.482 85.505 99.864 107.314l2.248 0.868 0.178 0.178c5.365 2.427 10.73 4.675 16.273 6.576l1.737 0.69c2.938 1.044 6.055 2.070 9.172 2.938 3.985 1.208 7.969 2.248 11.943 3.117 2.070 0.513 4.159 0.868 6.233 1.208 1.737 0.349 3.295 0.69 5.018 0.868l0.868 0.178c3.117 0.513 6.055 0.868 9.172 1.208l6.923 0.69c9.172 0.69 17.831 0.69 28.561 0l6.745-0.513c1.737-0.178 3.295-0.349 5.365-0.69l2.427-0.349c2.602-0.349 5.187-0.868 7.613-1.208l1.208-0.178c1.38-0.349 2.938-0.513 4.159-0.868 4.159-0.868 8.303-2.070 12.466-3.117 2.766-0.868 5.365-1.558 7.969-2.427 3.295-1.044 6.576-2.248 9.862-3.628 3.117-1.208 6.233-2.602 9.35-3.985l0.513-0.178c68.364-31.321 113.020-99.174 115.268-173.771h0.178v-23.018h20.423l0.513 11.42c0.178 1.904 0.178 3.807 0.178 5.878 1.208 84.637-48.812 162.529-126.355 198.18zM271.732 496.753c-1.904-0.69-3.807-1.38-5.714-2.070l-3.985-1.38c-0.868-0.349-1.558-0.69-2.427-0.868-1.558-0.513-3.117-0.868-4.675-1.208l-4.853-1.208c-1.044-0.349-2.070-0.513-3.117-0.69-1.558-0.349-3.295-0.513-5.018-0.69l-4.675-0.69c-1.208-0.178-2.248-0.349-3.461-0.513-4.159-0.349-8.303-0.69-12.466-0.69h-1.208c-13.498 0-26.65 2.070-39.469 6.055-1.044 0.349-2.248 0.69-3.295 1.208l-4.675 1.737c-1.38 0.513-2.938 1.044-4.323 1.558-49.153 20.77-81.009 68.721-81.009 122.192 0 2.070 0.178 4.159 0.349 6.233l0.178 2.248c4.497 69.232 62.659 123.75 132.41 123.75 73.217 0 132.588-59.547 132.754-131.542v-1.208c0-39.469-17.653-76.67-48.463-102.111l-5.878-4.497c-1.38-1.044-2.602-2.070-4.323-3.295-2.938-2.070-6.055-3.807-9.35-5.543l-1.737-1.044c-2.602-1.38-5.543-2.766-8.303-3.985l-3.295-1.737zM309.993 465.249l-1.38 0.69c-3.295 1.38-6.412 2.766-9.688 4.159-3.628 1.38-7.271 2.766-10.908 3.985-2.938 1.044-5.878 1.904-8.828 2.766-0.349 0.178-0.868 0.178-1.208 0.349 0.349 0.178 0.69 0.349 1.208 0.513 0.868 0.349 1.904 0.868 2.766 1.208l1.044 0.513c3.295 1.558 6.576 2.938 9.862 4.675l2.070 1.208c3.628 2.070 7.271 4.159 10.908 6.745 1.904 1.208 3.807 2.766 5.543 4.159l6.233 4.853c16.613 13.846 29.941 30.46 39.469 48.976-2.938-10.552-4.853-21.638-5.543-33.058l-0.178-2.070c-0.178-2.602-0.349-5.365-0.349-8.133 0-34.27 10.73-66.806 29.762-93.468-19.561 21.46-43.445 39.291-70.791 51.927zM449.844 357.072c-3.628-1.044-7.101-2.070-10.386-3.295l-2.248-0.868c-5.018-1.737-10.040-3.807-15.055-5.878-6.923 17.475-16.273 34.104-27.345 49.153 15.227-16.095 33.748-29.251 55.039-38.245 0.513-0.178 0.868-0.349 1.38-0.513-0.513-0.178-1.044-0.349-1.38-0.349zM567.884 377.842c-1.904-0.868-3.985-1.558-6.055-2.248l-4.159-1.558c-0.868-0.349-1.737-0.69-2.427-0.868-1.558-0.513-3.117-0.868-4.853-1.208l-5.187-1.38c-1.044-0.349-2.248-0.513-3.117-0.868-1.737-0.349-3.461-0.513-5.187-0.868l-4.853-0.69c-1.208-0.178-2.427-0.349-3.628-0.513-4.323-0.513-8.66-0.69-12.978-0.69h-1.208c-14.025 0-27.871 2.070-41.028 6.233-1.208 0.349-2.248 0.868-3.295 1.208l-4.853 1.737c-1.558 0.513-2.938 1.044-4.497 1.558-51.229 21.638-84.29 71.659-84.29 127.223 0 2.248 0.178 4.323 0.349 6.412l0.178 2.248c4.497 72.527 64.912 129.293 137.597 129.293 76.156 0 138.121-61.964 138.121-136.906v-1.38c0-41.028-18.343-79.785-50.369-106.275l-6.055-4.675c-1.38-1.044-2.766-2.248-4.497-3.461-3.117-2.070-6.412-3.985-9.688-5.878l-1.904-1.044c-2.766-1.558-5.714-2.766-8.66-4.159l-3.461-1.208zM596.101 349.971c-3.807 1.558-7.613 2.938-11.42 4.159-3.117 1.044-6.055 1.904-9.172 2.766-0.349 0.178-0.868 0.178-1.208 0.349 0.349 0.178 0.868 0.349 1.208 0.513 1.044 0.349 1.904 0.868 2.938 1.38l1.208 0.513c3.461 1.558 6.923 3.117 10.218 4.853l2.248 1.38c3.807 2.070 7.613 4.323 11.42 6.923 1.904 1.38 3.807 2.766 5.714 4.323l6.412 5.018c5.543 4.675 10.908 9.524 15.751 14.891-11.42-15.405-20.948-32.19-28.043-50.199-2.427 1.208-4.853 2.248-7.271 3.117zM745.985 476.679c-3.461-1.044-6.745-2.070-10.040-3.117l-2.248-0.868c-6.745-2.427-13.498-5.187-19.901-8.133l-1.737-0.868c-26.313-12.639-49.331-30.12-68.19-51.229 19.561 27.003 30.295 59.547 30.295 92.94v1.38c0 14.196-1.904 28.043-5.365 41.192 16.449-30.988 43.098-56.076 76.846-70.443 0.349-0.178 0.868-0.349 1.38-0.513-0.178-0.178-0.69-0.178-1.044-0.349zM859.362 496.753c-1.904-0.69-3.807-1.38-5.714-2.070l-3.985-1.38c-0.868-0.349-1.558-0.69-2.427-0.868-1.558-0.513-3.117-0.868-4.675-1.208l-4.853-1.208c-1.044-0.349-2.070-0.513-3.117-0.69-1.558-0.349-3.295-0.513-5.018-0.69l-4.675-0.69c-1.208-0.178-2.248-0.349-3.461-0.513-4.159-0.349-8.303-0.69-12.466-0.69h-1.208c-13.498 0-26.65 2.070-39.469 6.055-1.044 0.349-2.248 0.69-3.295 1.208l-4.675 1.737c-1.38 0.513-2.938 1.044-4.323 1.558-49.153 20.77-81.009 68.721-81.009 122.192 0 2.070 0.178 4.159 0.349 6.233l0.178 2.248c4.323 69.748 62.487 124.274 132.232 124.274 73.217 0 132.588-59.547 132.754-131.542v-1.208c0-39.469-17.653-76.67-48.463-102.111l-5.878-4.497c-1.38-1.044-2.602-2.070-4.323-3.295-2.938-2.070-6.055-3.807-9.35-5.543l-1.737-1.044c-2.602-1.38-5.543-2.766-8.303-3.985l-3.117-2.248z" />
<glyph unicode="&#xe926;" glyph-name="cross-circle" data-tags="cross-circle" d="M772.419 252.578l-219.891 195.422 219.891 195.422c11.102 9.863 12.126 26.894 2.263 38.049s-26.894 12.126-38.049 2.263l-224.634-199.68-224.634 199.68c-11.102 9.863-28.133 8.893-38.049-2.263s-8.893-28.133 2.263-38.049l219.891-195.422-219.891-195.422c-11.102-9.863-12.126-26.894-2.263-38.049 5.336-5.982 12.719-9.055 20.157-9.055 6.36 0 12.773 2.263 17.893 6.791l224.634 199.68 224.634-199.68c5.12-4.581 11.534-6.791 17.893-6.791 7.438 0 14.821 3.072 20.157 9.055 9.863 11.102 8.893 28.133-2.263 38.049zM512-64c-136.785 0-265.324 53.248-362.065 149.935s-149.935 225.28-149.935 362.011c0 136.785 53.248 265.324 149.935 362.065s225.28 149.989 362.065 149.989c136.785 0 265.324-53.248 362.065-149.989s149.935-225.28 149.935-362.065-53.248-265.324-149.935-362.011c-96.687-96.687-225.28-149.935-362.065-149.935zM512 906.105c-252.604 0-458.105-205.501-458.105-458.105s205.501-458.105 458.105-458.105 458.105 205.501 458.105 458.105-205.501 458.105-458.105 458.105z" />
<glyph unicode="&#xe927;" glyph-name="video" data-tags="video" d="M381.389 197.121c2.61 0 5.22 0.402 7.831 1.205s5.020 2.008 7.329 3.715l300.976 225.882c3.313 2.309 5.823 5.22 7.63 8.835s2.711 7.329 2.711 11.244-0.904 7.63-2.711 11.043c-1.807 3.413-4.317 6.425-7.63 9.035l-300.976 225.581c-3.915 2.911-8.232 4.618-12.951 5.12s-9.236-0.402-13.453-2.711c-4.216-2.008-7.63-5.020-10.039-9.035s-3.715-8.533-3.715-13.453v-451.464c0-4.919 1.205-9.336 3.715-13.252s5.823-7.027 10.039-9.336c2.008-1.004 3.815-1.606 5.622-2.008 1.707-0.301 3.614-0.402 5.622-0.402zM406.386 623.587l234.315-175.485-234.315-175.987v351.473zM935.052-63.999h-846.105c-48.991 0-88.947 39.956-88.947 88.947v846.105c0 48.991 39.956 88.947 88.947 88.947h846.005c49.092 0 89.048-39.956 89.048-88.947v-846.005c0-49.092-39.956-89.048-88.947-89.048zM88.946 909.805c-21.384 0-38.751-17.368-38.751-38.751v-846.005c0-21.484 17.368-38.852 38.751-38.852h846.005c21.384 0 38.751 17.368 38.751 38.751v846.105c0.1 21.384-17.267 38.751-38.651 38.751h-846.105z" />
<glyph unicode="&#xe928;" glyph-name="cross" data-tags="cross" d="M567.606 447.99l444.713 444.713c15.359 15.359 15.359 40.328 0 55.687s-40.328 15.359-55.687 0l-444.713-444.713-444.713 444.713c-15.359 15.359-40.328 15.359-55.687 0s-15.359-40.328 0-55.687l444.713-444.713-444.713-444.713c-15.359-15.359-15.359-40.328 0-55.687 7.72-7.72 17.801-11.5 27.884-11.5s20.164 3.86 27.884 11.5l444.713 444.713 444.713-444.713c7.72-7.72 17.801-11.5 27.884-11.5s20.164 3.86 27.884 11.5c15.359 15.359 15.359 40.328 0 55.687l-444.713 444.713z" />
<glyph unicode="&#xe929;" glyph-name="coment" data-tags="comment" d="M29.002-9.159c-10.757 0-21.513 5.378-26.892 21.513s0 21.513 10.757 32.27c91.432 53.784 129.081 134.459 139.838 172.108-96.811 69.919-150.594 177.486-150.594 285.052 0 53.784 16.135 107.567 43.027 161.351 26.892 48.405 64.54 91.432 112.946 129.081 91.432 69.919 220.513 112.946 354.971 112.946s263.539-43.027 360.35-118.324c48.405-37.649 86.054-80.676 112.946-129.081 21.513-48.405 37.649-102.189 37.649-155.973s-16.135-107.567-43.027-161.351c-26.892-48.405-64.54-91.432-112.946-129.081-96.811-75.297-225.891-118.324-360.35-118.324-53.784 0-107.567 5.378-161.351 21.513-21.513-16.135-64.54-43.027-118.324-69.919-75.297-32.27-145.216-53.784-199-53.784v0zM513.054 851.378c-252.782 0-457.16-155.973-457.16-349.593 0-96.811 53.784-193.621 150.594-258.161 10.757-5.378 10.757-16.135 10.757-26.892-5.378-21.513-26.892-86.054-86.054-150.594 69.919 26.892 145.216 64.54 199 107.567 5.378 5.378 16.135 5.378 21.513 5.378 48.405-16.135 102.189-21.513 161.351-21.513 252.782 0 457.16 155.973 457.16 349.593s-204.378 344.215-457.16 344.215z" />
<glyph unicode="&#xe92a;" glyph-name="enter" data-tags="enter" d="M943.158 924.429h-485.053c-44.571 0-80.842-36.272-80.842-80.842v-161.684c0-14.875 12.073-26.947 26.947-26.947s26.947 12.073 26.947 26.947v161.684c0 14.875 12.073 26.947 26.947 26.947h407.66l-207.063-88.764c-36.918-15.845-65.859-59.716-65.859-99.867v-512h-134.737c-14.875 0-26.947 12.073-26.947 26.947v161.684c0 14.875-12.073 26.947-26.947 26.947s-26.947-12.073-26.947-26.947v-161.684c0-44.571 36.272-80.842 80.842-80.842h134.737v-80.842c0-23.337 9.701-43.169 26.678-54.326 9.378-6.144 20.264-9.269 31.744-9.269 9.324 0 19.079 2.048 28.672 6.144l278.204 119.215c36.918 15.845 65.859 59.716 65.859 99.921v646.737c0 44.571-36.272 80.842-80.842 80.842zM970.105 196.85c0-18.917-15.845-42.9-33.199-50.338l-278.204-119.215c-5.174-2.209-8.569-2.048-9.539-1.455s-2.425 3.719-2.425 9.324v646.737c0 18.917 15.845 42.9 33.199 50.338l287.421 123.203c1.779-3.557 2.748-7.599 2.748-11.857v-646.737zM450.236 539.297l-161.684 161.684c-10.509 10.509-27.594 10.509-38.103 0s-10.509-27.594 0-38.103l115.658-115.658h-339.16c-14.875 0-26.947-12.073-26.947-26.947s12.073-26.947 26.947-26.947h339.16l-115.658-115.658c-10.509-10.509-10.509-27.594 0-38.103 5.282-5.282 12.18-7.868 19.079-7.868s13.797 2.641 19.079 7.868l161.684 161.684c10.509 10.509 10.509 27.594 0 38.103z" />
<glyph unicode="&#xe92b;" glyph-name="mail" data-tags="mail" d="M943.158 771.369h-862.316c-44.571 0-80.842-36.272-80.842-80.842v-485.053c0-44.571 36.272-80.842 80.842-80.842h862.316c44.571 0 80.842 36.272 80.842 80.842v485.053c0 44.571-36.272 80.842-80.842 80.842zM943.158 717.474c1.617 0 3.126-0.162 4.688-0.432l-405.935-270.605c-15.629-10.402-44.14-10.402-59.769 0l-405.935 270.605c1.509 0.269 3.072 0.432 4.688 0.432h862.316zM943.158 178.527h-862.316c-14.875 0-26.947 12.073-26.947 26.947v461.662l398.336-265.539c16.761-11.156 38.265-16.761 59.769-16.761s43.008 5.605 59.769 16.761l398.336 265.539v-461.662c0-14.875-12.073-26.947-26.947-26.947z" />
<glyph unicode="&#xe92c;" glyph-name="outside" data-tags="outside" d="M377.6 960c17.672 0 32-14.328 32-32s-14.328-32-32-32h-313.6v-896h896v313.6c0 17.672 14.328 32 32 32s32-14.328 32-32v-377.6h-1024v1024h377.6zM1024 960v-352c0-17.672-14.328-32-32-32s-32 14.328-32 32v0 242.75l-556.32-556.352-45.281 45.281 556.352 556.32h-242.75c-17.672 0-32 14.328-32 32s14.328 32 32 32v0h352z" />
<glyph unicode="&#xe92d;" glyph-name="cc" data-tags="cc" d="M244.336 124.356c129.458 0 207.794 74.642 235.007 223.927v0l-132.374 27.408c-6.998-43.93-18.661-74.545-34.989-91.845s-37.127-25.95-62.396-25.95c-33.822 0-60.841 15.162-81.057 45.485s-30.323 82.223-30.323 155.699c0 66.478 10.108 113.713 30.323 141.704s46.846 41.986 79.891 41.986c51.317 0 81.834-32.462 91.554-97.385v0l132.374 29.157c-16.328 68.422-43.25 118.378-80.765 149.868s-86.014 47.235-145.494 47.235c-73.476 0-132.859-27.699-178.15-83.098s-67.936-136.164-67.936-242.296c0-88.638 20.021-164.447 60.064-227.426s101.467-94.469 184.273-94.469zM788.993 124.356c129.458 0 207.794 74.642 235.007 223.927v0l-132.374 27.408c-6.998-43.93-18.661-74.545-34.989-91.845s-37.127-25.95-62.396-25.95c-33.822 0-60.841 15.162-81.057 45.485s-30.323 82.223-30.323 155.699c0 66.478 10.108 113.713 30.323 141.704s46.846 41.986 79.891 41.986c51.317 0 81.834-32.462 91.554-97.385v0l132.374 29.157c-16.328 68.422-43.25 118.378-80.765 149.868s-86.014 47.235-145.494 47.235c-73.476 0-132.859-27.699-178.15-83.098s-67.936-136.164-67.936-242.296c0-88.638 20.021-164.447 60.064-227.426s101.467-94.469 184.273-94.469z" />
<glyph unicode="&#xe92e;" glyph-name="less" data-tags="less" d="M995.555 419.556c17.067 0 28.444 11.378 28.444 28.444s-11.378 28.444-28.444 28.444h-967.111c-17.067 0-28.444-11.378-28.444-28.444 0-5.689 5.689-17.067 5.689-22.756 5.689-5.689 11.378-5.689 22.756-5.689h967.111z" />
<glyph unicode="&#xe92f;" glyph-name="plans" data-tags="plans" d="M512 960c222.596 0 403.692-181.094 403.692-403.694 0-138.726-70.344-261.324-177.23-334.022v0-256.746c0-10.022-5.084-19.362-13.5-24.804-4.854-3.138-10.434-4.734-16.042-4.734-4.118 0-8.248 0.862-12.118 2.602v0l-184.802 83.16-184.802-83.158c-9.142-4.11-19.746-3.31-28.16 2.132-8.418 5.44-13.5 14.78-13.5 24.804v0 256.746c-106.886 72.698-177.23 195.296-177.23 334.022 0 222.598 181.096 403.692 403.692 403.692zM691.988 191.998c-15.894-7.411-32.207-13.778-48.829-19.15-0.942-0.304-1.882-0.618-2.828-0.918-2.12-0.668-4.25-1.31-6.381-1.945-1.576-0.473-3.156-0.942-4.738-1.397-1.719-0.493-3.445-0.964-5.171-1.435-2.015-0.552-4.030-1.088-6.053-1.608-1.432-0.364-2.865-0.723-4.297-1.073-2.327-0.572-4.661-1.124-7.004-1.656-1.214-0.276-2.428-0.55-3.646-0.815-2.567-0.558-5.141-1.093-7.723-1.605v0l-3.156-0.622c-2.736-0.521-5.483-1.010-8.237-1.478-0.946-0.16-1.888-0.326-2.835-0.482-2.843-0.464-5.698-0.891-8.558-1.297-0.886-0.127-1.769-0.261-2.657-0.381-2.897-0.392-5.805-0.742-8.719-1.078v0l-2.604-0.307c-2.906-0.313-5.822-0.585-8.744-0.839-0.886-0.077-1.769-0.171-2.657-0.241-2.88-0.234-5.773-0.418-8.67-0.594-0.931-0.057-1.859-0.131-2.788-0.182-2.927-0.155-5.865-0.265-8.807-0.361-0.886-0.031-1.766-0.079-2.653-0.103-3.803-0.101-7.618-0.158-11.444-0.158-3.828 0-7.644 0.057-11.447 0.158-0.886 0.024-1.766 0.072-2.653 0.103-2.942 0.096-5.88 0.204-8.807 0.361-0.934 0.050-1.859 0.125-2.788 0.182-2.897 0.175-5.79 0.361-8.669 0.594-0.889 0.070-1.771 0.164-2.657 0.241-2.923 0.254-5.839 0.523-8.744 0.839v0l-2.604 0.307c-2.912 0.333-5.822 0.686-8.719 1.078-0.886 0.12-1.771 0.256-2.657 0.381-2.863 0.405-5.717 0.832-8.558 1.297-0.946 0.153-1.891 0.32-2.835 0.482-2.754 0.469-5.501 0.957-8.237 1.478v0l-3.156 0.622c-2.584 0.515-5.158 1.045-7.723 1.605-1.216 0.265-2.432 0.539-3.646 0.815-2.342 0.532-4.676 1.084-7.004 1.656-1.435 0.348-2.867 0.707-4.297 1.073-2.023 0.521-4.040 1.058-6.053 1.608-1.726 0.469-3.452 0.944-5.171 1.435-1.582 0.456-3.16 0.924-4.738 1.397-2.13 0.633-4.259 1.277-6.381 1.945-0.946 0.298-1.886 0.611-2.828 0.918-16.622 5.372-32.935 11.741-48.829 19.152v0-194.558l166.221 76.509c4.126 1.901 8.552 2.849 12.975 2.849s8.849-0.951 12.975-2.852v0l166.228-76.509zM512.788 908.8c-194.799 0-353.28-158.483-353.28-353.28 0-154.446 99.631-286.045 237.993-333.942 1.206-0.416 2.413-0.834 3.627-1.238 1.843-0.615 3.691-1.218 5.546-1.804 2.161-0.679 4.328-1.331 6.497-1.968 1.532-0.451 3.065-0.9 4.605-1.331 2.872-0.8 5.755-1.571 8.648-2.296 1.076-0.273 2.159-0.531 3.241-0.793 2.831-0.685 5.675-1.339 8.525-1.952 0.718-0.152 1.431-0.318 2.147-0.467 3.676-0.767 7.369-1.484 11.074-2.134 0.379-0.068 0.759-0.127 1.136-0.191 3.338-0.576 6.686-1.097 10.042-1.577v0l2.272-0.32c3.578-0.486 7.162-0.933 10.758-1.31 0.135-0.014 0.271-0.033 0.406-0.047 3.766-0.39 7.543-0.711 11.326-0.982 0.822-0.059 1.644-0.105 2.466-0.158 2.942-0.191 5.884-0.342 8.835-0.459 1.001-0.041 2.003-0.084 3.008-0.115 3.705-0.119 7.414-0.195 11.129-0.195s7.424 0.078 11.129 0.191c1.003 0.033 2.005 0.074 3.008 0.115 2.95 0.119 5.893 0.269 8.835 0.459 0.822 0.055 1.646 0.098 2.466 0.158 3.783 0.269 7.561 0.59 11.326 0.982 0.135 0.014 0.271 0.033 0.406 0.047 3.596 0.377 7.18 0.824 10.758 1.31 0.761 0.105 1.517 0.211 2.274 0.32 3.354 0.478 6.702 1.001 10.040 1.577 0.379 0.068 0.759 0.125 1.136 0.191 3.705 0.65 7.395 1.365 11.074 2.134 0.718 0.148 1.429 0.312 2.147 0.467 2.85 0.615 5.694 1.267 8.525 1.952 1.080 0.262 2.163 0.521 3.241 0.793 2.893 0.728 5.776 1.495 8.648 2.296v0l4.605 1.331c2.171 0.636 4.336 1.29 6.495 1.968 1.856 0.584 3.705 1.189 5.546 1.804 1.212 0.404 2.419 0.822 3.627 1.238 138.361 47.901 237.995 179.5 237.995 333.946 0 194.799-158.481 353.28-353.28 353.28zM517.6 744.96c6.251 0 11.981-3.448 14.869-8.944v0l52.871-100.612 112.826-18.777c6.164-1.027 11.243-5.368 13.172-11.261 1.932-5.895 0.398-12.365-3.979-16.788v0l-80.148-80.961 16.855-112.218c0.921-6.13-1.672-12.259-6.729-15.904-2.918-2.102-6.376-3.175-9.857-3.175-2.549 0-5.106 0.576-7.474 1.745v0l-102.406 50.577-102.408-50.577c-5.594-2.76-12.276-2.208-17.328 1.432-5.057 3.645-7.65 9.773-6.729 15.904v0l16.857 112.218-80.148 80.959c-4.38 4.423-5.913 10.893-3.982 16.788s7.009 10.237 13.172 11.261v0l112.824 18.777 52.873 100.612c2.888 5.496 8.621 8.944 14.869 8.944zM517.599 683.52l-38.892-75.448c-2.258-4.38-6.418-7.436-11.237-8.253v0l-82.991-14.082 58.956-60.713c3.423-3.524 5.012-8.469 4.291-13.353v0l-12.4-84.152 75.329 37.926c2.185 1.102 4.565 1.653 6.943 1.653 2.38 0 4.756-0.552 6.945-1.653v0l75.329-37.926-12.4 84.152c-0.721 4.884 0.868 9.828 4.291 13.353v0l58.956 60.71-82.993 14.082c-4.819 0.817-8.977 3.872-11.237 8.253v0l-38.892 75.45z" />
<glyph unicode="&#xe930;" glyph-name="circle" data-tags="circle" d="M879.523 91.631c93.174 96.030 144.423 222.238 144.423 356.368 0 127.717-46.452 248.321-131.382 342.465l-38.099 38.154c-94.144 84.929-214.748 131.382-342.465 131.382s-248.321-46.452-342.465-131.382l-38.099-38.154c-84.929-94.144-131.382-214.748-131.382-342.465 0-134.13 51.249-260.337 144.423-356.368l39.555-36.752c91.88-76.954 206.718-118.879 328.022-118.879s236.141 41.926 328.022 118.879l39.447 36.752zM53.944 448c0 252.577 205.479 458.057 458.057 458.057s458.057-205.479 458.057-458.057c0-252.577-205.479-458.057-458.057-458.057s-458.057 205.479-458.057 458.057z" />
<glyph unicode="&#xe931;" glyph-name="plus" data-tags="plus" d="M540.444 419.557h455.111c17.067 0 28.444 11.378 28.444 28.444s-11.378 28.444-28.444 28.444h-455.111v455.111c0 17.067-11.378 28.444-28.444 28.444s-28.444-11.378-28.444-28.444v-455.111h-455.111c-17.067 0-28.444-11.378-28.444-28.444 0-5.689 5.689-17.067 5.689-22.756 5.689-5.689 11.378-5.689 22.756-5.689h455.111v-455.111c0-5.689 5.689-17.067 5.689-22.756 5.689 0 17.067-5.689 22.756-5.689 17.067 0 28.444 11.378 28.444 28.444v455.111z" />
<glyph unicode="&#xe932;" glyph-name="lock-solid" data-tags="lock-solid" d="M800 576h-32v128c0 141.184-114.816 256-256 256s-256-114.816-256-256v-128h-32c-52.908 0-96-43.052-96-96v-448c0-52.948 43.092-96 96-96h576c52.908 0 96 43.052 96 96v448c0 52.948-43.092 96-96 96zM341.332 704c0 94.124 76.544 170.668 170.668 170.668s170.668-76.544 170.668-170.668v-128h-341.332zM554.668 246.528v-97.196c0-23.552-19.072-42.668-42.668-42.668s-42.668 19.116-42.668 42.668v97.196c-25.388 14.804-42.668 42.028-42.668 73.472 0 47.060 38.272 85.332 85.332 85.332s85.332-38.272 85.332-85.332c0-31.444-17.28-58.668-42.668-73.472z" />
<glyph unicode="&#xe933;" glyph-name="search" data-tags="search" d="M991.636-21.095l-304.282 331.981c68.557 71.731 106.24 165.53 106.24 265.114 0 102.554-39.936 199.014-112.486 271.514s-168.96 112.486-271.514 112.486-199.014-39.936-271.514-112.486-112.486-168.96-112.486-271.514 39.936-199.014 112.486-271.514 168.96-112.486 271.514-112.486c88.371 0 172.134 29.645 240.026 84.224l304.282-331.93c5.069-5.53 11.93-8.294 18.893-8.294 6.195 0 12.39 2.202 17.306 6.707 10.445 9.574 11.11 25.754 1.587 36.147zM76.743 575.999c0 183.501 149.299 332.8 332.8 332.8s332.8-149.299 332.8-332.8-149.299-332.8-332.8-332.8-332.8 149.299-332.8 332.8z" />
<glyph unicode="&#xe934;" glyph-name="first-solid" data-tags="first-solid" d="M521.444 406.211l342.508-334.302c23.674-23.107 61.954-23.107 85.375 0l56.917 55.553c23.674 23.107 23.674 60.469 0 83.33l-242.778 236.962 242.778 236.962c23.674 23.107 23.674 60.469 0 83.33l-56.665 56.045c-23.674 23.107-61.954 23.107-85.375 0l-342.508-334.302c-23.926-23.107-23.926-60.469-0.252-83.576v0zM17.755 489.786l342.508 334.302c23.674 23.107 61.954 23.107 85.375 0l56.917-55.553c23.674-23.107 23.674-60.469 0-83.33l-242.778-236.962 242.778-236.962c23.674-23.107 23.674-60.469 0-83.33l-56.917-55.553c-23.674-23.107-61.954-23.107-85.375 0l-342.508 334.302c-23.674 22.614-23.674 59.978 0 83.084z" />
<glyph unicode="&#xe935;" glyph-name="menu" data-tags="menu" d="M992 736h-960c-17.664 0-32 14.336-32 32s14.336 32 32 32h960c17.664 0 32-14.336 32-32s-14.336-32-32-32zM992 416h-960c-17.664 0-32 14.336-32 32s14.336 32 32 32h960c17.664 0 32-14.336 32-32s-14.336-32-32-32zM992 96h-960c-17.664 0-32 14.336-32 32s14.336 32 32 32h960c17.664 0 32-14.336 32-32s-14.336-32-32-32z" />
<glyph unicode="&#xe936;" glyph-name="last-solid" data-tags="last-solid" d="M502.555 406.212l-342.508-334.303c-23.674-23.107-61.954-23.107-85.375 0l-56.917 55.553c-23.674 23.107-23.674 60.469 0 83.33l242.778 236.962-242.778 236.962c-23.674 23.107-23.674 60.469 0 83.33l56.665 56.045c23.674 23.107 61.954 23.107 85.375 0l342.508-334.303c23.926-23.107 23.926-60.469 0.252-83.576v0zM1006.245 489.788l-342.508 334.303c-23.674 23.107-61.954 23.107-85.375 0l-56.917-55.553c-23.674-23.107-23.674-60.469 0-83.33l242.778-236.962-242.778-236.962c-23.674-23.107-23.674-60.469 0-83.33l56.917-55.553c23.674-23.107 61.954-23.107 85.375 0l342.508 334.303c23.674 22.614 23.674 59.978 0 83.084z" />
<glyph unicode="&#xe937;" glyph-name="music" data-tags="music" d="M1014.835 902.854c-5.837 4.864-13.517 6.912-20.992 5.53l-563.2-102.4c-12.186-2.202-21.043-12.8-21.043-25.19v-583.629c-6.963 4.71-14.643 9.165-22.938 13.312-42.189 21.094-97.638 32.717-156.262 32.717s-114.074-11.622-156.262-32.717c-47.821-23.91-74.138-57.754-74.138-95.283s26.317-71.424 74.138-95.283c42.189-21.094 97.638-32.717 156.262-32.717s114.074 11.622 156.262 32.717c47.821 23.91 74.138 57.754 74.138 95.283v516.301l512 94.566v-426.496c-6.963 4.71-14.643 9.165-22.938 13.312-42.189 21.094-97.638 32.717-156.262 32.717s-114.074-11.622-156.262-32.717c-47.821-23.91-74.138-57.754-74.138-95.283s26.317-71.424 74.138-95.283c42.189-21.094 97.638-32.717 156.262-32.717s114.074 11.622 156.262 32.717c47.821 23.91 74.138 57.754 74.138 95.283v665.6c0 7.578-3.379 14.797-9.216 19.661zM230.451 38.393c-102.554 0-179.2 40.55-179.2 76.8s76.646 76.8 179.2 76.8 179.2-40.55 179.2-76.8-76.646-76.8-179.2-76.8zM460.851 683.564v75.878l512 93.082v-74.394l-512-94.566zM793.651 140.793c-102.554 0-179.2 40.55-179.2 76.8s76.646 76.8 179.2 76.8c102.554 0 179.2-40.55 179.2-76.8s-76.646-76.8-179.2-76.8z" />
<glyph unicode="&#xe938;" glyph-name="map-marker" data-tags="map-marker" d="M511.949-64c-7.834 0-15.258 3.584-20.122 9.779-2.918 3.738-72.602 92.877-143.206 224.512-41.574 77.466-74.752 153.549-98.56 226.099-30.054 91.494-45.261 177.766-45.261 256.41 0 169.37 137.83 307.2 307.2 307.2s307.2-137.83 307.2-307.2c0-78.643-15.258-164.864-45.261-256.41-23.808-72.55-56.986-148.634-98.56-226.099-70.656-131.635-140.288-220.774-143.206-224.512-4.864-6.195-12.288-9.779-20.122-9.779zM511.949 908.8c-141.158 0-256-114.842-256-256 0-166.605 74.906-341.197 137.779-458.291 46.182-86.067 92.621-154.317 118.221-189.952 25.702 35.789 72.448 104.448 118.682 190.771 62.618 116.89 137.318 291.174 137.318 457.472 0 141.158-114.842 256-256 256zM511.949 499.2c-84.685 0-153.6 68.915-153.6 153.6s68.915 153.6 153.6 153.6 153.6-68.915 153.6-153.6-68.915-153.6-153.6-153.6zM511.949 755.2c-56.474 0-102.4-45.926-102.4-102.4s45.926-102.4 102.4-102.4c56.474 0 102.4 45.926 102.4 102.4s-45.926 102.4-102.4 102.4z" />
<glyph unicode="&#xe939;" glyph-name="heart" data-tags="heart" d="M512.001-10.105c-4.527 0-9 1.132-13.097 3.396-5.066 2.802-125.359 70.117-247.484 180.385-72.273 65.213-129.94 131.935-171.547 198.333-53.033 84.668-79.872 169.176-79.872 251.149 0 156.025 126.922 282.947 282.947 282.947 52.817 0 108.921-19.779 157.965-55.727 28.672-21.019 53.086-46.349 71.087-73.243 18.001 26.894 42.415 52.224 71.087 73.243 49.044 35.947 105.148 55.727 157.965 55.727 156.025 0 282.947-126.922 282.947-282.947 0-81.974-26.894-166.481-79.872-251.149-41.553-66.398-99.274-133.12-171.493-198.333-122.125-110.268-242.419-177.583-247.484-180.385-4.096-2.263-8.569-3.396-13.097-3.396zM282.948 852.211c-126.276 0-229.053-102.777-229.053-229.053 0-163.84 126.653-312.697 232.879-408.792 94.855-85.8 191.003-145.947 225.226-166.373 34.223 20.426 130.372 80.573 225.226 166.373 106.226 96.040 232.879 244.952 232.879 408.792 0 126.276-102.777 229.053-229.053 229.053-91.783 0-180.924-75.506-203.506-143.253-3.665-10.995-13.959-18.432-25.546-18.432s-21.881 7.438-25.546 18.432c-22.582 67.745-111.724 143.253-203.506 143.253z" />
<glyph unicode="&#xe93a;" glyph-name="list" data-tags="list" d="M998.4 166.4h-768c-14.131 0-25.6 11.469-25.6 25.6s11.469 25.6 25.6 25.6h768c14.131 0 25.6-11.469 25.6-25.6s-11.469-25.6-25.6-25.6zM998.4 422.4h-768c-14.131 0-25.6 11.469-25.6 25.6s11.469 25.6 25.6 25.6h768c14.131 0 25.6-11.469 25.6-25.6s-11.469-25.6-25.6-25.6zM998.4 678.4h-768c-14.131 0-25.6 11.469-25.6 25.6s11.469 25.6 25.6 25.6h768c14.131 0 25.6-11.469 25.6-25.6s-11.469-25.6-25.6-25.6zM76.8 627.2c-42.342 0-76.8 34.458-76.8 76.8s34.458 76.8 76.8 76.8 76.8-34.458 76.8-76.8-34.458-76.8-76.8-76.8zM76.8 729.6c-14.131 0-25.6-11.469-25.6-25.6s11.469-25.6 25.6-25.6 25.6 11.469 25.6 25.6-11.469 25.6-25.6 25.6zM76.8 371.2c-42.342 0-76.8 34.458-76.8 76.8s34.458 76.8 76.8 76.8 76.8-34.458 76.8-76.8c0-42.342-34.458-76.8-76.8-76.8zM76.8 473.6c-14.131 0-25.6-11.469-25.6-25.6s11.469-25.6 25.6-25.6 25.6 11.469 25.6 25.6-11.469 25.6-25.6 25.6zM76.8 115.2c-42.342 0-76.8 34.458-76.8 76.8s34.458 76.8 76.8 76.8 76.8-34.458 76.8-76.8-34.458-76.8-76.8-76.8zM76.8 217.6c-14.131 0-25.6-11.469-25.6-25.6s11.469-25.6 25.6-25.6 25.6 11.469 25.6 25.6-11.469 25.6-25.6 25.6z" />
<glyph unicode="&#xe93b;" glyph-name="phone" data-tags="phone" d="M818.878-63.949c-90.67 0-187.127 25.701-286.706 76.386-91.797 46.744-182.468 113.658-262.233 193.526s-146.579 170.642-193.27 262.489c-50.583 99.63-76.284 196.086-76.284 286.757 0 58.775 54.781 115.552 78.281 137.209 33.841 31.179 87.087 67.581 125.792 67.581 19.25 0 41.777-12.594 71.010-39.627 21.759-20.172 46.283-47.512 70.806-79.049 14.796-19.045 88.572-116.269 88.572-162.91 0-38.244-43.262-64.867-89.033-92.974-17.714-10.853-35.992-22.117-49.201-32.715-14.13-11.314-16.639-17.305-17.049-18.636 48.587-121.133 197.11-269.657 318.192-318.192 1.075 0.358 7.066 2.714 18.585 17.049 10.597 13.209 21.861 31.537 32.715 49.201 28.159 45.771 54.73 89.033 92.974 89.033 46.641 0 143.865-73.775 162.91-88.572 31.537-24.524 58.877-49.048 79.049-70.806 27.033-29.183 39.627-51.76 39.627-71.010 0-38.705-36.401-92.104-67.53-126.1-21.708-23.653-78.486-78.69-137.26-78.69zM204.201 908.803c-13.721-0.256-50.634-17.049-90.773-54.013-38.091-35.121-61.795-73.263-61.795-99.579 0-344.508 423.096-767.962 767.245-767.962 26.265 0 64.407 23.807 99.528 62.103 37.016 40.344 53.808 77.41 54.064 91.182-1.638 9.728-28.569 47.563-102.241 104.289-63.331 48.74-114.682 74.902-127.892 75.209-0.922-0.256-6.656-2.458-18.277-17.202-10.085-12.85-20.889-30.411-31.384-47.409-28.671-46.641-55.754-90.721-95.125-90.721-6.349 0-12.594 1.229-18.585 3.635-134.393 53.757-293.31 212.674-347.068 347.068-6.451 16.127-7.475 41.419 24.268 70.192 16.895 15.308 40.241 29.644 62.871 43.569 16.997 10.444 34.609 21.247 47.409 31.384 14.745 11.621 16.946 17.356 17.202 18.277-0.358 13.209-26.469 64.56-75.209 127.892-56.727 73.673-94.561 100.552-104.289 102.241z" />
<glyph unicode="&#xe93c;" glyph-name="tag" data-tags="tag" d="M394.684-64c-24.033 0-46.628 9.349-63.588 26.251l-304.815 304.815c-16.961 16.961-26.251 39.495-26.251 63.588s9.349 46.628 26.251 63.588l514.577 514.577c29.186 29.186 82.226 51.182 123.52 51.182h269.695c49.563 0 89.898-40.335 89.898-89.898v-269.695c0-41.234-21.995-94.333-51.123-123.52l-514.577-514.577c-16.961-16.961-39.495-26.251-63.588-26.251zM664.378 900.008c-24.872 0-63.528-16.001-81.089-33.622l-514.577-514.577c-5.634-5.634-8.69-13.125-8.69-21.216s3.116-15.582 8.69-21.157l304.815-304.815c5.634-5.634 13.125-8.69 21.216-8.69s15.582 3.116 21.216 8.69l514.577 514.577c17.561 17.561 33.622 56.276 33.622 81.148v269.695c0 16.541-13.425 29.966-29.966 29.966h-269.695zM814.209 660.279c-49.563 0-89.898 40.335-89.898 89.898s40.335 89.898 89.898 89.898 89.898-40.335 89.898-89.898-40.335-89.898-89.898-89.898zM814.209 780.144c-16.541 0-29.966-13.425-29.966-29.966s13.425-29.966 29.966-29.966 29.966 13.425 29.966 29.966-13.425 29.966-29.966 29.966z" />
<glyph unicode="&#xe93d;" glyph-name="user" data-tags="user" d="M689.99 356.001l-2.588 1.293c-6.143 2.911-12.61 5.497-19.077 8.085-7.113 2.911-14.228 5.497-21.341 7.761-5.82 1.941-11.317 3.556-17.136 5.174-0.646 0.323-1.618 0.323-2.265 0.646 0.646 0.323 1.618 0.646 2.265 0.97 1.941 0.646 3.556 1.618 5.497 2.588l2.265 0.97c6.467 2.911 12.933 5.82 19.077 9.055l4.202 2.588c7.113 3.879 14.228 8.085 21.341 12.933 3.556 2.588 7.113 5.174 10.669 8.085l11.964 9.376c69.518 57.554 109.611 142.267 109.611 229.892v2.588c0 166.518-135.477 301.995-301.995 301.995-159.080 0-291.324-124.16-301.025-282.918l-0.323-3.879c-0.323-4.85-0.646-10.022-0.646-15.198 0-121.573 72.426-230.862 184.3-278.391 0.97-0.323 1.618-0.646 2.588-0.97-0.646-0.323-1.618-0.323-2.265-0.646-6.79-1.941-13.257-3.879-19.4-6.143l-4.202-1.618c-12.933-4.525-26.191-10.022-38.801-15.842l-3.232-1.618c-147.441-69.841-242.502-220.192-242.502-383.152 0-3.879 0.323-7.436 0.323-10.993l0.97-22.632h40.739v38.153h-0.646c1.941 146.146 88.271 280.656 220.192 342.413l4.202 1.618 0.646 0.323c10.345 4.85 21.018 9.055 31.687 12.933l3.556 1.293c5.82 1.941 11.64 3.879 17.784 5.497 7.436 2.265 15.198 4.202 22.955 5.82 3.879 0.97 8.085 1.618 12.287 2.588 3.232 0.646 6.467 1.293 9.699 1.618l1.618 0.323c5.82 0.97 11.964 1.941 17.784 2.588l13.58 1.293c17.784 1.293 34.919 1.618 55.291 0l13.257-0.97c3.232-0.323 6.467-0.97 10.345-1.293l4.85-0.646c4.85-0.646 10.022-1.618 14.875-2.588l2.265-0.323c2.911-0.646 5.497-0.97 8.085-1.618 8.085-1.941 16.166-3.879 24.25-6.143 5.174-1.618 10.669-3.232 15.52-4.85 6.467-2.265 12.933-4.525 19.077-7.113 6.143-2.265 11.964-4.85 18.107-7.761l0.97-0.323c132.891-61.11 219.869-192.707 224.072-337.887h0.323v-44.62h39.772l1.293 22.309c0.323 3.879 0.323 7.436 0.323 11.317 0.97 165.224-96.353 316.87-247.027 386.063zM257.69 655.41c0 4.202 0.323 8.085 0.646 11.964l0.323 4.202c8.408 135.477 121.249 241.532 257.053 241.532 142.267 0 258.021-115.754 258.021-255.759v-2.588c0-76.631-34.273-149.057-94.092-198.528l-11.317-8.731c-2.588-1.941-5.174-4.202-8.408-6.467-5.82-3.879-11.964-7.436-18.107-10.993l-3.556-1.941c-5.174-2.911-10.669-5.174-16.166-7.761l-6.467-2.911c-3.556-1.618-7.436-2.911-11.317-4.202l-7.761-2.911c-1.618-0.646-3.232-1.293-4.525-1.618-2.911-0.97-5.82-1.618-9.055-2.265l-9.699-2.588c-1.941-0.646-4.202-0.97-5.82-1.618-3.232-0.646-6.467-0.97-9.699-1.618l-9.055-1.293c-2.265-0.323-4.525-0.646-6.79-0.97-8.085-0.97-16.166-1.293-24.25-1.293h-2.265c-26.191 0-52.058 3.879-76.631 11.64-2.265 0.646-4.202 1.618-6.143 2.265l-9.055 3.232c-2.911 0.97-5.497 1.941-8.408 2.911-95.708 41.063-157.465 134.183-157.465 238.299z" />
<glyph unicode="&#xe93e;" glyph-name="next-solid" data-tags="next-solid" d="M802.696 408.207l-450.242-455.721c-21.715-21.979-56.92-21.979-78.632 0l-52.514 53.152c-21.678 21.942-21.719 57.502-0.092 79.495l356.824 362.869-356.824 362.866c-21.627 21.993-21.585 57.554 0.092 79.495l52.514 53.152c21.715 21.979 56.92 21.979 78.632 0l450.238-455.721c21.715-21.977 21.715-57.611 0.002-79.59z" />
<glyph unicode="&#xe93f;" glyph-name="undo" data-tags="undo" d="M896.416 755.692c-82.171 82.171-191.476 127.48-307.692 127.48s-225.522-45.258-307.692-127.48-127.48-191.476-127.48-307.692v-66.198l-109.868 109.868c-9.983 9.983-26.212 9.983-36.196 0s-9.983-26.212 0-36.196l153.59-153.59c5.018-5.018 11.57-7.475 18.124-7.475s13.106 2.509 18.124 7.475l153.59 153.59c9.983 9.983 9.983 26.212 0 36.196s-26.212 9.983-36.196 0l-109.868-109.868v66.198c0 211.75 172.226 383.976 383.976 383.976s383.976-172.226 383.976-383.976-172.226-383.976-383.976-383.976c-14.13 0-25.598-11.468-25.598-25.598s11.468-25.598 25.598-25.598c116.217 0 225.522 45.258 307.692 127.48s127.48 191.476 127.48 307.692c0 116.217-45.258 225.522-127.48 307.692z" />
<glyph unicode="&#xe940;" glyph-name="warning2" data-tags="warning2" d="M997.053-10.123h-970.085c-9.593 0-18.431 5.066-23.282 13.366s-4.904 18.486-0.216 26.839l485.043 862.298c4.797 8.461 13.743 13.743 23.497 13.743s18.701-5.227 23.497-13.743l485.043-862.298c4.688-8.354 4.581-18.54-0.216-26.839s-13.689-13.366-23.282-13.366zM73.047 43.771h877.927l-438.964 780.38-438.964-780.38zM512.010 259.345c-14.874 0-26.947 12.072-26.947 26.947v269.468c0 14.874 12.072 26.947 26.947 26.947s26.947-12.072 26.947-26.947v-269.468c0-14.874-12.072-26.947-26.947-26.947zM512.010 97.665c-14.874 0-26.947 12.072-26.947 26.947v53.894c0 14.874 12.072 26.947 26.947 26.947s26.947-12.072 26.947-26.947v-53.894c0-14.874-12.072-26.947-26.947-26.947z" />
<glyph unicode="&#xe941;" glyph-name="prev-solid" data-tags="prev-solid" d="M221.304 408.206l450.243-455.722c21.715-21.979 56.92-21.979 78.632 0l52.514 53.152c21.678 21.942 21.719 57.502 0.092 79.495l-356.825 362.87 356.825 362.867c21.627 21.993 21.585 57.554-0.092 79.495l-52.514 53.152c-21.715 21.979-56.92 21.979-78.632 0l-450.239-455.722c-21.715-21.977-21.715-57.611-0.002-79.59z" />
<glyph unicode="&#xe942;" glyph-name="arrow-down-circle" data-tags="arrow-down-circle" d="M874.065 85.962c96.687 96.687 149.935 225.28 149.935 362.065s-53.248 265.324-149.935 362.011-225.28 149.935-362.065 149.935-265.324-53.248-362.065-149.935-149.935-225.28-149.935-362.011 53.248-265.324 149.935-362.065 225.28-149.935 362.065-149.935 265.324 53.248 362.065 149.935zM53.894 448.028c0 252.604 205.501 458.105 458.105 458.105s458.105-205.501 458.105-458.105c0-252.604-205.501-458.105-458.105-458.105s-458.105 205.501-458.105 458.105zM531.025 132.581l215.579 215.579c10.509 10.509 10.509 27.594 0 38.103s-27.594 10.509-38.103 0l-169.553-169.606v554.739c0 14.875-12.073 26.947-26.947 26.947s-26.947-12.073-26.947-26.947v-554.739l-169.606 169.553c-10.509 10.509-27.594 10.509-38.103 0-5.282-5.282-7.868-12.18-7.868-19.025s2.641-13.797 7.922-19.025l215.579-215.579c10.509-10.509 27.594-10.509 38.103 0z" />
<glyph unicode="&#xe943;" glyph-name="arrow-down" data-tags="arrow-down" d="M531.53-55.849l332.085 332.085c10.793 10.793 10.793 28.338 0 39.13s-28.338 10.793-39.13 0l-284.818-284.818v901.778c0 15.276-12.398 27.674-27.674 27.674s-27.674-12.398-27.674-27.674v-901.778l-284.818 284.818c-10.793 10.793-28.338 10.793-39.13 0-5.424-5.424-8.081-12.508-8.081-19.593s2.712-14.169 8.081-19.593l332.085-332.085c10.793-10.793 28.338-10.793 39.13 0z" />
<glyph unicode="&#xe944;" glyph-name="arrow-left-circle" data-tags="arrow-left-circle" d="M149.935 810.038c96.687 96.687 225.28 149.935 362.065 149.935s265.324-53.248 362.065-149.935 149.935-225.28 149.935-362.011-53.248-265.324-149.935-362.065-225.28-149.935-362.065-149.935-265.324 53.248-362.065 149.935-149.935 225.28-149.935 362.065 53.248 265.324 149.935 362.011zM512.001-10.133c252.604 0 458.105 205.501 458.105 458.105s-205.501 458.105-458.105 458.105c-252.604 0-458.105-205.501-458.105-458.105s205.501-458.105 458.105-458.105zM196.554 466.998l215.579 215.579c10.509 10.509 27.594 10.509 38.103 0s10.509-27.594 0-38.103l-169.606-169.553h554.739c14.875 0 26.947-12.073 26.947-26.947s-12.073-26.947-26.947-26.947h-554.739l169.553-169.606c10.509-10.509 10.509-27.594 0-38.103-5.282-5.282-12.18-7.868-19.025-7.868s-13.797 2.641-19.025 7.922l-215.579 215.579c-10.509 10.509-10.509 27.594 0 38.103z" />
<glyph unicode="&#xe945;" glyph-name="camera" data-tags="camera" d="M511.945 205.473c-133.699 0-242.501 108.802-242.501 242.501s108.802 242.501 242.501 242.501c133.699 0 242.501-108.802 242.501-242.501s-108.802-242.501-242.501-242.501zM511.945 636.585c-104.006 0-188.612-84.606-188.612-188.612s84.606-188.612 188.612-188.612 188.612 84.606 188.612 188.612-84.606 188.612-188.612 188.612zM943.058 43.805h-862.225c-44.566 0-80.834 36.268-80.834 80.834v538.891c0 44.566 36.268 80.834 80.834 80.834h80.834c22.364 0 57.122 14.388 72.966 30.232l31.579 31.579c26.244 26.244 73.99 46.021 111.065 46.021h269.445c37.076 0 84.822-19.777 111.065-46.021l31.579-31.579c15.79-15.79 50.602-30.232 72.966-30.232h80.834c44.566 0 80.834-36.268 80.834-80.834v-538.891c0-44.566-36.268-80.834-80.834-80.834zM80.833 690.475c-14.873 0-26.945-12.071-26.945-26.945v-538.891c0-14.873 12.071-26.945 26.945-26.945h862.225c14.873 0 26.945 12.071 26.945 26.945v538.891c0 14.873-12.071 26.945-26.945 26.945h-80.834c-37.076 0-84.822 19.777-111.065 46.021l-31.579 31.579c-15.79 15.79-50.602 30.232-72.966 30.232h-269.445c-22.364 0-57.122-14.388-72.966-30.232l-31.579-31.579c-26.244-26.244-73.935-46.021-111.065-46.021h-80.834z" />
<glyph unicode="&#xe946;" glyph-name="arrow-left" data-tags="arrow-left" d="M8.151 467.53l332.085 332.085c10.793 10.793 28.338 10.793 39.13 0s10.793-28.338 0-39.13l-284.818-284.818h901.778c15.276 0 27.674-12.398 27.674-27.674s-12.398-27.674-27.674-27.674h-901.778l284.818-284.818c10.793-10.793 10.793-28.338 0-39.13-5.424-5.424-12.508-8.081-19.593-8.081s-14.169 2.712-19.593 8.081l-332.085 332.085c-10.793 10.793-10.793 28.338 0 39.13z" />
<glyph unicode="&#xe947;" glyph-name="arrow-right-circle" data-tags="arrow-right-circle" d="M874.065 810.038c-96.687 96.687-225.28 149.935-362.065 149.935s-265.324-53.248-362.065-149.935-149.935-225.28-149.935-362.011 53.248-265.324 149.935-362.065 225.28-149.935 362.065-149.935 265.324 53.248 362.065 149.935 149.935 225.28 149.935 362.065-53.248 265.324-149.935 362.011zM512-10.133c-252.604 0-458.105 205.501-458.105 458.105s205.501 458.105 458.105 458.105c252.604 0 458.105-205.501 458.105-458.105s-205.501-458.105-458.105-458.105zM827.446 466.998l-215.579 215.579c-10.509 10.509-27.594 10.509-38.103 0s-10.509-27.594 0-38.103l169.606-169.553h-554.739c-14.875 0-26.947-12.073-26.947-26.947s12.073-26.947 26.947-26.947h554.739l-169.553-169.606c-10.509-10.509-10.509-27.594 0-38.103 5.282-5.282 12.18-7.868 19.025-7.868s13.797 2.641 19.025 7.922l215.579 215.579c10.509 10.509 10.509 27.594 0 38.103z" />
<glyph unicode="&#xe948;" glyph-name="arrow-right" data-tags="arrow-right" d="M1015.849 467.53l-332.085 332.085c-10.793 10.793-28.338 10.793-39.13 0s-10.793-28.338 0-39.13l284.818-284.818h-901.778c-15.276 0-27.674-12.398-27.674-27.674s12.398-27.674 27.674-27.674h901.778l-284.818-284.818c-10.793-10.793-10.793-28.338 0-39.13 5.424-5.424 12.508-8.081 19.593-8.081s14.169 2.712 19.593 8.081l332.085 332.085c10.793 10.793 10.793 28.338 0 39.13z" />
<glyph unicode="&#xe949;" glyph-name="arrow-up-circle" data-tags="arrow-up-circle" d="M149.935 810.092c-96.687-96.687-149.935-225.28-149.935-362.065s53.248-265.324 149.935-362.065 225.28-149.935 362.065-149.935 265.324 53.248 362.065 149.935 149.935 225.28 149.935 362.011-53.248 265.324-149.935 362.065-225.28 149.935-362.065 149.935-265.324-53.248-362.065-149.935zM970.106 448.027c0-252.604-205.501-458.105-458.105-458.105s-458.105 205.501-458.105 458.105c0 252.604 205.501 458.105 458.105 458.105s458.105-205.501 458.105-458.105zM492.975 763.473l-215.579-215.579c-10.509-10.509-10.509-27.594 0-38.103s27.594-10.509 38.103 0l169.553 169.606v-554.739c0-14.875 12.073-26.947 26.947-26.947s26.947 12.073 26.947 26.947v554.739l169.606-169.553c10.509-10.509 27.594-10.509 38.103 0 5.282 5.282 7.868 12.18 7.868 19.025s-2.641 13.797-7.922 19.025l-215.579 215.579c-10.509 10.509-27.594 10.509-38.103 0z" />
<glyph unicode="&#xe94a;" glyph-name="arrow-up" data-tags="arrow-up" d="M492.47 951.849l-332.085-332.085c-10.793-10.793-10.793-28.338 0-39.13s28.338-10.793 39.13 0l284.818 284.818v-901.778c0-15.276 12.398-27.674 27.674-27.674s27.674 12.398 27.674 27.674v901.778l284.818-284.818c10.793-10.793 28.338-10.793 39.13 0 5.424 5.424 8.081 12.508 8.081 19.593s-2.712 14.169-8.081 19.593l-332.085 332.085c-10.793 10.793-28.338 10.793-39.13 0z" />
<glyph unicode="&#xe94b;" glyph-name="book" data-tags="book" d="M781.472 43.789h-538.947c-14.875 0-26.947 12.073-26.947 26.947s12.073 26.947 26.947 26.947h538.947c14.875 0 26.947-12.073 26.947-26.947s-12.073-26.947-26.947-26.947zM889.262 852.21c-14.875 0-26.947-12.073-26.947-26.947v-808.421c0-14.875-12.073-26.947-26.947-26.947h-592.842c-44.571 0-80.842 36.272-80.842 80.842s36.272 80.842 80.842 80.842h485.053c44.571 0 80.842 36.272 80.842 80.842v646.737c0 44.571-36.272 80.842-80.842 80.842h-538.947c-44.571 0-80.842-36.272-80.842-80.842v-808.421c0-74.267 60.469-134.737 134.737-134.737h592.842c44.571 0 80.842 36.272 80.842 80.842v808.421c0 14.875-12.073 26.947-26.947 26.947zM188.63 906.105h538.947c14.875 0 26.947-12.073 26.947-26.947v-646.737c0-14.875-12.073-26.947-26.947-26.947h-485.053c-30.288 0-58.314-10.078-80.842-27.001v700.685c0 14.875 12.073 26.947 26.947 26.947z" />
<glyph unicode="&#xe94c;" glyph-name="bookmark" data-tags="bookmark" d="M835.367-64c-7.707 0-15.253 3.341-20.48 9.432l-302.888 353.387-302.888-353.387c-7.329-8.569-19.24-11.641-29.804-7.761s-17.623 14.013-17.623 25.277v970.105c0 14.875 12.073 26.947 26.947 26.947h646.737c14.875 0 26.947-12.073 26.947-26.947v-970.105c0-11.264-7.006-21.342-17.623-25.277-3.072-1.132-6.198-1.671-9.324-1.671zM511.999 367.158c7.868 0 15.36-3.449 20.48-9.432l275.941-321.967v870.293h-592.842v-870.293l275.941 321.967c5.12 5.982 12.612 9.432 20.48 9.432z" />
<glyph unicode="&#xe94d;" glyph-name="bubble" data-tags="bubble" d="M26.957-10.1c-12.126 0-22.743 8.084-25.977 19.779s1.724 24.090 12.126 30.288c91.135 54.649 128.915 134.143 142.335 171.33-99.058 75.829-155.431 180.762-155.431 290.597 0 55.457 13.905 109.19 41.391 159.743 26.192 48.182 63.595 91.351 111.076 128.322 96.309 74.913 223.984 116.196 359.528 116.196s263.22-41.283 359.528-116.196c47.481-36.918 84.883-80.087 111.076-128.322 27.486-50.498 41.391-104.232 41.391-159.743s-13.905-109.19-41.391-159.743c-26.192-48.182-63.595-91.351-111.076-128.322-96.309-74.913-223.984-116.196-359.528-116.196-55.673 0-110.321 6.953-162.545 20.749-23.121-15.414-66.344-42.739-117.975-68.446-80.195-39.882-148.964-60.092-204.475-60.092zM512.005 852.208c-252.602 0-458.101-157.155-458.101-350.313 0-97.818 54.164-191.971 148.532-258.261 9.269-6.521 13.474-18.108 10.563-29.049-6.305-23.498-27.756-88.010-85.153-150.258 70.17 24.576 145.73 67.206 201.511 105.579 6.629 4.581 14.928 5.928 22.689 3.719 51.092-14.605 104.932-22.043 159.959-22.043 252.602 0 458.101 157.155 458.101 350.313s-205.499 350.313-458.101 350.313z" />
<glyph unicode="&#xe94e;" glyph-name="bullhorn" data-tags="bullhorn" d="M992.718 801.339c-29.592 88.827-68.911 107.463-96.712 107.463-0.563 0-1.178 0-1.792-0.051-28.313-0.614-78.639-15.308-154.002-37.425-157.893-46.232-396.472-116.167-637.817-116.167-58.365 0-102.395-77.052-102.395-179.191s44.030-179.191 102.395-179.191c18.892 0 37.784-0.41 56.573-1.229l85.295-339.336c9.727-38.705 48.586-69.014 88.52-69.014h67.223c22.169 0 41.009 9.216 51.607 25.343s11.724 37.016 3.072 57.392l-131.935 309.642c160.555-23.653 308.31-66.967 417.463-98.913 75.362-22.066 125.69-36.811 154.002-37.425 0.614 0 1.178-0.051 1.792-0.051 27.749 0 67.069 18.636 96.712 107.463 20.172 60.567 31.281 140.588 31.281 225.319s-11.109 164.753-31.281 225.319zM819.21 576.019c0 26.265 1.126 51.965 3.277 76.591 26.265-2.662 47.921-36.657 47.921-76.591s-21.605-73.98-47.921-76.591c-2.15 24.626-3.277 50.327-3.277 76.591zM51.25 576.019c0 78.127 30.308 127.993 51.197 127.993 58.109 0 115.911 3.891 172.433 10.444-12.133-38.808-18.841-86.882-18.841-138.438s6.656-99.63 18.841-138.438c-56.522 6.554-114.324 10.444-172.433 10.444-20.889 0-51.197 49.866-51.197 127.993zM407.634 49.916c2.099-4.915 1.946-8.192 1.331-9.114s-3.533-2.355-8.909-2.355h-67.223c-16.332 0-34.865 14.437-38.859 30.308l-81.302 323.516c17.151-1.382 34.251-3.021 51.197-4.966l143.763-337.391zM332.272 429.953c-15.564 35.172-25.036 89.493-25.036 146.066 0 57.443 9.216 110.74 24.985 146.014 163.064 24.217 312.099 67.836 422.378 100.193 21.247 6.246 41.521 12.185 59.952 17.356-5.274-11.007-10.393-23.705-15.257-38.244-20.172-60.567-31.281-140.588-31.281-225.319s11.109-164.753 31.281-225.319c4.864-14.54 9.983-27.237 15.257-38.244-18.431 5.171-38.705 11.109-59.952 17.356-110.33 32.305-259.315 75.977-422.378 100.193zM944.132 366.878c-19.097-57.341-39.832-72.444-48.126-72.444s-29.028 15.154-48.126 72.444c-8.038 24.063-14.489 51.658-19.199 81.711 24.882 2.867 48.28 16.946 65.328 39.678 17.817 23.756 27.596 54.935 27.596 87.752s-9.829 64.048-27.596 87.752c-17.049 22.732-40.446 36.811-65.328 39.678 4.762 30.001 11.212 57.648 19.199 81.711 19.097 57.341 39.832 72.495 48.126 72.495s29.028-15.154 48.126-72.444c18.482-55.498 28.671-129.734 28.671-209.141s-10.188-153.643-28.671-209.141z" />
<glyph unicode="&#xe94f;" glyph-name="prayer-group" data-tags="prayer-group" d="M800.563 865.732c85.643 0 155.684-68.095 158.823-152.985l0.109-5.949v-1.362c0-43.688-18.938-86.001-52.038-116.087l-5.647-4.899-6.296-4.935c-1.872-1.532-3.744-2.892-5.616-4.254l-5.616-3.595-5.616-3.212-2.212-1.362-4.956-2.446-5.083-2.318-1.191-0.51c-1.021-0.51-1.872-1.021-2.892-1.362-0.341-0.171-0.851-0.341-1.191-0.51 0.341-0.17 0.851-0.17 1.191-0.34 3.063-0.85 5.956-1.702 9.018-2.723 3.744-1.191 7.487-2.553 11.23-4.084l5.084-2.063 4.956-2.191 1.363-0.68c79.296-36.415 130.516-116.222 130.009-203.176l-0.022-2.977-0.152-2.977-0.68-11.741h-20.931v23.483c-2.306 73.939-45.248 141.185-111.402 174.595l-6.692 3.228-0.51 0.17c-3.233 1.532-6.296 2.892-9.529 4.084-3.233 1.362-6.636 2.552-10.040 3.744-2.552 0.85-5.445 1.702-8.168 2.552-4.254 1.191-8.508 2.212-12.762 3.233l-2.063 0.425-2.191 0.425-1.191 0.17-3.914 0.744-3.914 0.616-2.552 0.34-2.85 0.34-2.595 0.34-6.977 0.51c-8.041 0.638-15.123 0.702-22.11 0.407l-6.987-0.407-7.147-0.68-4.679-0.617-4.679-0.744-0.85-0.17c-1.702-0.17-3.404-0.51-5.105-0.85-2.212-0.51-4.424-0.85-6.466-1.362-4.084-0.85-8.168-1.872-12.082-3.063l-4.743-1.383-4.615-1.51-1.872-0.68c-3.545-1.288-7.089-2.646-10.591-4.113-0.319-60.71-28.23-119.293-76.402-159.174v0l-8.343-6.539c-2.481-2.029-4.96-3.833-7.441-5.637-4.96-3.382-9.921-6.313-14.881-9.019v0l-2.931-1.804c-4.284-2.255-8.793-4.284-13.303-6.314v0l-0.902-0.367 0.024-4.533c0.481-0.141 0.961-0.284 1.441-0.428l5.975-1.889c4.96-1.579 9.921-3.382 14.881-5.412 4.51-1.804 9.020-3.608 13.303-5.637v0l1.807-0.9c105.074-48.253 172.944-154.003 172.273-269.224 0-2.706 0-5.186-0.231-7.892v0l-0.902-15.558h-27.734v31.116c-3.157 101.242-63.811 193.012-156.483 235.628v0l-0.677 0.226c-4.283 2.030-8.343 3.833-12.627 5.412-4.284 1.804-8.793 3.382-13.303 4.96-3.382 1.127-7.215 2.255-10.823 3.382-5.637 1.578-11.273 2.931-16.911 4.283-1.804 0.45-3.608 0.677-5.637 1.127v0l-1.579 0.226c-3.382 0.677-6.991 1.353-10.372 1.804v0l-3.382 0.45c-2.705 0.226-4.96 0.677-7.215 0.902v0l-9.245 0.677c-14.205 1.127-26.156 0.902-38.557 0v0l-9.47-0.902c-4.059-0.451-8.343-1.127-12.402-1.804v0l-1.127-0.226c-2.255-0.226-4.51-0.677-6.764-1.127-2.931-0.677-5.862-1.127-8.569-1.804-5.411-1.127-10.823-2.48-16.009-4.059-4.284-1.127-8.343-2.481-12.402-3.833v0l-2.481-0.902c-7.441-2.705-14.882-5.637-22.097-9.019v0l-0.45-0.226-2.931-1.127c-91.996-43.066-152.2-136.867-153.552-238.784v0h0.45v-26.606h-28.411l-0.677 15.783c0 2.481-0.226 4.96-0.226 7.667 0 113.643 66.291 218.491 169.111 267.195v0l2.255 1.127c8.793 4.059 18.039 7.892 27.057 11.048v0l2.931 1.127c4.283 1.578 8.793 2.931 13.529 4.283l-5.024-1.465-0.029 4.715c-72.936 33.137-120.673 104.408-123.557 184.334l-0.071 4.714c-1.45 0.621-2.903 1.205-4.391 1.754-3.233 1.362-6.636 2.552-10.040 3.744-2.552 0.85-5.445 1.702-8.168 2.552-4.254 1.191-8.508 2.212-12.762 3.233l-2.063 0.425-2.191 0.425-1.191 0.17-3.914 0.744-3.914 0.616-2.552 0.34-2.85 0.34-2.595 0.34-6.977 0.51c-8.041 0.638-15.123 0.702-22.11 0.407l-6.987-0.407-7.147-0.68-4.679-0.617-4.679-0.744-0.85-0.17c-1.702-0.17-3.404-0.51-5.105-0.85-2.212-0.51-4.424-0.85-6.466-1.362-4.084-0.85-8.168-1.872-12.082-3.063l-4.743-1.383-4.615-1.51-1.872-0.68c-3.744-1.361-7.487-2.798-11.181-4.361l-5.495-2.445-0.34-0.17-2.212-0.85c-67.188-31.453-111.905-98.763-115.645-172.781l-0.237-7.423h0.34v-20.079h-21.44l-0.51 11.912c0 1.872-0.17 3.744-0.17 5.786 0 83.164 47.042 160.087 120.646 198.187l8.679 4.308c4.424 2.042 9 4.008 13.575 5.798l6.844 2.54 2.212 0.85c3.233 1.191 6.636 2.212 10.21 3.233 0.341 0.17 0.851 0.17 1.191 0.34-0.51 0.171-0.85 0.341-1.362 0.51-58.877 25.014-96.994 82.53-96.994 146.512l0.106 4.063 0.234 3.935 0.17 2.042c5.105 83.55 74.702 148.894 158.423 148.894 85.643 0 155.684-68.095 158.823-152.985l0.109-5.949v-1.362l-0.162-5.867c35.845 28.102 80.949 44.796 129.662 44.796 48.763 0 93.709-16.66 129.444-44.586l-0.179 7.018 0.106 4.063 0.234 3.935 0.17 2.042c5.105 83.55 74.702 148.894 158.423 148.894zM514.617 711.67c-94.702 0-173.395-73.959-179.257-168.434v0l-0.226-2.931c-0.042-0.502-0.083-1.004-0.124-1.506 0.014-0.022 0.023-0.027 0.032-0.032l-0.218-2.548-0.141-4.257c0-5.112 0.214-10.186 0.634-15.212 5.145-61.51 41.247-115.824 95.902-144.635 1.323-0.697 2.668-1.386 4.024-2.059l-4.024 2.059c2.027-1.069 4.078-2.101 6.155-3.099l-2.13 1.040c3.029-1.503 6.112-2.928 9.248-4.273 0.696-0.232 1.364-0.464 2.024-0.696 1.285-0.45 2.514-0.893 3.838-1.334v0l6.314-2.255c1.352-0.451 2.705-1.128 4.283-1.579 17.136-5.411 35.175-8.117 53.439-8.117v0h1.579c5.637 0 11.273 0.226 16.911 0.902 1.579 0.226 3.157 0.451 4.735 0.677v0l6.314 0.902c2.255 0.45 4.51 0.677 6.764 1.127 1.127 0.45 2.706 0.677 4.059 1.127v0l6.764 1.804c2.255 0.451 4.284 0.902 6.314 1.579 0.902 0.226 2.029 0.677 3.157 1.127v0l5.412 2.029c2.706 0.902 5.411 1.804 7.892 2.931v0l4.51 2.029c3.833 1.804 7.667 3.382 11.274 5.412v0l2.481 1.352c4.283 2.481 8.569 4.96 12.627 7.667 2.255 1.579 4.059 3.158 5.862 4.51v0l7.892 6.088c36.026 29.794 58.766 71.529 64.297 116.781l0.613 6.172 0.531 7.711 0.173 7.782v1.804l-0.015 2.3c-0.011 0.819-0.027 1.638-0.049 2.455-0.028 1.029-0.064 2.051-0.109 3.072l-0.26 4.54c-1.421 20.201-6.293 39.533-14.038 57.406-0.043-0.011-0.051-0.002-0.059 0.008l-3.348 7.385c-0.154 0.316-0.309 0.631-0.466 0.945-3.467 6.955-7.36 13.669-11.665 20.095-0.516 0.774-1.040 1.543-1.57 2.306l1.57-2.306c-3.296 4.918-6.832 9.668-10.591 14.232-33.020 40.096-83.219 65.92-139.333 65.92zM719.795 569.79l0.611-3.191c0.668-4.245 1.207-8.532 1.616-12.856l4.348 1.61 2.212 0.85c3.233 1.191 6.636 2.212 10.21 3.233 0.341 0.17 0.851 0.17 1.191 0.34-0.51 0.171-0.85 0.341-1.362 0.51-6.54 2.779-12.824 5.958-18.827 9.502zM305.148 570.254l-3.114-1.799-2.212-1.362-4.956-2.446-5.083-2.318-1.191-0.51c-1.021-0.51-1.872-1.021-2.892-1.362-0.341-0.171-0.851-0.341-1.191-0.51 0.341-0.17 0.851-0.17 1.191-0.34 3.063-0.85 5.956-1.702 9.018-2.723 2.745-0.873 5.489-1.838 8.234-2.895 0.539 5.465 1.266 10.901 2.197 16.266zM225.63 841.057c-69.484 0-127.548-52.757-134.785-121.208l-0.495-5.904-0.17-2.212c-0.17-2.042-0.342-4.084-0.342-6.296 0-54.794 32.501-103.801 82.87-125.412l4.424-1.532 4.765-1.702c1.021-0.341 2.042-0.851 3.233-1.191 10.346-3.267 21.128-5.227 32.084-5.881l8.245-0.245h1.191c4.254 0 8.508 0.17 12.762 0.68l8.339 1.191 5.105 0.85 1.468 0.425 6.7 1.787c1.702 0.341 3.233 0.68 4.765 1.191l1.127 0.361 1.255 0.489 4.084 1.532 3.041 1.042 2.914 1.17 3.404 1.532 4.318 1.978 4.19 2.106 1.872 1.021c3.233 1.872 6.466 3.744 9.529 5.786l2.34 1.766 2.085 1.638 5.956 4.594 1.287 1.161c9.685 28.471 25.3 54.146 45.331 75.608 1.44 6.741 2.348 13.638 2.715 20.62l0.186 7.092v1.362c0 73.682-60.919 134.6-135.791 134.6zM802.263 841.057c-69.484 0-127.548-52.757-134.785-121.208l-0.495-5.904-0.17-2.212c-0.17-2.042-0.342-4.084-0.342-6.296 0-11.208 1.36-22.174 3.954-32.712 17.327-19.621 31.011-42.48 40.070-67.535 11.189-10.362 24.269-18.911 38.845-25.165l4.424-1.532 4.765-1.702c1.021-0.341 2.042-0.851 3.233-1.191 10.346-3.267 21.128-5.227 32.084-5.881l8.245-0.245h1.191c4.254 0 8.508 0.17 12.762 0.68l8.339 1.191 5.105 0.85 1.468 0.425 6.7 1.787c1.702 0.341 3.233 0.68 4.765 1.191l1.127 0.361 1.255 0.489 4.084 1.532 3.041 1.042 2.914 1.17 3.404 1.532 4.318 1.978 4.19 2.106 1.872 1.021c3.233 1.872 6.466 3.744 9.529 5.786l2.34 1.766 2.085 1.638 5.956 4.594c29.628 24.504 47.349 59.709 49.332 97.389l0.186 7.092v1.362c0 73.682-60.919 134.6-135.791 134.6z" />
</font>
</defs>
</svg>
