<?xml version="1.0" standalone="no"?>
<!DOCTYPE svg PUBLIC "-//W3C//DTD SVG 1.1//EN" "http://www.w3.org/Graphics/SVG/1.1/DTD/svg11.dtd" >
<svg xmlns="http://www.w3.org/2000/svg">
<metadata>
<json>
<![CDATA[
{
	"fontFamily": "iconlace",
	"majorVersion": 1,
	"minorVersion": 0,
	"description": "Font generated by IcoMoon.",
	"version": "Version 1.0",
	"fontId": "iconlace",
	"psName": "iconlace",
	"subFamily": "Regular",
	"fullName": "iconlace"
}
]]>
</json>
</metadata>
<defs>
<font id="iconlace" horiz-adv-x="1024">
<font-face units-per-em="1024" ascent="960" descent="-64" />
<missing-glyph horiz-adv-x="1024" />
<glyph unicode="&#x20;" horiz-adv-x="512" d="" />
<glyph unicode="&#xe900;" glyph-name="Donate" data-tags="Donate" horiz-adv-x="1008" d="M529.123 373.922c155.036 0 281.178 126.142 281.178 281.178s-126.142 281.178-281.178 281.178-281.178-126.142-281.178-281.178c-0.021-155.058 126.123-281.178 281.178-281.178zM529.123 887.307c128.040 0 232.207-104.166 232.207-232.207s-104.166-232.207-232.207-232.207-232.207 104.166-232.207 232.207 104.166 232.207 232.207 232.207zM509.31 639.369c5.161-2.102 10.284-3.897 15.242-5.632 12.692-4.448 23.669-8.284 30.363-15.181 7.448-7.671 9.814-21.446 5.468-31.996-4.326-10.549-15.242-18.487-26.546-19.344-11.385-0.857-23.915 5.366-31.158 15.468-3.551 4.938-4.060 8.815-3.857 9.591 4.264 12.835-2.653 26.69-15.486 30.975-12.814 4.286-26.69-2.653-30.975-15.486-5.632-16.916-1.796-36.483 10.528-53.644 10.631-14.813 25.485-25.649 41.972-31.362 0.245-8.182 0.612-16.386 1.123-24.505 0.817-12.976 11.59-22.956 24.404-22.956 0.511 0 1.040 0.021 1.551 0.040 13.487 0.836 23.752 12.468 22.915 25.975-0.408 6.651-0.734 13.365-0.979 20.078 23.057 6.814 42.483 23.895 51.788 46.563 11.672 28.404 5.244 63.235-15.631 84.721-14.734 15.181-33.098 21.609-49.298 27.282-4.61 1.613-8.958 3.143-13.019 4.794-7.978 3.244-26.976 12.425-31.199 27.955-2.367 8.652 0.572 19.567 7.162 26.546 6.651 7.059 17.262 10.876 27.688 9.998 9.428-0.817 18.263-5.366 23.589-12.202 5.223-6.673 7.202-16.099 4.917-23.485-3.98-12.916 3.285-26.628 16.202-30.608s26.628 3.285 30.608 16.202c6.979 22.69 1.938 48.767-13.161 68.071-10.611 13.549-25.588 23.302-42.442 27.976l-0.529 16.037c-0.469 13.509-11.834 24.058-25.301 23.629-13.509-0.469-24.098-11.794-23.629-25.301l0.529-15.385c-12.958-4.203-24.772-11.468-34.056-21.324-18.263-19.344-25.628-48.011-18.793-73.070 7.121-26.139 28.444-47.605 60.011-60.418zM972.461 297.363c-21.385 18.609-57.033 21.22-90.843 6.673-0.633-0.266-99.167-42.667-144.304-62.071-30.547 47.788-98.781 54.052-102.106 54.338l-90.027 5.284c-37.199 2.182-73.273 10.876-107.208 25.833-52.828 23.283-114.696 26.954-178.911 10.631-45.544-11.569-80.741-30.425-89.291-36.483l-143.263-99.433c-11.1-7.713-13.855-22.976-6.162-34.077s22.956-13.876 34.077-6.162l143.609 99.657c3.571 2.182 114.819 67.478 220.188 21.037 39.299-17.324 81.048-27.382 124.082-29.914l89.025-5.223c3.59-0.368 60.134-6.999 69.786-43.545 0.652-2.489-0.306-4.448-1.245-5.651-0.694-0.919-2.715-3.040-6.122-3.040h-175.299c-13.527 0-24.486-10.957-24.486-24.486s10.957-24.486 24.486-24.486h175.299c17.712 0 34.096 8.060 44.932 22.119 5.897 7.653 9.612 16.447 10.999 25.607 40.974 17.63 150.913 64.909 151.281 65.072 16.916 7.264 33.587 6.367 39.339 1.368 4.61-4.020 2.225-15.018 0.979-19.567-5.651-20.651-21.119-31.463-45.891-47.381-3.143-2.021-6.285-4.041-9.428-6.122l-227.268-149.833c-2.286-1.836-56.788-44.503-141.038-22.548l-181.114 76.6c-35.363 14.957-75.62 14.243-110.432-1.981l-123.348-57.461c-12.263-5.712-17.568-20.283-11.856-32.547s20.283-17.568 32.547-11.856l123.348 57.461c22.282 10.386 48.033 10.834 70.661 1.265l184.255-77.926 1.613-0.428c22.2-5.979 42.85-8.366 61.766-8.366 69.642 0 115.186 32.565 123.368 38.911l224.412 147.812c3 1.981 5.999 3.897 8.978 5.816 26.118 16.793 55.746 35.831 66.642 75.641 10.693 38.993-5.448 60.256-16.037 69.458z" />
<glyph unicode="&#xe901;" glyph-name="Search" data-tags="Search" d="M956.421 41.075l-222.882 230.087c56.449 66.586 90.544 152.701 90.544 246.619 0 210.627-171.348 381.995-381.995 381.995s-381.974-171.372-381.974-381.995c0-210.627 171.348-381.974 381.995-381.974 97.687 0 186.91 36.875 254.531 97.422l221.802-228.962c5.181-5.357 12.079-8.043 18.998-8.043 6.632 0 13.269 2.47 18.405 7.45 10.492 10.161 10.754 26.914 0.572 37.403zM113.013 517.78c0 181.464 147.631 329.099 329.099 329.099s329.099-147.631 329.099-329.099c0-87.305-34.184-166.784-89.861-225.744-0.924-0.683-1.828-1.411-2.666-2.224-1.321-1.28-2.47-2.646-3.459-4.101-59.622-59.884-142.099-97.004-233.084-97.004-181.488 0-329.119 147.611-329.119 329.074z" />
<glyph unicode="&#xe902;" glyph-name="Arrow-back" data-tags="Arrow back" d="M705.783-16.003c-6.931 0-13.843 2.739-18.974 8.171l-376.277 398.601c-28.884 30.599-28.884 80.37 0 110.975l379.561 402.079c9.889 10.473 26.408 10.953 36.859 1.068 10.473-9.889 10.953-26.385 1.068-36.859l-379.561-402.079c-10.063-10.672-10.063-28.687 0-39.357l376.277-398.601c9.889-10.473 9.412-26.972-1.068-36.859-5.018-4.76-11.455-7.128-17.889-7.128z" />
<glyph unicode="&#xe903;" glyph-name="Arrow-down" data-tags="Arrow down" d="M513.745 225.779c-20.021 0-40.021 7.185-55.26 21.58l-400.429 378.008c-10.431 9.847-10.908 26.277-1.062 36.708s26.298 10.908 36.708 1.062l400.429-378.008c10.627-10.021 28.57-10.021 39.199 0l396.967 374.737c10.431 9.847 26.862 9.374 36.708-1.062s9.374-26.862-1.062-36.708l-396.967-374.737c-15.215-14.394-35.236-21.58-55.237-21.58z" />
<glyph unicode="&#xe904;" glyph-name="Up-arrow" data-tags="Up arrow" d="M60.189 217.793c-7.152 0-14.285 2.825-19.576 8.431-10.201 10.807-9.71 27.828 1.1 38.029l414.834 391.603c31.573 29.8 82.921 29.8 114.494 0l411.247-388.217c10.807-10.201 11.301-27.222 1.1-38.029s-27.244-11.301-38.029-1.1l-411.247 388.217c-11.010 10.381-29.599 10.381-40.609 0l-414.834-391.603c-5.201-4.888-11.863-7.332-18.478-7.332z" />
<glyph unicode="&#xe905;" glyph-name="Close" data-tags="Close" d="M565.15 447.989l407.756 407.756c14.699 14.699 14.699 38.486 0 53.183s-38.516 14.699-53.183 0l-407.756-407.756-407.756 407.756c-14.699 14.699-38.516 14.699-53.183 0-14.699-14.699-14.699-38.486 0-53.183l407.756-407.756-407.756-407.756c-14.699-14.699-14.699-38.486 0-53.183 7.334-7.334 16.957-11.002 26.608-11.002s19.244 3.667 26.608 11.002l407.756 407.756 407.756-407.756c7.334-7.334 16.957-11.002 26.608-11.002s19.244 3.667 26.608 11.002c14.699 14.699 14.699 38.486 0 53.183l-407.819 407.756z" />
<glyph unicode="&#xe906;" glyph-name="Follow" data-tags="Follow" d="M979.387 476.613h-438.773v438.773c0 15.809-12.804 28.613-28.613 28.613s-28.613-12.804-28.613-28.613v-438.773h-438.773c-15.809 0-28.613-12.804-28.613-28.613s12.804-28.613 28.613-28.613h438.773v-438.773c0-15.809 12.804-28.613 28.613-28.613s28.613 12.804 28.613 28.613v438.773h438.773c15.809 0 28.613 12.804 28.613 28.613s-12.804 28.613-28.613 28.613z" />
<glyph unicode="&#xe907;" glyph-name="Notification" data-tags="Notification" d="M841.506 284.754c-23.73 14.14-34.725 34.088-34.616 62.766 0.090 21.99 0.242 44.312 0.395 65.932v0.859c0.090 11.325 0.176 20.827 0.242 29.119 0.352 40.487 0.461 52.714-0.99 109.19-1.803 70.573-28.678 136.173-77.674 189.769-46.647 51-109.014 85.397-175.629 96.83-4.927 0.835-9.873 1.539-14.846 2.132v60.259c0 14.581-11.809 26.39-26.39 26.39s-26.39-11.809-26.39-26.39v-58.983c-31.843-2.221-62.723-9.853-92.037-22.829-53.396-23.619-98.15-62.37-129.381-112.071-30.81-48.996-47.107-106.223-47.107-165.448l-0.023-83.46c-0.023-45.15-0.023-54.54 0.133-113.172 0.066-26.832-11.173-47.064-33.429-60.15-45.062-26.48-65.78-78.994-51.57-130.701 13.48-48.996 59.842-84.627 110.248-84.713 89.465-0.152 180.205-0.219 271.601-0.219 88.695 0 177.984 0.066 267.291 0.219 50.363 0.090 96.81 35.607 110.49 84.471 14.14 50.539-6.555 104.088-50.316 130.193zM781.25 122.826c-181.259-0.285-362.517-0.285-538.717 0.023-26.699 0.043-52.252 19.792-59.443 45.921-7.807 28.369 3.21 56.981 27.425 71.19 38.465 22.607 59.576 60.169 59.467 105.782-0.152 58.542-0.152 67.935-0.133 113.016l0.023 83.483c0 49.286 13.504 96.787 39.015 137.364 25.621 40.772 62.305 72.553 106.048 91.904 28.526 12.626 58.917 19.023 90.343 19.023 12.976 0 26.128-1.12 39.057-3.342 55.11-9.455 106.836-38.023 145.609-80.426 40.29-44.050 62.37-97.822 63.843-155.505 1.429-55.551 1.343-66.525 0.968-107.367-0.066-8.311-0.152-17.836-0.242-29.204v-0.859c-0.152-21.663-0.309-44.050-0.395-66.108-0.176-47.193 20.695-84.627 60.369-108.289 23.357-13.921 34.264-42.992 26.523-70.683-7.324-26.148-33.010-45.874-59.752-45.921zM594.405 20.78h-164.765c-14.581 0-26.39-11.809-26.39-26.39s11.809-26.39 26.39-26.39h164.765c14.581 0 26.39 11.809 26.39 26.39s-11.809 26.39-26.39 26.39z" />
<glyph unicode="&#xe908;" glyph-name="Notification-Bold" data-tags="Notification-Bold" d="M836.794 316.404c-17.598 10.488-25.070 24.141-24.984 45.646 0.086 21.357 0.231 43.049 0.4 64.024 0.086 10.888 0.168 20.005 0.231 27.962 0.337 39.062 0.444 50.837-0.949 105.303-1.836 71.833-29.142 138.604-78.946 193.047-47.27 51.7-110.536 86.541-178.129 98.148-0.063 0.022-0.149 0.022-0.213 0.041v43.218c0 23.319-18.886 42.205-42.205 42.205s-42.205-18.886-42.205-42.205v-41.298c-26.969-3.396-53.179-10.678-78.248-21.778-54.339-24.036-99.858-63.456-131.617-113.996-31.254-49.718-47.778-107.729-47.778-167.746l-0.022-78.861c-0.022-44.948-0.022-53.052 0.127-109.861 0.041-19.857-7.49-33.553-23.741-43.113-49.908-29.332-72.889-87.366-57.209-144.426 14.899-54.212 66.219-93.61 122.036-93.696 85.676-0.149 172.661-0.213 260.366-0.213 85.127 0 170.933 0.063 256.779 0.213 55.732 0.086 107.14 39.377 122.249 93.401 15.574 55.839-7.408 115.052-55.943 143.985zM811.406 195.148c-5.043-18.064-22.726-31.695-41.086-31.717-174.225-0.274-348.132-0.274-516.87 0.022-18.296 0.022-35.834 13.653-40.791 31.675-5.508 20.068 1.772 39.398 18.591 49.274 42.291 24.857 65.502 66.093 65.375 116.108-0.149 56.682-0.149 64.763-0.127 109.607l0.022 78.903c0 44.105 12.048 86.585 34.841 122.82 22.789 36.256 55.395 64.532 94.308 81.73 25.219 11.141 52.081 16.799 79.853 16.799 11.5 0 23.149-0.993 34.609-2.975 49.21-8.442 95.428-33.997 130.12-71.94 35.875-39.23 55.541-87.027 56.851-138.244 1.351-53.010 1.266-63.476 0.929-102.389-0.063-7.998-0.149-17.157-0.231-28.067-0.149-21.081-0.317-42.859-0.4-64.322-0.19-51.575 22.685-92.557 66.156-118.471 15.89-9.517 23.233-29.563 17.852-48.811zM591.029 44.411h-158.101c-23.319 0-42.205-18.886-42.205-42.205s18.886-42.205 42.205-42.205h158.101c23.319 0 42.205 18.886 42.205 42.205s-18.886 42.205-42.205 42.205z" />
<glyph unicode="&#xe909;" glyph-name="Like" data-tags="Like" d="M512.001 11c-4.354 0-8.577 0.509-12.556 1.502v0c-3.758 0.928-7.495 2.322-11.097 4.133-1.26 0.619-2.675 1.327-22.969 13.44-13.329 7.957-30.617 19.098-51.394 33.048-20.824 13.993-44.808 31.258-71.267 51.351-26.525 20.137-54.049 42.972-81.834 67.865-16.734 15.119-32.671 30.416-47.46 45.515-14.721 15.032-28.869 30.33-42.043 45.449-13.219 15.143-25.775 30.661-37.336 46.112-11.54 15.452-22.195 31.056-31.655 46.377-12.444 19.651-23.498 39.681-32.87 59.573-9.417 20.006-17.375 40.122-23.676 59.817-6.345 19.873-11.185 40.056-14.369 59.995-3.184 19.962-4.82 40.012-4.82 59.596 0 38.397 7.471 75.091 22.238 109.113 14.634 33.731 34.837 63.617 60.039 88.842 25.201 25.201 54.997 45.381 88.554 60.015 33.865 14.768 70.67 22.26 109.399 22.26 13.132 0 26.703-1.26 40.341-3.737 13.484-2.453 27.012-6.080 40.21-10.766 13.041-4.642 26.15-10.367 38.973-17.020 12.954-6.743 25.644-14.7 37.757-23.697 13.926-10.189 26.991-21.598 38.705-33.842 3.074-3.205 6.080-6.476 8.976-9.77 2.962 3.338 6.036 6.653 9.197 9.925 11.848 12.179 24.957 23.566 38.95 33.798 11.915 8.842 24.494 16.799 37.247 23.519 12.69 6.696 25.775 12.444 38.863 17.087 13.196 4.686 26.726 8.312 40.187 10.766 13.638 2.477 27.366 3.737 40.83 3.737 38.397 0 75.091-7.471 109.113-22.238 33.731-14.634 63.617-34.837 88.842-60.039 25.201-25.222 45.405-55.108 60.039-88.842 14.744-34.020 22.238-70.737 22.238-109.113 0-19.607-1.703-39.724-5.084-59.793-3.338-19.873-8.245-39.988-14.566-59.793-6.277-19.651-14.124-39.724-23.364-59.663-9.241-19.983-20.271-40.122-32.783-59.884-9.726-15.253-20.382-30.749-31.7-46.112-11.429-15.518-23.961-31.080-37.204-46.267-13.219-15.163-27.5-30.483-42.399-45.536-14.878-15.032-30.637-30.239-46.863-45.184l-0.265-0.244c-27.741-24.869-55.262-47.704-81.834-67.865-26.462-20.073-50.445-37.357-71.267-51.351s-38.219-25.134-51.75-33.114l-5.571-3.295c-11.228-6.633-13.859-8.245-14.479-8.62l-1.15-0.75-1.415-0.707c-3.737-1.88-7.716-3.295-11.781-4.243-4.002-0.885-8.003-1.347-11.872-1.347zM306.863 831.945c-31.389 0-61.054-5.989-88.179-17.837-27.453-11.982-51.77-28.428-72.242-48.898s-36.916-44.852-48.874-72.439c-11.848-27.3-17.861-56.921-17.861-88.001 0-16.778 1.393-33.999 4.156-51.217 2.762-17.308 6.964-34.88 12.512-52.235 5.593-17.507 12.69-35.457 21.132-53.362 8.443-17.949 18.481-36.098 29.777-53.938l0.178-0.265c8.664-14.037 18.436-28.362 29.090-42.596 10.742-14.391 22.46-28.847 34.817-42.996 12.512-14.346 25.974-28.891 39.988-43.216 14.037-14.346 29.18-28.869 45.049-43.193 26.635-23.873 53.031-45.78 78.409-65.032 25.644-19.474 48.786-36.141 68.769-49.561 20.006-13.44 36.517-24.072 49.051-31.546 13.329-7.98 17.817-10.588 19.299-11.429 2.122 1.284 6.080 3.627 13.772 8.201l5.504 3.25c12.732 7.514 29.267 18.105 49.229 31.522 19.983 13.416 43.127 30.108 68.793 49.561 25.376 19.255 51.726 41.115 78.362 64.989 15.562 14.346 30.705 28.935 44.962 43.347 14.124 14.281 27.631 28.781 40.122 43.106 12.291 14.103 23.897 28.516 34.485 42.861 10.611 14.412 20.602 28.915 29.643 43.083 11.228 17.727 21.132 35.81 29.421 53.694 8.312 17.949 15.364 35.967 20.979 53.516 5.547 17.418 9.86 35.058 12.776 52.434 2.896 17.177 4.354 34.351 4.354 50.995 0 31.080-6.013 60.679-17.861 88.001-11.959 27.587-28.406 51.947-48.898 72.439-20.468 20.468-44.828 36.916-72.439 48.874-27.3 11.848-56.921 17.837-88.001 17.837-10.279 0-20.824-0.972-31.345-2.872-10.654-1.944-21.42-4.82-31.942-8.554-10.698-3.801-21.42-8.51-31.874-14.037-10.367-5.46-20.623-11.959-30.506-19.299-11.76-8.601-22.614-18.015-32.384-28.074-9.616-9.904-18.015-20.248-24.913-30.749l-21.708-33.004-22.326 32.605c-7.34 10.722-15.961 21.266-25.576 31.302-9.572 9.991-20.314 19.365-31.874 27.832-10.014 7.427-20.314 13.882-30.771 19.32-10.654 5.527-21.508 10.279-32.253 14.103-10.52 3.737-21.266 6.61-31.965 8.577-10.478 1.944-20.867 2.896-30.836 2.896z" />
<glyph unicode="&#xe90a;" glyph-name="Like-Bold" data-tags="Like-Bold" d="M511.998 9.227c-5.589 0-11.071 0.662-16.256 1.962v0c-4.82 1.216-9.599 2.988-14.184 5.27-1.748 0.875-3.137 1.558-23.293 13.61-13.119 7.828-30.056 18.73-50.365 32.383-20.373 13.694-43.795 30.546-69.583 50.13-25.962 19.712-52.901 42.043-80.037 66.386-16.446 14.869-32.105 29.864-46.609 44.712-14.419 14.74-28.308 29.737-41.256 44.563-13.032 14.933-25.426 30.248-36.839 45.5s-21.951 30.718-31.357 45.928c-12.352 19.518-23.358 39.462-32.679 59.28-9.406 19.966-17.363 40.082-23.658 59.813-6.38 19.989-11.242 40.317-14.462 60.39-3.22 20.158-4.862 40.424-4.862 60.197 0 39.401 7.702 77.114 22.868 112.078 14.975 34.535 35.668 65.147 61.519 91.002 25.855 25.79 56.38 46.483 90.724 61.456 34.835 15.188 72.655 22.89 112.376 22.89 13.694 0 27.817-1.3 41.982-3.862 13.929-2.539 27.881-6.272 41.469-11.094 13.333-4.737 26.707-10.58 39.763-17.363 13.246-6.889 26.217-15.017 38.611-24.213 12.926-9.451 25.023-19.86 36.051-30.953 11.136 11.094 23.293 21.503 36.2 30.931 12.31 9.131 25.149 17.237 38.184 24.105 12.971 6.828 26.346 12.713 39.739 17.469 13.588 4.82 27.517 8.553 41.447 11.094 14.184 2.581 28.456 3.881 42.473 3.881 39.401 0 77.114-7.702 112.078-22.868 34.535-14.975 65.147-35.687 91.002-61.519 25.855-25.874 46.544-56.486 61.542-91.002 15.165-34.983 22.868-72.699 22.868-112.078 0-19.86-1.728-40.23-5.14-60.539-3.349-19.966-8.276-40.169-14.633-60.048-6.272-19.625-14.123-39.655-23.316-59.536-9.238-19.944-20.245-40.040-32.702-59.751-9.641-15.104-20.137-30.376-31.273-45.479-11.326-15.359-23.7-30.741-36.775-45.735-13.013-14.911-27.007-29.95-41.64-44.732-14.507-14.675-29.927-29.524-45.777-44.134l-0.426-0.384c-27.114-24.319-54.053-46.652-80.037-66.386-25.79-19.583-49.213-36.436-69.583-50.13-20.351-13.675-37.435-24.616-50.768-32.489l-5.376-3.179c-9.835-5.824-12.713-7.551-13.481-8.021l-1.728-1.152-2.281-1.152c-4.82-2.41-9.919-4.247-15.165-5.46-5.183-1.174-10.303-1.772-15.336-1.772zM516.434 93.957v0 0zM314.061 801.445c-27.923 0-54.269-5.312-78.289-15.785-24.532-10.686-46.225-25.365-64.466-43.625-18.237-18.237-32.893-39.976-43.58-64.614-10.496-24.19-15.808-50.491-15.808-78.118 0-15.275 1.281-31.016 3.797-46.739 2.539-15.872 6.399-31.977 11.477-47.91 5.162-16.169 11.754-32.808 19.56-49.404 7.851-16.681 17.172-33.554 27.711-50.172l0.277-0.426c8.105-13.119 17.256-26.536 27.198-39.847 10.132-13.546 21.16-27.177 32.786-40.488 11.88-13.61 24.638-27.411 37.927-40.979 13.311-13.61 27.669-27.369 42.705-40.957 25.3-22.677 50.43-43.518 74.556-61.84 24.468-18.579 46.525-34.471 65.573-47.251 19.070-12.819 34.748-22.91 46.567-29.972 4.095-2.452 7.295-4.353 9.813-5.844 1.387 0.81 2.924 1.728 4.672 2.771l5.44 3.22c11.88 7.018 27.561 17.066 46.567 29.844 19.028 12.778 41.085 28.669 65.573 47.271 24.084 18.282 49.126 39.059 74.449 61.756 14.827 13.652 29.204 27.517 42.727 41.192 13.375 13.523 26.152 27.24 37.991 40.807 11.561 13.246 22.46 26.793 32.402 40.275 10.006 13.588 19.412 27.262 27.944 40.636 10.409 16.427 19.605 33.235 27.285 49.81 7.722 16.681 14.271 33.383 19.454 49.661 5.12 16.043 9.067 32.276 11.754 48.252 2.623 15.637 3.968 31.25 3.968 46.396 0 27.646-5.334 53.927-15.827 78.137-10.686 24.638-25.365 46.374-43.58 64.614-18.218 18.218-39.976 32.893-64.614 43.58-24.19 10.496-50.472 15.808-78.118 15.808-8.916 0-18.070-0.833-27.177-2.496-9.386-1.706-18.879-4.247-28.159-7.551-9.557-3.391-19.157-7.615-28.521-12.565-9.215-4.862-18.389-10.645-27.22-17.214l-0.235-0.171c-10.432-7.638-20.18-16.085-28.946-25.107-8.531-8.79-15.956-17.918-22.035-27.156l-34.941-53.095-35.9 52.434c-6.57 9.577-14.271 19.028-22.91 28.052-8.553 8.916-18.153 17.301-28.521 24.894l-0.235 0.171c-8.79 6.528-17.962 12.287-27.24 17.108-9.577 4.991-19.328 9.238-28.969 12.671-9.28 3.307-18.772 5.844-28.178 7.551-9.109 1.578-18.112 2.41-26.707 2.41z" />
<glyph unicode="&#xe90b;" glyph-name="Share" data-tags="Share" d="M621.703 44.192c-10.57 0-21.288 2.006-31.622 6.126-33.043 13.156-53.967 44.647-53.321 80.217l2.523 135.929c-75.255 2.438-146.67-12.316-212.415-43.915-54.915-26.401-105.949-64.429-151.674-113.023-25.344-26.94-63.435-34.448-96.996-19.090-33.562 15.335-52.779 49.005-49.005 85.782 12.142 117.745 47.367 216.406 104.698 293.236 46.311 62.056 106.811 109.811 179.844 141.967 89.037 39.193 173.957 45.274 216.103 45.447l2.783 112.311c0.863 34.749 22.453 65.053 55.023 77.217s68.741 3.429 92.165-22.259l293.212-321.405c29.679-32.528 29.679-81.595-0.022-114.146l-289.071-316.703c-16.48-18.053-39.019-27.694-62.227-27.694zM555.808 317.517h36.171l-3.472-187.954c-0.388-21.117 15.768-29.204 20.707-31.169 4.961-1.985 22.237-7.203 36.473 8.391l289.051 316.679c11.539 12.641 11.539 31.708 0 44.345l-293.19 321.425c-13.911 15.249-30.929 10.462-35.806 8.65-4.896-1.835-20.878-9.383-21.377-30.004l-4.119-165.825-27.393 2.373c-1.726 0.151-109.075 8.24-220.094-41.217-64.32-28.665-117.533-70.962-158.146-125.749-51.227-69.085-82.825-158.793-93.934-266.575-2.264-21.892 14-31.081 19.023-33.39 5.047-2.307 22.669-8.585 37.788 7.486 80.217 85.284 217.914 184.373 418.316 172.534z" />
<glyph unicode="&#xe90c;" glyph-name="Share-Bold" data-tags="Share-Bold" d="M620.096 33.294c-12.533 0-25.236 2.379-37.494 7.265-39.171 15.614-63.985 52.938-63.198 95.104l2.166 116.816c-65.216-0.233-127.16-14.254-184.538-41.827-52.193-25.088-100.755-61.306-144.367-107.639-30.039-31.928-75.18-40.808-114.988-22.603-39.787 18.184-62.582 58.099-58.099 101.669 12.278 119.047 48.073 219.057 106.385 297.211 47.371 63.495 109.252 112.355 183.899 145.196 79.789 35.115 156.561 44.058 203.104 45.821l2.337 94.424c1.019 41.19 26.639 77.133 65.238 91.558s81.488 4.058 109.274-26.384l288.776-316.542c35.199-38.578 35.178-96.76-0.022-135.319l-284.676-311.911c-19.544-21.391-46.266-32.841-73.798-32.841zM555.643 336.495h52.448l-3.738-202.403c-0.171-9.261 6.012-13.129 9.708-14.593s10.834-2.93 17.080 3.93l284.676 311.888c5.396 5.928 5.396 14.85 0 20.775l-288.799 316.542c-6.096 6.691-13.129 5.396-16.781 4.058-3.633-1.36-9.793-4.993-10.005-14.064l-4.504-181.372-44.928 3.888c-2.166 0.171-104.451 7.542-209.605-39.703-138.291-62.135-218.080-187.32-237.114-372.069-0.999-9.666 5.141-13.977 8.9-15.699s11.089-3.548 17.758 3.548c81.466 86.586 221.245 187.151 424.901 175.276z" />
<glyph unicode="&#xe90d;" glyph-name="Filter" data-tags="Filter" d="M354.638 723.277h623.733c14.46 0 26.174 11.714 26.174 26.174s-11.714 26.174-26.174 26.174h-623.733c-14.46 0-26.174-11.714-26.174-26.174s11.714-26.174 26.174-26.174zM45.628 723.277h153.905v-51.279c0-14.46 11.714-26.174 26.174-26.174s26.174 11.714 26.174 26.174v154.909c0 14.46-11.714 26.174-26.174 26.174s-26.174-11.714-26.174-26.174v-51.279h-153.905c-14.46 0-26.174-11.714-26.174-26.174s11.714-26.174 26.174-26.174zM269.223 250.175c-14.46 0-26.174-11.714-26.174-26.174v-51.279h-197.419c-14.46 0-26.174-11.714-26.174-26.174s11.714-26.174 26.174-26.174h197.442v-51.279c0-14.46 11.714-26.174 26.174-26.174s26.174 11.714 26.174 26.174v154.909c-0.022 14.44-11.734 26.174-26.196 26.174zM978.35 472.33h-193.973v51.279c0 14.46-11.714 26.174-26.174 26.174s-26.174-11.714-26.174-26.174v-154.909c0-14.46 11.714-26.174 26.174-26.174s26.174 11.714 26.174 26.174v51.279h193.973c14.46 0 26.174 11.714 26.174 26.174s-11.714 26.174-26.174 26.174zM45.628 419.98h586.848c14.46 0 26.174 11.714 26.174 26.174s-11.714 26.174-26.174 26.174h-586.848c-14.46 0-26.174-11.714-26.174-26.174s11.714-26.174 26.174-26.174zM978.35 172.723h-574.328c-14.46 0-26.174-11.714-26.174-26.174s11.714-26.174 26.174-26.174h574.328c14.46 0 26.174 11.714 26.174 26.174s-11.714 26.174-26.174 26.174z" />
<glyph unicode="&#xe90e;" glyph-name="Menu" data-tags="Menu" d="M973.634 719.446h-923.245c-14.529 0-26.298 11.768-26.298 26.298s11.768 26.298 26.298 26.298h923.222c14.529 0 26.298-11.768 26.298-26.298s-11.768-26.298-26.276-26.298zM973.634 421.714h-923.245c-14.529 0-26.298 11.768-26.298 26.298s11.768 26.298 26.298 26.298h923.222c14.529 0 26.298-11.768 26.298-26.298s-11.768-26.298-26.276-26.298zM973.634 123.959h-923.245c-14.529 0-26.298 11.768-26.298 26.298s11.768 26.298 26.298 26.298h923.222c14.529 0 26.298-11.768 26.298-26.298s-11.768-26.298-26.276-26.298z" />
<glyph unicode="&#xe90f;" glyph-name="Search-Bold" data-tags="Search-Bold" d="M979.285 44.553l-216.72 223.706c54.169 69.312 86.504 156.49 86.504 251.082 0 225.262-183.26 408.541-408.541 408.541-225.262 0-408.521-183.26-408.521-408.541 0-225.262 183.26-408.521 408.521-408.521 98.266 0 188.532 34.881 259.082 92.882l214.942-221.881c8.834-9.126 20.597-13.702 32.379-13.702 11.289 0 22.599 4.215 31.342 12.687 17.892 17.327 18.341 45.856 1.014 63.744zM122.139 519.339c0 175.575 142.836 318.412 318.387 318.412s318.412-142.836 318.412-318.412c0-83.955-32.671-160.388-85.939-217.329-1.082-0.878-2.14-1.779-3.177-2.772-1.691-1.647-3.177-3.401-4.551-5.228-57.639-57.482-137.091-93.062-224.721-93.062-175.575 0-318.412 142.812-318.412 318.387z" />
<glyph unicode="&#xe910;" glyph-name="Open-eyes" data-tags="Open eyes" d="M519.704 137.088c-168.882 0-335.099 100.225-494.504 298.266l-12.356 15.343 11.561 15.945c2.149 2.966 53.573 73.32 140.152 144.728 51.1 42.118 103.9 75.855 156.976 100.225 67.132 30.837 134.864 46.76 201.309 47.297 1.182 0 2.364 0.021 3.546 0.021 169.333 0 328.802-98.183 474.089-291.928l10.68-14.247-9.541-15.042c-1.847-2.901-46.030-71.988-123.969-143.611-104.329-95.861-219.789-149.928-333.874-156.353-7.994-0.408-16.053-0.644-24.068-0.644zM78.278 451.902c151.755-182.935 307.292-271.298 462.335-262.66 128.546 7.156 234.681 81.1 301.081 141.87 52.777 48.307 89.674 96.27 106.35 119.629-131.856 170.3-273.683 256.621-421.699 256.621-0.946 0-1.89 0-2.836 0-74.094-0.559-190.628-24.39-325.063-134.843-58.471-48.071-100.654-96.571-120.166-120.617zM512.569 255.901c-105.919 0-192.111 86.171-192.111 192.111s86.171 192.111 192.111 192.111 192.111-86.192 192.111-192.111-86.171-192.111-192.111-192.111zM512.569 588.549c-77.489 0-140.538-63.049-140.538-140.538s63.049-140.538 140.538-140.538c77.489 0 140.538 63.049 140.538 140.538s-63.049 140.538-140.538 140.538z" />
<glyph unicode="&#xe911;" glyph-name="Close-eyes" data-tags="Close eyes" d="M220.626 271.174c7.856 0 15.602 3.56 20.693 10.293 8.611 11.415 6.344 27.662-5.071 36.273-50.214 37.892-100.664 86.357-150.187 144.253 23.866 28.463 79.905 90.284 157.33 144.21 60.247 41.948 121.486 70.993 182.059 86.314 74.641 18.881 148.742 16.874 220.21-6.020 13.616-4.358 28.203 3.15 32.562 16.766s-3.15 28.203-16.766 32.562c-81.114 25.981-165.076 28.224-249.557 6.69-66.786-17.025-133.851-48.875-199.343-94.687-110.525-77.295-177.98-166.954-180.807-170.751l-12.148-16.313 12.968-15.665c56.428-68.166 114.452-124.941 172.479-168.722 4.661-3.495 10.142-5.201 15.58-5.201zM993.224 477.443c-62.837 81.502-129.105 145.957-197.206 191.942l136.225 136.42c10.099 10.121 10.099 26.52-0.022 36.619s-26.52 10.099-36.619-0.022l-751.129-752.209c-10.099-10.121-10.099-26.52 0.022-36.619 5.050-5.050 11.675-7.573 18.299-7.573s13.271 2.525 18.32 7.596l148.072 148.311c63.096-28.289 126.948-42.553 190.755-42.553 24.772 0 49.567 2.136 74.252 6.453 72.547 12.624 144.34 43.718 213.369 92.465 116.179 82.020 183.979 184.886 186.805 189.222l10.033 15.407-11.179 14.545zM650.492 458.26c0-73.54-61.844-133.378-137.865-133.378-17.609 0-34.957 3.258-51.12 9.494l177.333 177.592c7.661-16.788 11.652-34.957 11.652-53.709zM776.489 299.699c-62.599-43.955-127.184-71.899-191.984-83.013-71.598-12.3-144.081-3.948-215.872 24.729l53.84 53.903c27.557-14.545 58.585-22.204 90.133-22.204 104.57 0 189.655 83.056 189.655 185.166 0 32.714-8.653 64.175-25.117 92.097l81.502 81.61c62.211-40.395 123.257-97.837 181.778-171.14-22.657-30.664-80.575-102.629-163.934-161.149zM512.605 591.616c10.358 0 20.673-1.123 30.664-3.3 13.962-3.064 27.771 5.761 30.857 19.744 3.064 13.962-5.761 27.771-19.744 30.857-13.638 2.999-27.685 4.509-41.777 4.509-104.57 0-189.655-83.056-189.655-185.166 0-22.247 4.013-44.043 11.912-64.714 3.948-10.315 13.767-16.658 24.19-16.658 3.064 0 6.194 0.539 9.235 1.705 13.357 5.114 20.046 20.068 14.933 33.426-5.632 14.759-8.502 30.318-8.502 46.221 0.022 73.561 61.866 133.378 137.887 133.378z" />
<glyph unicode="&#xe912;" glyph-name="Dove" data-tags="Dove" d="M731.313 541.328c-8.37 0-15.166-6.797-15.166-15.166s6.797-15.166 15.166-15.166 15.166 6.797 15.166 15.166c0 8.39-6.775 15.166-15.166 15.166zM956.072 758.305c-0.42 15.418-9.251 29.325-23.032 36.288-13.844 6.985-30.353 5.81-43.085-3.062-25.738-17.956-40.337-40.567-48.371-62.74-19.697 29.073-41.155 53.091-61.67 72.514-2.832 2.684-5.664 5.286-8.516 7.846 36.33 33.52 43.84 79.185 20.221 128.164-6.481 13.425-19.801 21.878-35.659 22.633-18.292 0.839-36.142-8.579-45.519-24.060-14.83-24.5-18.858-48.392-17.117-69.515-37.925 22.361-65.844 31.842-67.752 32.493-13.173 4.405-27.395-2.726-31.8-15.879-4.405-13.173 2.684-27.415 15.837-31.863 0.566-0.188 47.7-16.445 101.063-56.992-16.403-0.986-33.96-4.782-52.398-11.516-16.865-6.167-28.36-21.123-29.995-39.016s6.922-34.673 22.381-43.798c23.304-13.76 46.672-18.564 67.962-18.564 36.456 0 66.767 14.096 80.045 21.396 14.285-20.724 26.409-42.707 36.226-65.844 1.615-3.817 3.167-7.656 4.678-11.537l1.489-6.439 0.839 0.146c4.846-13.236 8.999-26.829 12.418-40.777-1.091-0.482-2.182-0.986-3.398-1.553-17.221-8.138-18.774-5.432-21.878 0-35.009 61.293-94.372 59.3-106.642 58.167-56.237-0.755-94.12-47.217-113.334-78.534-40.317 33.898-86.799 53.217-139.071 57.622-53.405 4.489-110.083-6.691-173.283-34.233-27.541-11.999-81.199-10.593-147.231 3.859-20.64 4.51-41.722-0.734-57.852-14.389s-24.751-33.582-23.703-54.684c3.755-74.213 30.331-209.699 166.173-283.282 44.008-23.85 85.96-37.463 124.032-44.554-14.914-15.103-43.337-36.708-96.428-58.964-19.739-8.264-34.044-24.899-39.268-45.644s-0.482-42.162 12.984-58.775c32.283-39.855 86.002-87.219 158.81-87.219 0.294 0 0.608 0 0.902 0 29.555 0.168 55.272 19.172 64.019 47.322 19.361 62.362 46.63 103.077 72.955 108.929 2.936 0.65 5.622 1.825 8.034 3.356 54.014 0.294 96.364 13.236 125.899 26.765 44.679 20.472 70.082 46.441 75.703 52.587 4.866 4.531 9.607 9.271 14.117 14.096 54.475 58.503 83.758 145.008 76.416 225.745-4.95 54.412 11.957 75.912 17.263 81.22 5.726 5.726 10.802 11.159 15.418 16.508 2.077-24.375 2.286-49.588 0.545-75.577-0.923-13.865 9.565-25.864 23.452-26.787 0.566-0.042 1.133-0.062 1.699-0.062 13.131 0 24.207 10.194 25.087 23.494 5.14 77.129-5.496 142.323-24.626 196.882 43.337 18.627 66.704 63.789 64.964 127.828zM750.716 904.824c7.614-21.731 3.566-37.337-4.552-48.853-4.091 12.628-5.328 29.661 4.552 48.853zM782.075 410.165c6.083-66.935-18.102-138.526-63.117-186.876-3.923-4.195-8.055-8.328-12.292-12.229l-1.091-1.007-0.965-1.111c-0.818-0.944-82.772-93.868-247.749-52.629-13.488 3.356-27.143-4.824-30.52-18.312s4.824-27.143 18.312-30.52c6.355-1.594 12.606-3 18.753-4.237-18.459-21.815-36.834-55-52.378-105.069-2.202-7.090-8.705-11.873-16.215-11.915-0.21 0-0.398 0-0.608 0-53.007 0-94.351 37.253-119.732 68.571-3.398 4.195-4.573 9.586-3.272 14.809 1.321 5.224 4.93 9.419 9.901 11.516 91.309 38.261 123.843 77.884 135.296 99.050 4.027-0.126 7.992-0.188 11.873-0.188 19.571 0 37.253 1.531 52.629 3.755 62.844 9.125 102.133 31.548 103.769 32.513 11.999 6.943 16.089 22.277 9.187 34.296s-22.277 16.173-34.317 9.313c-0.336-0.188-34.17-19.193-88.12-26.619-17.452-2.412-34.925-3.377-52.356-2.958 2.14 2.454 4.258 5.034 6.335 7.804 8.348 11.117 6.083 26.891-5.034 35.239s-26.891 6.083-35.239-5.034c-14.201-18.921-32.471-26.325-37.778-28.171-10.97 2.748-21.899 6.041-32.807 9.922 2.81 2.014 5.664 4.195 8.537 6.587 10.698 8.873 12.166 24.751 3.293 35.449s-24.751 12.166-35.449 3.293c-20.242-16.801-35.869-17.011-36.54-17.011 0 0 0 0 0 0 0.462 0 0.692-0.020 0.692-0.020l-0.084-1.279c-9.67 5.39-18.837 11.285-27.541 17.641 13.655 4.342 28.15 11.285 41.868 22.277 10.844 8.684 12.606 24.521 3.923 35.387s-24.521 12.628-35.387 3.923c-20.494-16.382-44.595-18.25-56.426-18.018-7.195 8.831-13.823 18.166-19.843 28.045 6.104-0.965 12.439-1.511 18.983-1.511 19.99 0 41.764 5.098 63.621 18.753 11.789 7.362 15.376 22.906 8.013 34.695s-22.906 15.376-34.695 8.013c-18.124-11.327-37.337-14.096-57.118-8.264-15.858 4.699-26.556 13.341-27.039 13.718-0.272 0.23-0.587 0.44-0.86 0.671-2.224 7.362-4.133 14.641-5.748 21.731 15.795-5.076 35.953-8.977 60.537-8.977 6.88 0 14.117 0.314 21.71 0.986 13.844 1.237 24.081 13.467 22.843 27.311s-13.467 24.081-27.311 22.843c-50.615-4.51-78.786 11.873-86.17 16.949-0.084 1.259-0.168 2.56-0.23 3.775-0.356 7.258 3.566 11.705 5.957 13.739 2.392 2.014 7.446 5.182 14.537 3.629 79.499-17.41 139.429-17.683 178.109-0.839 55.356 24.123 104.084 34.024 148.951 30.227 71.717-6.041 130.786-48.392 175.571-125.877 6.964-12.041 22.361-16.152 34.38-9.209 12.041 6.964 16.152 22.361 9.209 34.38-12.041 20.85-25.067 39.561-38.994 56.153 11.054 20.64 39.456 65.32 77.842 65.32l1.489-0.104 1.951 0.336c4.573 0.482 37.673 2.726 58.104-33.037 6.335-11.075 14.683-19.34 24.521-24.437-14.473-16.949-33.582-52.020-27.667-117.152zM685.208 738.524c15.9 4.762 30.625 6.523 43.022 5.076 8.328-0.965 15.586-3.314 21.962-7.153-17.557-5.349-41.323-8.306-64.984 2.077zM896.961 703.223c-3.587-7.908-8.138-14.243-13.844-19.13 1.301 16.781 6.587 37.443 22.171 54.391-0.944-11.495-3.272-24.123-8.328-35.261z" />
<glyph unicode="&#xe913;" glyph-name="Error" data-tags="Error" d="M932.982 710.349c-0.205 0.341-0.457 0.66-0.683 0.98-4.468 52.178-38.501 116.826-103.012 196.015l-20.083 24.643-21.381-23.502c-0.708-0.775-11.648-12.879-26.056-31.913-75.59 44.131-161.709 67.427-249.789 67.427-132.486 0-257.037-51.585-350.726-145.274s-145.251-218.242-145.251-350.726 51.585-257.037 145.274-350.726c93.689-93.689 218.242-145.274 350.726-145.274s257.037 51.585 350.726 145.274 145.274 218.242 145.274 350.726c-0.023 93.073-25.964 183.798-75.019 262.35zM807.518 846.505c72.352-95.808 74.359-143.085 68.386-163.35-4.743-16.14-18.442-27.993-40.711-35.242-23.57-7.658-49.328-4.309-68.864 8.959-14.659 9.961-22.385 22.271-24.368 38.729-5.516 46.365 35.242 111.355 65.559 150.904zM512 6.708c-243.317 0-441.291 197.953-441.291 441.291s197.953 441.27 441.291 441.27c77.071 0 152.431-20.013 218.833-57.991-33.349-54.527-47.915-102.305-43.197-142.060 3.807-32.026 20.378-58.857 47.938-77.572 21.746-14.772 47.802-22.43 74.221-22.43 14.201 0 28.493 2.211 42.309 6.702 25.781 8.39 45.864 21.746 59.587 39.299 27.31-58.264 41.578-122.067 41.578-187.195 0-243.338-197.953-441.315-441.27-441.315zM667.396 145.461c-4.309 2.121-11.99 8.548-17.301 12.971-12.583 10.509-26.829 22.43-45.111 27.423-16.549 4.513-41.784 4.468-68.066-21.426-8.115-8.001-19.945-18.852-28.95-20.79-2.371-0.502-8.685-1.869-23.615 9.641-3.397 2.622-6.884 5.561-10.576 8.661-19.855 16.731-49.853 42.034-91.75 25.554-10.645-4.193-19.924-9.961-28.107-15.067-14.384-8.959-22.316-13.563-31.39-11.854-14.84 2.826-29.156-6.952-31.96-21.793s6.952-29.156 21.793-31.96c30.5-5.791 53.637 8.64 70.527 19.193 6.792 4.24 13.198 8.228 19.172 10.576 10.098 3.99 16.845 0.068 36.45-16.481 3.967-3.351 8.070-6.816 12.425-10.167 19.924-15.364 37.862-21.451 54.16-21.451 27.627 0 50.492 17.508 70.21 36.951 11.376 11.215 13.996 12.47 39.663-8.981 10.236-8.548 20.79-17.392 33.51-22.385 18.965-7.455 38.114-4.125 53.934 9.369 11.489 9.802 12.879 27.059 3.077 38.569-9.665 11.352-26.602 12.833-38.091 3.441zM717.546 377.927c-10.692 10.692-27.993 10.692-38.684 0l-24.093-24.093-24.093 24.093c-10.692 10.692-27.993 10.692-38.684 0s-10.692-27.993 0-38.684l24.093-24.093-24.093-24.093c-10.692-10.692-10.692-27.993 0-38.684 5.334-5.334 12.332-8.001 19.354-8.001 6.997 0 13.996 2.667 19.354 8.001l24.093 24.093 24.093-24.093c5.334-5.334 12.332-8.001 19.354-8.001s13.996 2.667 19.354 8.001c10.692 10.692 10.692 27.993 0 38.684l-24.093 24.093 24.093 24.093c10.645 10.669 10.645 27.993-0.045 38.684zM303.516 252.348c5.334-5.334 12.332-8.001 19.354-8.001s13.996 2.667 19.354 8.001l24.093 24.093 24.093-24.093c5.334-5.334 12.332-8.001 19.354-8.001s13.996 2.667 19.354 8.001c10.692 10.692 10.692 27.993 0 38.684l-24.093 24.093 24.093 24.093c10.692 10.692 10.692 27.993 0 38.684s-27.993 10.692-38.684 0l-24.093-24.093-24.093 24.093c-10.692 10.692-27.993 10.692-38.684 0s-10.692-27.993 0-38.684l24.093-24.093-24.093-24.093c-10.714-10.669-10.714-27.993-0.045-38.684z" />
<glyph unicode="&#xe914;" glyph-name="Trash-Bold" data-tags="Trash-Bold" d="M924.612 724.207c0 57.979-47.157 105.135-105.135 105.135h-112.124c-14.719 65.517-73.336 114.658-143.242 114.658h-104.221c-69.905 0-128.523-49.118-143.242-114.658h-112.124c-57.979 0-105.135-47.157-105.135-105.135 0-34.676 16.87-65.454 42.834-84.624l76.147-599.741c6.369-50.075 49.224-87.841 99.705-87.841h387.849c50.482 0 93.337 37.765 99.705 87.841l76.167 599.741c25.945 19.17 42.812 49.948 42.812 84.624zM459.89 858.801h104.221c17.466 0 33.27-7.306 44.495-19.021h-193.212c11.225 11.715 27.029 19.021 44.495 19.021zM204.526 744.143h614.948c10.992 0 19.936-8.947 19.936-19.936s-8.947-19.936-19.936-19.936h-614.948c-10.992 0-19.936 8.947-19.936 19.936s8.947 19.936 19.936 19.936zM721.112 50.576c-0.979-7.626-7.497-13.375-15.186-13.375h-387.849c-7.689 0-14.207 5.751-15.186 13.375l-72.186 568.495h562.594l-72.186-568.495z" />
<glyph unicode="&#xe915;" glyph-name="Trash" data-tags="Trash" d="M921.643 734.034c0 50.313-40.916 91.231-91.231 91.231h-130.977c-7.785 66.745-64.651 118.737-133.47 118.737h-107.928c-68.797 0-125.663-51.989-133.47-118.737h-130.977c-50.313 0-91.231-40.916-91.231-91.231 0-32.733 17.336-61.474 43.277-77.577 0.044-0.442 0.044-0.883 0.109-1.324l79.695-627.586c5.471-43.078 42.328-75.547 85.738-75.547h401.648c43.41 0 80.267 32.469 85.738 75.547l79.695 627.586c0.066 0.442 0.066 0.883 0.109 1.324 25.961 16.101 43.277 44.844 43.277 77.577zM458.034 891.064h107.928c35.668 0 66.041-23.029 77.047-54.99h-262.024c11.006 31.961 41.381 54.99 77.047 54.99zM193.586 772.327h636.828c21.11 0 38.291-17.183 38.291-38.291s-17.183-38.291-38.291-38.291h-636.828c-21.11 0-38.291 17.183-38.291 38.291s17.183 38.291 38.291 38.291zM746.065 34.209c-2.118-16.698-16.41-29.271-33.219-29.271h-401.67c-16.831 0-31.101 12.595-33.241 29.271l-77.289 608.594h622.666l-77.246-608.594z" />
<glyph unicode="&#xe916;" glyph-name="Star" data-tags="Star" d="M766.143-35.531c-14.697 0-29.461 3.535-43.128 10.716l-211.036 110.954-211.036-110.954c-31.385-16.509-68.721-13.802-97.399 7.046-28.701 20.848-42.793 55.5-36.799 90.463l40.31 234.995-170.726 166.431c-25.39 24.763-34.36 61.092-23.399 94.804 10.961 33.734 39.572 57.848 74.671 62.95l235.957 34.294 105.518 213.812c15.703 31.811 47.47 51.562 82.925 51.562s67.243-19.753 82.925-51.562l105.518-213.812 235.957-34.294c35.098-5.1 63.709-29.215 74.671-62.95s1.991-70.062-23.399-94.804l-170.726-166.431 40.31-234.995c5.996-34.942-8.098-69.615-36.799-90.463-16.263-11.766-35.232-17.761-54.313-17.761zM511.977 146.804l236.024-124.086c13.377-7.025 28.633-5.928 40.87 2.952 12.214 8.881 17.985 23.063 15.435 37.939l-45.075 262.824 190.949 186.118c10.805 10.536 14.495 25.412 9.821 39.773s-16.374 24.227-31.318 26.396l-263.898 38.364-118.022 239.112c-6.689 13.533-19.685 21.631-34.785 21.631s-28.119-8.075-34.785-21.631l-118.022-239.112-263.874-38.343c-14.944-2.17-26.665-12.035-31.318-26.396-4.675-14.361-1.007-29.237 9.821-39.773l190.949-186.118-45.075-262.845c-2.551-14.876 3.221-29.081 15.435-37.939 12.214-8.881 27.492-9.977 40.87-2.952l236.001 124.086z" />
<glyph unicode="&#xe917;" glyph-name="Star-Bold" data-tags="Star-Bold" d="M270.599-28.238c-21.649 0-43.151 6.777-61.529 20.142-32.529 23.626-48.505 62.91-41.706 102.536l36.777 214.377-155.759 151.828c-28.788 28.067-38.945 69.242-26.537 107.465s44.852 65.567 84.624 71.347l215.247 31.276 96.268 195.063c17.783 36.055 53.817 58.448 94.016 58.448s76.231-22.394 94.016-58.448v0l96.268-195.063 215.247-31.276c39.774-5.78 72.217-33.124 84.624-71.347s2.252-79.419-26.537-107.465l-155.759-151.828 36.777-214.377c6.8-39.624-9.178-78.909-41.706-102.536s-74.83-26.686-110.397-7.989l-192.513 101.238-192.536-101.219c-15.467-8.137-32.21-12.174-48.888-12.174zM512.023 839.275c-3.719 0-12.876-1.083-17.804-11.069l-116.049-235.114-259.462-37.712c-11.027-1.593-14.872-9.986-16.020-13.512s-2.953-12.578 5.035-20.354l187.755-183.018-44.32-258.42c-1.891-10.983 4.886-17.231 7.904-19.42s11.048-6.693 20.907-1.509l232.054 122.018 232.076-122.018c9.858-5.184 17.911-0.68 20.907 1.509s9.774 8.435 7.904 19.42l-44.32 258.42 187.755 183.018c7.967 7.776 6.161 16.826 5.035 20.354-1.148 3.528-5.014 11.919-16.020 13.512l-259.482 37.712-116.049 235.114c-4.928 9.986-14.085 11.069-17.804 11.069z" />
<glyph unicode="&#xe918;" glyph-name="Donate-Solid" data-tags="Donate-Solid" d="M536.749 359.114c161.265 0 292.443 131.199 292.443 292.443 0 161.265-131.199 292.443-292.443 292.443s-292.443-131.199-292.443-292.443c-0.020-161.265 131.178-292.443 292.443-292.443zM536.749 863.769c117.018 0 212.211-95.195 212.211-212.211s-95.195-212.211-212.211-212.211-212.211 95.195-212.211 212.211c-0.020 117.018 95.195 212.211 212.211 212.211zM515.007 630.537c5.215-2.106 10.311-3.912 15.244-5.636 11.753-4.112 21.923-7.682 27.52-13.439 5.676-5.837 7.481-16.808 4.131-24.992-3.371-8.204-12.195-14.642-20.981-15.283-9.187-0.682-19.336 4.433-25.293 12.717-1.604 2.226-2.368 4.191-2.607 5.155 4.494 15.445-3.993 31.791-19.395 36.926-15.785 5.255-32.795-3.269-38.050-19.035-6.158-18.494-2.085-39.674 11.172-58.148 10.329-14.402 24.47-25.233 40.256-31.551 0.241-6.76 0.561-13.52 0.983-20.239 1.003-15.947 14.241-28.201 30.006-28.201 0.642 0 1.264 0.020 1.905 0.060 16.587 1.043 29.183 15.325 28.141 31.912-0.322 5.014-0.561 10.049-0.763 15.084 22.385 8.004 41.038 25.272 50.265 47.737 12.537 30.529 5.858 66.613-16.628 89.758-15.485 15.947-35.061 22.806-50.786 28.322-4.453 1.565-8.664 3.028-12.516 4.593-14.582 5.918-24.731 14.703-27.137 23.487-1.766 6.479 0.583 15.043 5.615 20.378 5.315 5.636 13.859 8.685 22.324 7.964 7.643-0.661 14.723-4.272 18.975-9.707 3.912-4.994 5.476-12.236 3.831-17.61-4.894-15.886 4.031-32.714 19.918-37.608 15.886-4.874 32.714 4.031 37.608 19.918 7.441 24.149 2.085 51.89-13.961 72.388-10.311 13.177-24.53 22.967-40.578 28.302l-0.381 11.452c-0.561 16.607-14.421 29.605-31.091 29.045-16.607-0.561-29.605-14.481-29.045-31.091l0.361-10.731c-11.995-4.572-22.907-11.713-31.691-21.021-19.356-20.499-27.158-50.946-19.897-77.543 7.522-27.54 29.726-50.065 62.54-63.362zM983.077 311.998c-25.634 22.304-67.314 25.915-106.186 9.187-0.682-0.3-82.617-35.544-130.255-56.021-28.642 33.879-75.298 47.257-104.301 49.663l-88.877 5.236c-34.639 2.025-68.236 10.13-99.848 24.070-55.239 24.35-119.644 28.261-186.297 11.314-45.632-11.593-81.936-30.529-92.867-38.169l-140.926-97.803c-18.193-12.636-22.725-37.628-10.088-55.822s37.628-22.725 55.822-10.088l140.827 97.743c4.714 2.808 106.306 61.217 201.159 19.395 40.377-17.791 83.281-28.141 127.507-30.749l87.031-5.115c3.31-0.421 33.296-4.614 47.656-19.315h-157.194c-22.164 0-40.116-17.951-40.116-40.116s17.951-40.116 40.116-40.116h172.318c22.445 0 43.165 10.208 56.885 28 5.516 7.161 9.509 15.102 11.954 23.448 44.729 19.236 140.866 60.595 141.206 60.734 7.682 3.31 14.282 4.011 18.494 3.891-0.16-0.823-0.381-1.746-0.661-2.788-4.031-14.723-15.905-22.926-38.311-37.307-3.13-2.006-6.278-4.031-9.428-6.117l-222.943-146.704-1.826-1.565c-3.932-3.008-51.147-37.649-123.316-19.315l-176.93 74.836c-38.933 16.467-83.259 15.665-121.57-2.187l-121.249-56.483c-20.077-9.367-28.784-33.215-19.417-53.314 9.347-20.077 33.215-28.784 53.314-19.417l121.249 56.483c17.791 8.283 38.37 8.664 56.444 1.003l182.125-77.023 2.668-0.721c23.166-6.237 44.79-8.745 64.606-8.745 71.787 0 119.905 32.915 130.737 41.099l220.235 145.057c2.887 1.905 5.797 3.77 8.664 5.615 26.717 17.17 59.973 38.532 72.309 83.602 9.367 34.179 1.826 65.027-20.72 84.624z" />
<glyph unicode="&#xe919;" glyph-name="Refresh" data-tags="Refresh" d="M920.007 348.882c-13.894 4.332-28.69-3.406-33.042-17.323-24.248-77.717-73.692-147.474-139.252-196.48-67.779-50.652-148.442-77.431-233.304-77.431-160.379 0-302.577 97.811-361.586 243.219l81.169-31.064c13.608-5.211 28.866 1.605 34.077 15.213s-1.605 28.866-15.213 34.077l-120.125 45.971c-5.627 2.154-11.477 3.297-17.347 3.452-3.473 0.549-7.123 0.417-10.751-0.527-1.055-0.286-2.067-0.637-3.057-1.033-2.946-0.748-5.826-1.714-8.663-2.99-12.685-5.673-22.403-15.939-27.372-28.91l-45.947-120.169c-5.211-13.608 1.605-28.866 15.213-34.055 3.1-1.188 6.286-1.738 9.409-1.738 10.618 0 20.622 6.463 24.645 16.974l33.768 88.268c66.153-166.908 228.51-279.428 411.798-279.428 96.338 0 187.926 30.405 264.895 87.919 74.397 55.599 130.523 134.811 158.027 223.036 4.309 13.894-3.452 28.69-17.347 33.022zM989.655 723.217c-13.498 5.474-28.888-1.033-34.363-14.532l-34.274-84.553c-30.933 71.627-80.048 133.493-143.715 180.539-76.551 56.545-167.459 86.423-262.894 86.423s-186.344-29.878-262.894-86.423c-75.013-55.403-129.82-131.359-158.489-219.65-4.507-13.85 3.077-28.733 16.95-33.242 2.704-0.879 5.453-1.298 8.157-1.298 11.124 0 21.457 7.079 25.085 18.248 25.261 77.761 73.539 144.683 139.669 193.51 67.406 49.796 147.474 76.112 231.544 76.112s164.139-26.317 231.544-76.112c55.752-41.2 98.843-95.238 126.128-157.807l-83.344 33.813c-13.498 5.474-28.888-1.033-34.363-14.532s1.033-28.888 14.532-34.363l119.203-48.345c6.31-2.573 12.949-3.848 19.567-3.848 6.859 0 13.741 1.385 20.27 4.132 12.795 5.407 22.711 15.478 27.943 28.36l48.345 119.223c5.407 13.477-1.099 28.866-14.597 34.341z" />
<glyph unicode="&#xe91a;" glyph-name="Transcription" data-tags="Transcription" d="M239.293 188.525c-12.407 0-23.801 8.233-27.268 20.782-4.151 15.074 4.694 30.665 19.745 34.816 23.212 6.417 44.466 16.253 63.17 29.249 19.061 13.894 35.595 30.169 49.135 48.333s24.225 38.496 31.751 60.458l0.213 0.589c7.972 21.656 12.006 44.441 12.006 67.7s-4.034 45.998-11.959 67.582l-0.282 0.802c-7.572 22.646-18.234 43.308-31.727 61.402-13.446 18.022-29.887 33.897-48.924 47.154-19.012 13.257-40.407 23.494-63.595 30.454-14.978 4.482-23.471 20.262-18.989 35.242s20.287 23.471 35.242 18.989c28.967-8.681 55.787-21.56 79.73-38.237 24.015-16.749 44.842-36.847 61.92-59.75 17.008-22.835 30.454-48.71 39.912-76.922 10.142-27.741 15.285-56.896 15.285-86.711 0-29.84-5.166-59.066-15.38-86.925-9.436-27.435-22.835-52.886-39.818-75.672-17.008-22.81-37.671-43.144-61.449-60.434l-0.449-0.331c-24.036-16.771-51.188-29.392-80.721-37.553-2.501-0.684-5.049-1.015-7.548-1.015zM311.382 250.306v0zM462.729-47.999c-11.44 0-22.198 6.981-26.491 18.305-5.544 14.625 1.839 30.949 16.464 36.492 46.045 17.433 88.269 41.351 125.468 71.145 37.364 29.887 69.517 64.564 95.63 103.083 26.16 38.592 46.706 81.287 61.072 126.861 14.294 45.409 21.537 93.365 21.537 142.57 0 47.886-6.935 94.544-20.593 138.725-13.729 44.299-33.33 86.052-58.288 124.1-24.887 37.931-55.859 72.678-92.020 103.249-35.406 29.816-75.507 54.443-119.124 73.126-14.365 6.157-21.018 22.81-14.86 37.175s22.81 21.042 37.175 14.86c48.735-20.9 93.6-48.453 133.325-81.901 40.36-34.11 74.965-72.96 102.847-115.469 27.859-42.483 49.726-89.048 65.010-138.396 15.355-49.607 23.116-101.927 23.116-155.474 0-54.963-8.139-108.651-24.155-159.578-16.039-50.833-38.968-98.461-68.196-141.603-29.274-43.239-65.317-82.114-107.117-115.562-41.847-33.472-89.212-60.363-140.802-79.872-3.279-1.226-6.675-1.839-10.003-1.839zM358.065 68.766c-11.842 0-22.906 7.502-26.844 19.367-4.929 14.838 3.067 30.854 17.903 35.807 34.652 11.535 66.969 28.448 96.077 50.268 28.565 21.278 53.311 46.47 73.598 74.941 20.358 28.565 36.562 60.341 48.168 94.472 10.851 33.85 16.347 69.777 16.347 106.834 0 36.917-5.827 72.795-17.291 106.645l-0.142 0.425c-10.945 34.063-26.797 65.765-47.107 94.262-20.215 28.354-45.197 53.475-74.235 74.659l-0.52 0.402c-28.543 21.843-60.577 39.11-95.203 51.258-14.743 5.189-22.504 21.348-17.337 36.091 5.189 14.743 21.324 22.504 36.091 17.337 40.171-14.105 77.396-34.133 110.608-59.539 33.825-24.721 63.006-54.112 86.689-87.327 23.658-33.19 42.107-70.059 54.821-109.593 13.423-39.629 20.215-81.57 20.215-124.595s-6.439-84.872-19.129-124.384l-0.142-0.425c-13.399-39.441-32.15-76.238-55.765-109.357-23.707-33.261-52.58-62.675-85.792-87.42-33.921-25.429-71.641-45.172-112.069-58.641-2.948-1.037-5.968-1.486-8.941-1.486zM593.834 334.73v0z" />
<glyph unicode="&#xe91b;" glyph-name="Home" data-tags="Home" d="M972.451 421.378c-7.33 0-14.655 2.908-20.062 8.678l-408.567 436.069c-8.474 9.045-19.786 14.016-31.831 14.016s-23.358-4.968-31.831-14.016l-408.588-436.069c-10.375-11.084-27.779-11.634-38.839-1.258-11.084 10.375-11.634 27.779-1.258 38.839l408.567 436.069c18.962 20.245 44.519 31.395 71.952 31.395s52.968-11.153 71.952-31.395l408.588-436.069c10.375-11.084 9.801-28.465-1.258-38.839-5.335-4.968-12.090-7.42-18.825-7.42zM728.47-39.104h-432.978c-90.708 0-164.493 66.801-164.493 148.92v238.028c0 15.184 12.298 27.481 27.481 27.481s27.481-12.298 27.481-27.481v-238.028c0-51.8 49.145-93.96 109.533-93.96h433.003c60.412 0 109.533 42.161 109.533 93.96v238.028c0 15.184 12.298 27.481 27.481 27.481s27.481-12.298 27.481-27.481v-238.028c0-82.12-73.809-148.92-164.516-148.92z" />
<glyph unicode="&#xe91c;" glyph-name="Home-Solid" data-tags="Home-Solid" d="M962.742 403.559c-12.093 0-24.14 4.8-33.062 14.333l-399.928 426.785c-4.778 5.096-11.073 7.903-17.732 7.903s-12.975-2.809-17.732-7.903l-399.928-426.806c-17.097-18.251-45.766-19.18-64.017-2.082s-19.18 45.766-2.082 64.017l399.905 426.806c21.76 23.234 52.332 36.549 83.831 36.549s62.069-13.315 83.831-36.549l399.905-426.806c17.097-18.251 16.169-46.92-2.082-64.017-8.696-8.175-19.814-12.227-30.911-12.227zM723.931-47.161h-423.819c-98.935 0-179.413 73.64-179.413 164.152v232.992c0 25.022 20.268 45.289 45.289 45.289s45.289-20.268 45.289-45.289v-232.968c0-40.578 39.855-73.572 88.835-73.572h423.819c48.981 0 88.835 33.017 88.835 73.572v232.968c0 25.022 20.268 45.289 45.289 45.289s45.289-20.268 45.289-45.289v-232.968c0-90.533-80.501-164.175-179.413-164.175z" />
<glyph unicode="&#xe91d;" glyph-name="Watch" data-tags="Watch" d="M512-40c-130.339 0-252.887 50.77-345.070 142.93s-142.93 214.731-142.93 345.070 50.77 252.887 142.93 345.070 214.731 142.93 345.070 142.93 252.887-50.77 345.070-142.93 142.93-214.708 142.93-345.070-50.77-252.887-142.93-345.070-214.731-142.93-345.070-142.93zM512 883.907c-240.366 0-435.907-195.541-435.907-435.907s195.541-435.907 435.907-435.907 435.907 195.541 435.907 435.907-195.541 435.907-435.907 435.907zM423.682 250.351c-10.441 0-20.882 2.757-30.388 8.248-19.036 10.983-30.388 30.669-30.388 52.635v273.53c0 21.966 11.352 41.652 30.388 52.635s41.76 10.983 60.776-0.022l236.848-136.831c19.012-10.983 30.388-30.669 30.366-52.635 0-21.966-11.375-41.652-30.388-52.635l-236.848-136.678c-9.506-5.491-19.947-8.248-30.366-8.248zM423.702 593.49c-1.865 0-3.407-0.65-4.361-1.215-1.627-0.935-4.342-3.146-4.342-7.51v-273.53c0-4.362 2.714-6.576 4.342-7.51s4.906-2.192 8.683 0l236.848 136.7c3.777 2.169 4.342 5.643 4.342 7.51s-0.565 5.338-4.342 7.51l-236.848 136.831c-1.562 0.911-3.019 1.215-4.319 1.215z" />
<glyph unicode="&#xe91e;" glyph-name="Watch-Solid" data-tags="Watch-Solid" d="M512.011-40c-130.346 0-252.897 50.765-345.055 142.923-92.18 92.18-142.945 214.731-142.945 345.077s50.765 252.897 142.945 345.055c92.159 92.18 214.708 142.945 345.055 142.945s252.897-50.765 345.055-142.923c92.159-92.18 142.923-214.708 142.923-345.055s-50.765-252.897-142.923-345.055c-92.159-92.202-214.708-142.964-345.055-142.964zM512.011 852.161c-222.841 0-404.161-181.3-404.161-404.161s181.321-404.161 404.161-404.161 404.161 181.321 404.161 404.161-181.321 404.161-404.161 404.161zM426.727 240.355c-12.954 0-25.927 3.416-37.728 10.227-23.622 13.643-37.728 38.063-37.728 65.353v264.132c0 27.29 14.106 51.706 37.728 65.353s51.832 13.625 75.454-0.021l228.711-132.129c23.622-13.643 37.707-38.084 37.707-65.353s-14.106-51.706-37.729-65.331l-228.711-132.003c-11.801-6.811-24.753-10.227-37.707-10.227zM435.109 565.541v-235.103l203.559 117.5-203.559 117.603z" />
<glyph unicode="&#xe91f;" glyph-name="Video" data-tags="Video" d="M418.566 251.812c-11.445 0-22.893 3.021-33.315 9.043-20.87 12.042-33.315 33.624-33.315 57.706v258.878c0 24.081 12.445 45.664 33.315 57.706s45.783 12.042 66.63-0.024l224.16-129.498c20.844-12.042 33.315-33.624 33.291-57.706 0-24.081-12.471-45.664-33.315-57.681l-224.16-129.38c-10.4-6.019-21.846-9.043-33.291-9.043zM418.589 587.030c-2.045 0-3.736-0.713-4.784-1.332-1.785-1.023-4.759-3.45-4.759-8.233v-258.878c0-4.784 2.974-7.21 4.759-8.233s5.378-2.404 9.519 0l224.16 129.38c4.141 2.38 4.759 6.189 4.759 8.233s-0.619 5.854-4.759 8.233l-224.16 129.498c-1.689 0.976-3.309 1.332-4.735 1.332zM852.488-39.999h-680.952c-81.358 0-147.535 66.177-147.535 147.535v680.927c0 81.358 66.177 147.535 147.535 147.535h680.927c81.358 0 147.535-66.177 147.535-147.535v-680.927c0.024-81.337-66.177-147.535-147.514-147.535zM171.536 878.889c-49.854 0-90.427-40.572-90.427-90.427v-680.927c0-49.854 40.572-90.427 90.427-90.427h680.927c49.854 0 90.427 40.572 90.427 90.427v680.927c0 49.854-40.572 90.427-90.427 90.427h-680.927z" />
<glyph unicode="&#xe920;" glyph-name="Video-Bold" data-tags="Video-Bold" d="M422.073 240.833c-14.154 0-28.332 3.733-41.224 11.177-25.812 14.91-41.224 41.591-41.224 71.41v249.158c0 29.819 15.413 56.502 41.224 71.41s56.639 14.887 82.449-0.023l215.744-124.637c25.812-14.91 41.204-41.615 41.204-71.41s-15.413-56.502-41.224-71.389l-215.744-124.524c-12.895-7.443-27.050-11.177-41.204-11.177zM431.234 556.709v-217.437l188.262 108.651-188.262 108.789zM839.706-39.999h-655.385c-88.406 0-160.32 71.914-160.32 160.32v655.361c0 88.406 71.914 160.32 160.32 160.32h655.361c88.406 0 160.32-71.914 160.32-160.32v-655.361c0.023-88.406-71.914-160.32-160.296-160.32zM184.32 844.39c-37.881 0-68.709-30.828-68.709-68.709v-655.361c0-37.881 30.828-68.709 68.709-68.709h655.361c37.881 0 68.709 30.828 68.709 68.709v655.361c0 37.881-30.828 68.709-68.709 68.709h-655.361z" />
<glyph unicode="&#xe921;" glyph-name="Arrow-Back-Bold" data-tags="Arrow Back-Bold" d="M705.19-32c-11.507 0-22.994 4.551-31.53 13.59l-375.197 397.454c-35 37.079-35 97.392 0 134.449l378.468 400.92c16.426 17.402 43.864 18.205 61.265 1.757 17.402-16.426 18.205-43.864 1.757-61.265l-378.468-400.92c-3.686-3.9-3.686-11.55 0-15.45l375.197-397.454c16.426-17.402 15.646-44.839-1.757-61.265-8.344-7.89-19.050-11.811-29.732-11.811z" />
<glyph unicode="&#xe922;" glyph-name="Arrow-down-Bold" data-tags="Arrow down-Bold" d="M513.726 208.234c-24.357 0-48.692 8.755-67.219 26.241l-400.89 378.44c-17.399 16.426-18.203 43.861-1.755 61.26 16.426 17.399 43.861 18.203 61.26 1.755l400.89-378.44c3.9-3.684 11.551-3.684 15.45 0l397.423 375.167c17.399 16.426 44.834 15.646 61.26-1.755s15.646-44.834-1.755-61.26l-397.423-375.167c-18.549-17.51-42.905-26.241-67.24-26.241z" />
<glyph unicode="&#xe923;" glyph-name="Program" data-tags="Program" horiz-adv-x="1008" d="M695.699 548.748l-197.972 114.371c-18.74 10.833-41.118 10.833-59.835 0.022-18.74-10.814-29.918-30.197-29.918-51.822v-228.658c0-21.628 11.177-41.008 29.918-51.822 9.36-5.405 19.64-8.119 29.918-8.119s20.537 2.691 29.918 8.1l197.972 114.265c18.74 10.814 29.918 30.175 29.918 51.8-0.022 21.67-11.197 41.031-29.918 51.864zM670.033 489.534l-197.972-114.265c-3.718-2.138-6.946-0.92-8.547 0s-4.274 3.119-4.274 7.393v228.639c0 4.295 2.672 6.476 4.274 7.393 0.939 0.534 2.457 1.196 4.295 1.196 1.283 0 2.736-0.321 4.254-1.196l197.972-114.371c3.718-2.138 4.274-5.557 4.274-7.393s-0.556-5.257-4.274-7.393zM851.615 930.694h-602.42c-61.739 0-113.731-42.442-128.368-99.691-54.986-9.509-96.956-57.529-96.956-115.207v-633.534c0-64.495 52.463-116.959 116.959-116.959h623.107c61.247 0 113.689 44.384 125.056 103.325 54.922 16.177 95.139 67.015 95.139 127.108v602.462c-0.022 73.064-59.452 132.494-132.516 132.494zM763.91 16.635h-623.107c-36.201 0-65.671 29.448-65.671 65.671v633.512c0 27.695 17.245 51.417 41.542 61.053v-581.092c0-73.064 59.43-132.494 132.494-132.494h584.855c-11.624-27.438-38.956-46.651-70.115-46.651zM932.82 195.78c0-44.771-36.435-81.206-81.206-81.206h-602.42c-44.771 0-81.206 36.435-81.206 81.206v602.42c0 44.771 36.435 81.206 81.206 81.206h602.44c44.771 0 81.206-36.435 81.206-81.206v-602.42z" />
<glyph unicode="&#xe924;" glyph-name="Program-Bold" data-tags="Program-Bold" d="M716.339 569.844l-192.77 111.367c-23.452 13.547-51.459 13.547-74.911 0.021-23.452-13.547-37.455-37.789-37.455-64.882v-222.629c0-27.071 14.004-51.334 37.455-64.882 11.737-6.763 24.595-10.154 37.455-10.154s25.719 3.391 37.455 10.154l192.77 111.262c23.452 13.547 37.455 37.789 37.455 64.86-0.021 27.071-14.004 51.334-37.455 64.882zM494.418 408.142v193.788l167.8-96.945-167.8-96.842zM859.854 944h-586.611c-69.937 0-128.493-49.545-142.476-115.383-63.383-8.886-112.304-63.446-112.304-129.221v-601.739c0-80.321 65.338-145.659 145.659-145.659h591.604c35.603 0 69.563 13.317 95.656 37.517 23.202 21.516 38.267 49.879 43.219 80.778 63.59 15.627 110.93 73.1 110.93 141.436v586.611c-0.021 80.321-65.379 145.659-145.678 145.659zM755.708 35.214h-591.604c-34.417 0-62.425 28.008-62.425 62.425v601.739c0 18.375 10.55 34.333 25.885 42.157v-529.803c0-80.321 65.338-145.659 145.659-145.659h533.341c-9.676-18.353-29.006-30.858-50.856-30.858zM922.281 211.732c0-34.417-28.008-62.425-62.425-62.425h-586.611c-34.417 0-62.425 28.008-62.425 62.425v586.611c0 34.417 28.008 62.425 62.425 62.425h586.611c34.417 0 62.425-28.008 62.425-62.425v-586.611z" />
<glyph unicode="&#xe925;" glyph-name="Streaming" data-tags="Streaming" d="M512.012 960c-260.547 0-472.534-211.987-472.534-472.534 0-117.867 43.896-230.969 123.599-318.439 5.881-6.452 13.92-9.727 22.010-9.727 7.146 0 14.342 2.555 20.050 7.766 6.452 5.881 9.727 13.92 9.727 22.010 0 7.172-2.555 14.342-7.766 20.050-69.702 76.502-108.065 175.336-108.065 278.339 0 227.718 185.262 412.98 412.98 412.98s412.955-185.262 412.955-412.98c0-97.618-34.566-192.458-97.321-267.098-4.69-5.583-6.973-12.383-6.997-19.132 0-8.486 3.599-16.923 10.62-22.804 12.58-10.57 31.365-8.958 41.961 3.623 71.762 85.36 111.291 193.822 111.291 305.435 0 260.523-211.987 472.508-472.508 472.508zM501.019 784.093c-78.562-3.374-151.366-37.37-204.889-95.584-53.897-57.941-81.713-133.648-78.288-213.227 2.034-46.924 14.292-91.092 36.402-131.316 7.916-14.417 26.030-19.678 40.446-11.737 14.417 7.916 19.678 26.030 11.737 40.446-17.668 32.135-27.444 67.519-29.083 105.187-2.73 63.524 19.43 123.921 62.506 170.224 42.904 46.65 101.043 73.822 163.574 76.526 130.671 4.839 241.539-97.172 246.924-227.545 2.159-46.6-9.578-92.358-33.896-132.358-8.536-14.045-4.070-32.358 9.975-40.919 4.839-2.928 10.174-4.342 15.435-4.342 10.049 0 19.875 5.086 25.484 14.318 30.497 50.174 45.186 107.593 42.506 165.906-6.75 162.854-145.186 290.497-308.835 284.419zM514.022 575.11c-38.114 0-69.107-30.993-69.107-69.107 0-27.444 16.079-51.216 39.33-62.357v-477.869c0-16.451 13.325-29.777 29.777-29.777s29.777 13.325 29.777 29.777v477.869c23.226 11.142 39.33 34.889 39.33 62.357 0 38.114-30.993 69.107-69.107 69.107z" />
<glyph unicode="&#xe926;" glyph-name="Listen" data-tags="Listen" horiz-adv-x="1008" d="M383.184 678.525v-463.365c0-13.745 11.133-24.878 24.878-24.878s24.878 11.133 24.878 24.878v463.365c0 13.745-11.133 24.878-24.878 24.878s-24.878-11.154-24.878-24.878zM479.143 600.474v-307.285c0-13.745 11.133-24.878 24.878-24.878s24.878 11.133 24.878 24.878v307.285c0 13.745-11.133 24.878-24.878 24.878s-24.878-11.133-24.878-24.878zM671.106 600.474v-307.285c0-13.745 11.133-24.878 24.878-24.878s24.878 11.133 24.878 24.878v307.285c0 13.745-11.133 24.878-24.878 24.878s-24.878-11.133-24.878-24.878zM575.125 532.813v-171.979c0-13.745 11.133-24.878 24.878-24.878s24.878 11.133 24.878 24.878v171.979c0 13.745-11.133 24.878-24.878 24.878s-24.878-11.133-24.878-24.878zM287.202 560.923v-228.178c0-13.745 11.133-24.878 24.878-24.878s24.878 11.133 24.878 24.878v228.178c0 13.745-11.133 24.878-24.878 24.878s-24.878-11.154-24.878-24.878zM57.072 542.411c13.331-3.338 26.845 4.766 30.184 18.097 25.934 103.548 86.53 187.567 175.274 243.003 81.076 50.644 181.182 74.359 281.912 66.773 97.827-7.36 189.101-44.237 256.994-103.819 75.583-66.316 121.046-159.148 131.471-268.457 0.331-3.545 0.664-8.354 0.994-14.325 0.207-3.919-1.742-6.531-2.902-7.731s-3.71-3.192-7.607-3.068l-106.575 3.379v27.902c0 13.745-11.133 24.878-24.878 24.878s-24.878-11.133-24.878-24.878v-114.658c0-13.745 11.133-24.878 24.878-24.878s24.878 11.133 24.878 24.878v36.961l105-3.317c0.621-0.021 1.265-0.021 1.886-0.021 16.066 0 31.593 6.51 42.872 18.035 11.712 11.983 17.932 28.463 17.018 45.191-0.352 6.656-0.745 12.168-1.141 16.376-11.65 122.166-62.895 226.293-148.203 301.128-75.976 66.668-177.576 107.859-286.080 116.027-111.239 8.374-222.022-17.972-312.011-74.193-99.879-62.4-168.061-156.825-197.166-273.102-3.358-13.331 4.748-26.845 18.078-30.184zM949.598 347.047c-13.268 3.523-26.907-4.374-30.433-17.664-27.134-102.223-88.499-184.936-177.432-239.186-81.388-49.65-181.391-72.454-281.6-64.18-97.123 8.002-187.629 45.173-254.84 104.667-74.816 66.212-119.843 158.649-130.208 267.319-0.331 3.545-0.664 8.354-0.994 14.325-0.207 3.919 1.742 6.531 2.902 7.731s3.691 3.214 7.607 3.068l106.616-3.379v-30.246c0-13.745 11.133-24.878 24.878-24.878s24.878 11.133 24.878 24.878v114.658c0 13.745-11.133 24.878-24.878 24.878s-24.878-11.133-24.878-24.878v-34.641l-105.041 3.317c-16.75 0.499-33.045-6.033-44.757-17.995-11.712-11.983-17.932-28.463-17.018-45.191 0.352-6.656 0.745-12.168 1.141-16.376 11.587-121.439 62.337-225.133 146.771-299.865 75.209-66.564 175.96-108.131 283.736-117.002 14.78-1.222 29.541-1.823 44.281-1.823 95.545 0 189.082 25.395 267.337 73.115 100.106 61.072 169.118 154.048 199.613 268.893 3.504 13.287-4.396 26.907-17.682 30.452z" />
<glyph unicode="&#xe927;" glyph-name="Listen-Bold" data-tags="Listen-Bold" d="M374.731 678.305v-462.92c0-22.885 18.536-41.421 41.421-41.421s41.421 18.536 41.421 41.421v462.92c0 22.885-18.536 41.421-41.421 41.421s-41.421-18.557-41.421-41.421zM512.021 641.753c-22.885 0-41.421-18.536-41.421-41.421v-306.991c0-22.885 18.536-41.421 41.421-41.421s41.421 18.536 41.421 41.421v306.991c0 22.864-18.536 41.421-41.421 41.421zM662.379 600.332v-306.991c0-22.885 18.536-41.421 41.421-41.421s41.421 18.536 41.421 41.421v306.991c0 22.885-18.536 41.421-41.421 41.421s-41.421-18.557-41.421-41.421zM566.49 532.731v-171.813c0-22.885 18.536-41.421 41.421-41.421s41.421 18.536 41.421 41.421v171.813c0 22.885-18.536 41.421-41.421 41.421s-41.421-18.536-41.421-41.421zM278.841 560.815v-227.939c0-22.885 18.536-41.421 41.421-41.421s41.421 18.536 41.421 41.421v227.939c0 22.885-18.536 41.421-41.421 41.421s-41.421-18.557-41.421-41.421zM61.464 526.249c22.182-5.55 44.694 7.932 50.243 30.113 24.832 99.203 82.862 179.684 167.796 232.745 78.038 48.752 174.505 71.575 271.639 64.244 94.171-7.082 181.92-42.477 247.075-99.658 72.28-63.416 115.771-152.407 125.795-257.307 0.186-1.865 0.351-4.123 0.538-6.752l-83.442 2.651v11.826c0 22.885-18.536 41.421-41.421 41.421s-41.421-18.536-41.421-41.421v-114.528c0-22.885 18.536-41.421 41.421-41.421s41.421 18.536 41.421 41.421v19.841l87.791-2.776c0.808-0.021 1.595-0.041 2.403-0.041 20.503 0 40.302 8.304 54.676 22.988 14.932 15.284 22.864 36.285 21.704 57.637-0.373 6.98-0.766 12.551-1.201 17.044-12.053 126.314-65.176 234.111-153.61 311.713-78.576 68.945-183.515 111.568-295.497 119.996-114.59 8.615-228.871-18.577-321.737-76.586-103.491-64.679-174.133-162.495-204.289-282.906-5.55-22.182 7.932-44.672 30.113-50.243zM961.437 363.155c-22.12 5.861-44.797-7.29-50.657-29.408-25.991-97.919-84.747-177.117-169.888-229.077-78.327-47.8-174.693-69.731-271.349-61.759-93.487 7.705-180.491 43.389-244.985 100.466-71.534 63.333-114.611 151.931-124.573 256.231-0.186 1.865-0.351 4.123-0.538 6.752l83.503-2.651v-14.166c0-22.885 18.536-41.421 41.421-41.421s41.421 18.536 41.421 41.421v114.528c0 22.885-18.536 41.421-41.421 41.421s-41.421-18.536-41.421-41.421v-17.501l-87.853 2.776c-21.373 0.704-42.145-7.683-57.078-22.947-14.954-15.284-22.864-36.285-21.704-57.637 0.373-6.98 0.766-12.551 1.201-17.044 11.969-125.567 64.576-232.91 152.119-310.407 77.789-68.863 181.879-111.836 293.094-120.991 15.202-1.243 30.403-1.865 45.562-1.865 98.498 0 194.969 26.199 275.718 75.469 103.718 63.27 175.23 159.595 206.814 278.535 5.882 22.139-7.29 44.819-29.389 50.699z" />
<glyph unicode="&#xe928;" glyph-name="Podcast" data-tags="Podcast" d="M511.999 248.399c107.075 0 194.16 87.106 194.16 194.16v315.283c0 107.054-87.106 194.16-194.16 194.16s-194.16-87.106-194.16-194.16v-315.283c0-107.054 87.084-194.16 194.16-194.16zM369.153 757.841c0 78.767 64.079 142.846 142.846 142.846s142.846-64.079 142.846-142.846v-315.283c0-78.767-64.079-142.846-142.846-142.846s-142.846 64.079-142.846 142.846v315.283zM858.369 475.186c0 14.175-11.482 25.657-25.657 25.657s-25.657-11.482-25.657-25.657c0-168.694-132.369-305.917-295.056-305.917s-295.056 137.244-295.056 305.917c0 14.175-11.482 25.657-25.657 25.657s-25.657-11.482-25.657-25.657c0-188.087 141.669-342.671 320.713-356.269v-123.603h-72.181c-14.175 0-25.657-11.482-25.657-25.657s11.482-25.657 25.657-25.657h195.699c14.175 0 25.657 11.482 25.657 25.657s-11.482 25.657-25.657 25.657h-72.181v123.603c179.022 13.598 320.692 168.182 320.692 356.269z" />
<glyph unicode="&#xe929;" glyph-name="Podcast-Bold" data-tags="Podcast-Bold" d="M512 241.729c110.889 0 201.083 90.213 201.083 201.083v300.108c0 110.889-90.213 201.083-201.083 201.083s-201.083-90.213-201.083-201.083v-300.087c0-110.889 90.192-201.101 201.083-201.101zM392.319 742.916c0 65.998 53.684 119.681 119.681 119.681s119.681-53.684 119.681-119.681v-300.087c0-65.998-53.684-119.681-119.681-119.681s-119.681 53.684-119.681 119.681v300.087zM857.956 473.865c0 22.486-18.214 40.702-40.702 40.702s-40.702-18.214-40.702-40.702c0-151.59-118.683-274.892-264.555-274.892s-264.555 123.324-264.555 274.892c0 22.486-18.214 40.702-40.702 40.702s-40.702-18.214-40.702-40.702c0-182.278 133.6-333.014 305.256-353.832v-86.632h-52.421c-22.486 0-40.702-18.214-40.702-40.702s18.214-40.702 40.702-40.702h186.267c22.486 0 40.702 18.214 40.702 40.702s-18.214 40.702-40.702 40.702h-52.443v86.632c171.655 20.818 305.256 171.553 305.256 353.832z" />
<glyph unicode="&#xe92a;" glyph-name="Audiobook" data-tags="Audiobook" d="M1006.45 195.463c0 0.023 0 0.044 0 0.089l-0.023 1.005c-0.023 2.077-0.044 4.133-0.135 6.186l-3.595 175.87c-0.067 138.771-50.925 269.298-143.238 367.575-92.803 98.813-216.319 153.223-347.785 153.223-131.49 0-255.005-54.409-347.785-153.223-92.335-98.322-143.192-228.872-143.238-367.664l-3.128-185.585c0-0.023 0-0.067 0-0.089 0-0.111 0-0.246 0-0.358 0-75.294 40.428-145.672 105.49-183.688 13.914-8.131 29.237-12.217 44.582-12.217 15.188 0 30.398 3.998 44.291 11.972 28.209 16.193 45.051 45.228 45.051 77.705v212.456c0 32.475-16.842 61.512-45.051 77.705-27.942 16.038-61.178 15.947-88.873-0.246-18.628-10.9-35.244-24.435-49.452-40.003l0.693 41.678v0.447c0 257.751 196.239 467.46 437.418 467.46s437.442-209.685 437.442-467.46l0.804-39.020c-14.093 15.3-30.533 28.656-48.938 39.401-27.695 16.193-60.93 16.282-88.873 0.246-28.209-16.193-45.051-45.228-45.051-77.705v-212.456c0-32.475 16.842-61.512 45.051-77.705 13.894-7.974 29.102-11.972 44.291-11.972 15.345 0 30.668 4.065 44.582 12.217 65.063 38.014 105.49 108.417 105.49 183.688 0 0.155-0.023 0.312-0.023 0.47zM150.042 329.9c6.186 3.619 12.128 4.87 17.376 4.87 8.086 0 14.539-2.97 17.779-4.824 11.347-6.521 18.138-18.182 18.138-31.226v-212.456c0-13.021-6.767-24.703-18.138-31.226-5.316-3.061-19.409-9.158-35.157 0.044-48.646 28.433-78.889 81.010-78.933 137.273l0.089 5.539c1.898 54.254 31.74 104.464 78.844 132.004zM873.936 57.586c-15.746-9.203-29.819-3.081-35.157-0.044-11.347 6.521-18.138 18.182-18.138 31.226v212.456c0 13.021 6.767 24.703 18.138 31.226 3.24 1.854 9.693 4.824 17.779 4.824 5.249 0 11.19-1.251 17.376-4.87 46.926-27.405 76.7-77.303 78.8-131.287l0.135-6.277c-0.067-56.241-30.287-108.841-78.933-137.253z" />
<glyph unicode="&#xe92b;" glyph-name="Audiobook-Bold" data-tags="Audiobook-Bold" d="M1006.524 204.587c0 0.043 0 0.085 0 0.107l-0.022 1.424c-0.022 1.897-0.043 3.794-0.107 5.691l-3.471 169.388c-0.107 138.28-50.858 268.388-142.934 366.415-92.877 98.869-216.56 153.328-348.284 153.328s-255.409-54.457-348.284-153.328c-92.1-98.049-142.849-228.2-142.934-366.502l-3.019-178.983c0-0.043 0-0.085 0-0.107 0-0.195 0-0.41 0-0.602 0-78.777 42.299-152.422 110.36-192.197 16.168-9.442 33.935-14.164 51.741-14.164 17.592 0 35.227 4.614 51.331 13.862 32.661 18.734 52.151 52.367 52.151 89.965v205.046c0 37.599-19.49 71.231-52.151 89.965-32.403 18.585-70.928 18.476-103.072-0.303-7.352-4.29-14.402-9.012-21.128-14.077v1.228c0 239.284 181.677 433.959 404.962 433.959 222.789 0 404.101-193.772 404.942-432.3-6.533 4.872-13.367 9.422-20.48 13.581-32.144 18.777-70.67 18.884-103.072 0.303-32.661-18.734-52.151-52.367-52.151-89.965v-205.046c0-37.599 19.49-71.231 52.151-89.965 16.106-9.25 33.739-13.862 51.331-13.862 17.806 0 35.573 4.722 51.741 14.164 68.083 39.776 110.36 113.422 110.36 192.197 0.064 0.258 0.043 0.518 0.043 0.775zM171.354 319.129c2.911 1.703 5.713 2.306 8.191 2.306 3.599 0 6.596-1.273 8.451-2.35 2.651-1.531 8.84-6.058 8.84-15.178v-205.069c0-9.12-6.188-13.647-8.84-15.178-3.147-1.811-9.485-4.205-16.644-0.043-41.674 24.34-67.566 69.378-67.63 117.561l0.085 4.872c1.616 46.503 27.186 89.49 67.544 113.077zM852.658 86.078c-7.158-4.182-13.496-1.768-16.644 0.043-2.651 1.531-8.84 6.058-8.84 15.178v205.069c0 9.12 6.188 13.647 8.84 15.178 1.853 1.078 4.85 2.35 8.451 2.35 2.479 0 5.283-0.602 8.191-2.306 40.165-23.477 65.691-66.186 67.521-112.386l0.107-5.583c-0.064-48.206-25.978-93.199-67.63-117.539z" />
<glyph unicode="&#xe92c;" glyph-name="Read" data-tags="Read" d="M787.925-48h-551.848c-76.073 0-137.951 61.878-137.951 137.951v716.098c0 76.073 61.878 137.951 137.951 137.951h551.848c76.073 0 137.951-61.878 137.951-137.951v-716.098c0-76.073-61.878-137.951-137.951-137.951zM236.077 890.599c-46.614 0-84.55-37.936-84.55-84.55v-716.098c0-46.614 37.936-84.55 84.55-84.55h551.848c46.614 0 84.55 37.936 84.55 84.55v716.098c0 46.614-37.936 84.55-84.55 84.55h-551.848zM575.102 631.297h-312.815c-14.751 0-26.699 11.948-26.699 26.699s11.948 26.699 26.699 26.699h312.815c14.751 0 26.699-11.948 26.699-26.699s-11.948-26.699-26.699-26.699zM699.458 475.968h-437.171c-14.751 0-26.699 11.948-26.699 26.699s11.948 26.699 26.699 26.699h437.171c14.751 0 26.699-11.948 26.699-26.699s-11.948-26.699-26.699-26.699zM702.174 330.319h-439.886c-14.751 0-26.699 11.948-26.699 26.699s11.948 26.699 26.699 26.699h439.886c14.751 0 26.699-11.948 26.699-26.699s-11.97-26.699-26.699-26.699z" />
<glyph unicode="&#xe92d;" glyph-name="Read-Bold" data-tags="Read-Bold" d="M778.366-48h-532.731c-82.911 0-150.355 67.444-150.355 150.355v691.289c0 82.911 67.444 150.355 150.355 150.355h532.731c82.911 0 150.355-67.444 150.355-150.355v-691.289c0-82.911-67.444-150.355-150.355-150.355zM245.636 858.083c-35.527 0-64.439-28.912-64.439-64.439v-691.289c0-35.527 28.912-64.439 64.439-64.439h532.731c35.527 0 64.439 28.912 64.439 64.439v691.289c0 35.527-28.912 64.439-64.439 64.439h-532.731zM572.915 607.762h-301.976c-23.734 0-42.958 19.225-42.958 42.958s19.225 42.958 42.958 42.958h301.976c23.734 0 42.958-19.225 42.958-42.958s-19.246-42.958-42.958-42.958zM692.964 457.816h-422.025c-23.734 0-42.958 19.225-42.958 42.958s19.225 42.958 42.958 42.958h422.025c23.734 0 42.958-19.225 42.958-42.958s-19.225-42.958-42.958-42.958zM695.585 317.211h-424.647c-23.734 0-42.958 19.225-42.958 42.958s19.225 42.958 42.958 42.958h424.647c23.734 0 42.958-19.225 42.958-42.958s-19.246-42.958-42.958-42.958z" />
<glyph unicode="&#xe92e;" glyph-name="Ebook" data-tags="Ebook" d="M789.781 944h-555.56c-75.018 0-136.038-61.020-136.038-136.038v-719.924c0-75.018 61.020-136.038 136.038-136.038h555.56c75.018 0 136.038 61.020 136.038 136.038v719.924c0 74.996-61.040 136.038-136.038 136.038zM150.841 88.015v719.947c0 45.969 37.411 83.378 83.378 83.378h6.362v-886.681h-6.362c-45.969-0.022-83.378 37.389-83.378 83.357zM873.159 88.015c0-45.969-37.411-83.378-83.378-83.378h-496.537v886.702h447.213v-348.234c0-14.546 11.783-26.329 26.329-26.329s26.329 11.783 26.329 26.329v348.147c44.431-1.777 80.021-38.442 80.021-83.291v-719.947z" />
<glyph unicode="&#xe92f;" glyph-name="Ebook-Bold" data-tags="Ebook-Bold" d="M784.941 944.001h-545.88c-78.458 0-142.297-63.838-142.297-142.297v-707.407c0-78.458 63.838-142.297 142.297-142.297h545.88c78.458 0 142.297 63.838 142.297 142.297v707.407c0 78.458-63.838 142.297-142.297 142.297zM165.758 94.274v707.43c0 39.627 31.607 71.99 70.933 73.241v-853.908c-39.327 1.271-70.933 33.635-70.933 73.241zM858.244 94.274c0-40.425-32.88-73.305-73.305-73.305h-479.281v854.037h422.189v-333.556c0-19.060 15.437-34.497 34.497-34.497s34.497 15.437 34.497 34.497v332.564c34.776-5.714 61.382-35.963 61.382-72.313v-707.43z" />
<glyph unicode="&#xe930;" glyph-name="Narrated-bible" data-tags="Narrated bible" d="M789.791 944h-555.56c-75.018 0-136.038-61.020-136.038-136.038v-719.924c0-75.018 61.020-136.038 136.038-136.038h555.539c75.018 0 136.038 61.020 136.038 136.038v719.924c0.022 75.018-61.020 136.038-136.016 136.038zM150.853 88.038v719.924c0 45.969 37.411 83.378 83.378 83.378h6.362v-886.681h-6.362c-45.969 0-83.378 37.389-83.378 83.378zM873.171 88.038c0-45.969-37.411-83.378-83.378-83.378h-496.537v886.681h496.516c45.969 0 83.378-37.411 83.378-83.378v-719.924zM701.127 501.154l-170.924 98.736c-19.244 11.125-42.216 11.125-61.436 0.022-19.244-11.103-30.719-31.003-30.719-53.209v-197.386c0-22.205 11.476-42.106 30.719-53.209 9.61-5.55 20.165-8.338 30.719-8.338s21.086 2.763 30.719 8.316l170.924 98.649c19.244 11.103 30.719 30.981 30.719 53.209s-11.476 42.084-30.719 53.209zM674.776 440.353l-170.924-98.649c-3.818-2.195-7.131-0.944-8.776 0s-4.388 3.203-4.388 7.593v197.386c0 4.41 2.743 6.648 4.388 7.593 0.964 0.548 2.522 1.228 4.41 1.228 1.317 0 2.809-0.33 4.368-1.228l170.924-98.736c3.818-2.195 4.388-5.705 4.388-7.593s-0.57-5.398-4.388-7.593z" />
<glyph unicode="&#xe931;" glyph-name="Narrated-bible-Bold" data-tags="Narrated bible-Bold" d="M780.275 944.001h-536.55c-81.801 0-148.34-66.542-148.34-148.34v-695.317c0-81.801 66.542-148.34 148.34-148.34h536.55c81.801 0 148.34 66.542 148.34 148.34v695.317c0 81.801-66.542 148.34-148.34 148.34zM180.149 100.34v695.317c0 31.363 22.845 57.493 52.767 62.643v-820.602c-29.943 5.15-52.767 31.258-52.767 62.643zM843.85 100.34c0-35.052-28.524-63.576-63.576-63.576h-462.612v822.466h462.592c35.052 0 63.576-28.524 63.576-63.576v-695.317zM703.137 514l-165.082 95.362c-23.883 13.795-52.407 13.795-76.291 0.021-23.883-13.795-38.145-38.484-38.145-66.075v-190.639c0-27.569 14.262-52.28 38.145-66.075 11.952-6.887 25.048-10.341 38.145-10.341s26.193 3.453 38.145 10.341l165.082 95.277c23.883 13.795 38.145 38.484 38.145 66.055-0.021 27.592-14.284 52.28-38.145 66.075zM508.366 367.356v161.269l139.653-80.677-139.653-80.591z" />
<glyph unicode="&#xe932;" glyph-name="Bible" data-tags="Bible" d="M787.924 944h-551.848c-76.073 0-137.951-61.878-137.951-137.951v-716.098c0-76.073 61.878-137.951 137.951-137.951h551.848c76.073 0 137.951 61.878 137.951 137.951v716.098c0 76.051-61.878 137.951-137.951 137.951zM151.526 89.927v716.122c0 46.614 37.936 84.55 84.55 84.55h4.339v-885.2h-4.339c-46.614-0.022-84.55 37.913-84.55 84.53zM872.474 89.927c0-46.614-37.936-84.55-84.55-84.55h-494.109v885.222h494.109c46.614 0 84.55-37.936 84.55-84.55v-716.122zM682.346 569.731h-79.766v78.898c0 14.751-11.948 26.699-26.699 26.699s-26.699-11.948-26.699-26.699v-78.898h-79.766c-14.751 0-26.699-11.948-26.699-26.699s11.948-26.699 26.699-26.699h79.766v-226.729c0-14.751 11.948-26.699 26.699-26.699s26.699 11.948 26.699 26.699v226.729h79.766c14.751 0 26.699 11.948 26.699 26.699s-11.948 26.699-26.699 26.699z" />
<glyph unicode="&#xe933;" glyph-name="Bible-Bold" data-tags="Bible-Bold" d="M778.365 943.999h-532.732c-82.911 0-150.355-67.444-150.355-150.355v-691.29c0-82.911 67.444-150.355 150.355-150.355h532.732c82.911 0 150.355 67.444 150.355 150.355v691.29c0 82.911-67.444 150.355-150.355 150.355zM181.198 102.354v691.29c0 31.082 22.123 57.092 51.443 63.128v-817.524c-29.319 6.014-51.443 32.025-51.443 63.106zM842.802 102.354c0-35.527-28.912-64.439-64.439-64.439h-459.808v820.167h459.808c35.527 0 64.439-28.912 64.439-64.439v-691.29zM676.446 582.695h-59.82v58.983c0 23.734-19.225 42.958-42.958 42.958s-42.958-19.225-42.958-42.958v-58.983h-59.82c-23.734 0-42.958-19.225-42.958-42.958s19.225-42.958 42.958-42.958h59.82v-201.691c0-23.734 19.225-42.958 42.958-42.958s42.958 19.225 42.958 42.958v201.691h59.82c23.734 0 42.958 19.225 42.958 42.958s-19.225 42.958-42.958 42.958z" />
<glyph unicode="&#xe934;" glyph-name="Article" data-tags="Article" d="M900.935 710.363l-208.832 208.832c-16.002 16.002-37.26 24.804-59.902 24.804h-449.236c-46.711 0-84.705-37.994-84.705-84.705v-822.59c0-46.711 37.994-84.705 84.705-84.705h658.068c46.711 0 84.705 37.994 84.705 84.705v613.78c0.022 22.619-8.801 43.898-24.804 59.879zM837.379 700.547h-124.43c-18.1 0-32.805 14.726-32.805 32.805v124.43l157.235-157.235zM841.056 3.899h-658.090c-18.1 0-32.805 14.726-32.805 32.805v822.612c0 18.1 14.726 32.805 32.805 32.805h445.256v-158.75c0-46.711 37.994-84.705 84.705-84.705h160.932v-611.965c0-18.077-14.726-32.805-32.805-32.805z" />
<glyph unicode="&#xe935;" glyph-name="Article-Bold" data-tags="Article-Bold" d="M899.647 713.333l-201.788 201.788c-18.619 18.619-43.378 28.877-69.708 28.877h-434.088c-54.348 0-98.564-44.216-98.564-98.564v-794.87c0-54.348 44.216-98.564 98.564-98.564h635.876c54.348 0 98.564 44.216 98.564 98.564v593.060c0.021 26.349-10.239 51.090-28.858 69.708zM783.948 710.826h-79.885c-8.254 0-14.981 6.728-14.981 14.981v79.885l94.866-94.866zM829.961 35.583h-635.897c-8.254 0-14.981 6.728-14.981 14.981v794.87c0 8.254 6.728 14.981 14.981 14.981h411.435v-134.589c0-54.348 44.216-98.564 98.564-98.564h140.858v-576.699c0.021-8.254-6.708-14.981-14.962-14.981z" />
<glyph unicode="&#xe936;" glyph-name="Pray" data-tags="Pray" d="M844.134 141.395l-83.544 125.316 4.519 81.23c2.97 53.345 6.332 96.603 10.634 136.147 9.346 86.187-23.124 151.519-29.195 162.808l-103.786 249.060c-7.751 18.625-21.268 34.456-38.038 44.568-32.885 19.848-65.813 13.691-88.086-16.442-1.681-2.271-3.232-4.607-4.673-7.009-1.441 2.402-3.013 4.738-4.673 6.988-22.273 30.133-55.201 36.291-88.086 16.442-16.771-10.132-30.286-25.94-38.038-44.568l-103.764-249.060c-6.049-11.289-38.519-76.622-29.195-162.808 4.28-39.544 7.664-82.802 10.634-136.147l4.519-81.23-83.544-125.316c-11.703-16.355-16.333-36.269-13.058-56.14 3.319-20.067 14.28-37.558 30.898-49.283l110.511-78.020c13.276-9.367 28.496-13.931 43.563-13.931 21.398 0 42.515 9.193 57.427 26.814l102.847 135.601 102.847-135.601c14.914-17.621 36.029-26.814 57.427-26.814 15.067 0 30.286 4.564 43.563 13.931l110.511 78.020c16.617 11.726 27.578 29.239 30.898 49.283 3.232 19.892-1.419 39.807-13.123 56.163zM502.665 573.811c0.786 2.183 1.288 4.499 1.463 6.922l7.817 104.615 7.817-104.615c0.175-2.424 0.677-4.738 1.463-6.922-3.319-2.228-6.398-4.738-9.281-7.447-2.882 2.708-5.961 5.197-9.281 7.447zM484.978 157.641l-116.255-153.353c-7.795-8.778-20.765-10.307-30.396-3.494l-110.511 78.020c-5.066 3.581-8.407 8.91-9.412 15.023s0.437 12.228 4.083 17.25l94.113 141.125-5.48 98.676c-3.013 54.263-6.463 98.392-10.853 138.877-8.167 75.378 23.233 132.326 23.495 132.805l0.808 1.419 104.943 251.811c3.494 8.407 9.455 15.46 16.748 19.848 4.411 2.665 7.49 3.865 9.979 3.865 3.515 0 5.83-2.424 8.887-6.594 5.721-7.751 8.451-17.665 7.686-27.972l-20.744-277.709c-16.377-0.677-40.397-4.935-59.874-21.835-13.167-11.42-28.888-33.060-28.888-71.207v-165.931c0-14.477 11.726-26.203 26.203-26.203s26.203 11.726 26.203 26.203v165.931c0 14.87 3.494 25.176 10.656 31.487 10.765 9.477 29.347 9.738 36.269 8.996 18.189-4.083 22.338-19.848 23.147-31.356-0.175-3.843-0.24-7.795-0.065-11.835 0.022-0.306 0.022-0.567 0.022-0.873-0.502-13.8-0.742-25.373-0.742-36.138v-296.836zM805.506 93.815c-1.004-6.114-4.346-11.442-9.412-15.023l-110.511-78.020c-9.63-6.813-22.6-5.284-30.396 3.494l-116.255 153.353v296.88c0 10.765-0.24 22.338-0.742 36.138 0.022 0.306 0.022 0.567 0.022 0.873 0.153 4.062 0.108 7.992-0.065 11.835 0.786 11.507 4.935 27.251 23.080 31.335 7.184 0.742 25.613 0.437 36.313-8.996 7.184-6.311 10.656-16.617 10.656-31.487v-165.931c0-14.477 11.726-26.203 26.203-26.203s26.203 11.726 26.203 26.203v165.931c0 38.169-15.7 59.786-28.888 71.207-19.478 16.902-43.497 21.159-59.874 21.835l-20.744 277.709c-0.765 10.285 1.965 20.219 7.686 27.972 5.241 7.076 8.21 9.149 18.867 2.73 7.293-4.411 13.233-11.464 16.748-19.848l104.943-251.833 0.742-1.332c0.328-0.567 31.706-57.515 23.538-132.893-4.388-40.483-7.839-84.614-10.853-138.877l-5.48-98.676 94.113-141.125c3.646-5.022 5.109-11.158 4.105-17.25z" />
<glyph unicode="&#xe937;" glyph-name="Pray-Bold" data-tags="Pray-Bold" d="M847.028 161.318l-77.513 116.227 4.053 72.911c2.85 51.252 6.101 92.795 10.196 130.729 9.309 85.83-22.164 152.006-29.701 166.36l-100.036 240.095c-8.992 21.594-24.086 39.263-43.632 51.062-34.661 20.919-71.982 16.783-98.411-9.773-26.428 26.555-63.75 30.693-98.411 9.773-19.547-11.8-34.64-29.448-43.632-51.042l-100.036-240.116c-7.535-14.354-38.989-80.531-29.701-166.36 4.117-37.934 7.346-79.475 10.196-130.729l4.053-72.911-77.491-116.227c-13.806-19.441-19.272-43.042-15.389-66.599 3.947-23.895 17.014-44.73 36.794-58.683l106.855-75.423c15.832-11.167 33.922-16.592 51.865-16.592 25.479 0 50.62 10.955 68.393 31.938l86.527 114.052 85.133-112.3 1.415-1.773c17.774-21.004 42.915-31.938 68.393-31.938 17.943 0 36.055 5.425 51.865 16.592l106.833 75.423c19.779 13.953 32.846 34.809 36.794 58.683 3.863 23.558-1.604 47.179-15.409 66.621zM469.027 173.097l-108.438-143.035c-1.815-1.752-4.623-1.985-6.713-0.485l-106.855 75.423c-1.203 0.845-1.942 2.027-2.173 3.462-0.232 1.457 0.085 2.786 0.95 3.99l94.505 141.662-5.615 101.027c-2.934 52.772-6.29 95.708-10.554 135.14-7.092 65.438 19.145 115.51 20.644 118.295l1.14 1.922 101.957 244.675c1.646 3.947 4.159 7.346 7.219 9.773 1.773-3.674 2.554-7.978 2.216-12.497l-18.998-254.427c-16.613-2.618-36.286-9.014-53.174-23.663-15.389-13.34-33.733-38.335-33.733-81.608v-160.409c0-23.325 18.893-42.218 42.218-42.218s42.218 18.893 42.218 42.218v160.409c0 4.117 0.443 14.080 4.538 17.732 4.644 4.137 15.473 5.045 21.363 4.665 3.99-1.055 4.644-2.512 5.574-4.602 1.245-2.786 2.068-6.671 2.407-10.997-0.085-3.293-0.127-6.629 0.021-10.048 0-0.063 0-0.127 0-0.19-0.485-13.277-0.697-24.486-0.697-34.935v-281.278zM779.099 108.461c-0.232-1.457-0.971-2.618-2.173-3.462l-106.833-75.423c-2.111-1.479-4.897-1.245-6.713 0.485l-108.438 143.035v281.299c0 10.449-0.232 21.657-0.697 34.935 0 0.063 0 0.127 0 0.212 0.127 3.42 0.105 6.756 0.021 10.048 0.338 4.327 1.182 8.212 2.407 10.997 0.928 2.090 1.583 3.547 5.574 4.602 5.868 0.38 16.719-0.528 21.363-4.665 4.095-3.652 4.538-13.616 4.538-17.732v-160.409c0-23.325 18.893-42.218 42.218-42.218s42.218 18.893 42.218 42.218v160.409c0 43.253-18.344 68.246-33.733 81.608-16.866 14.629-36.54 21.046-53.174 23.663l-18.998 254.427c-0.338 4.496 0.443 8.824 2.216 12.497 3.061-2.427 5.574-5.805 7.219-9.773l100.838-241.995 0.845-2.216 1.415-2.385c1.479-2.743 27.758-52.835 20.666-118.316-4.264-39.432-7.62-82.368-10.554-135.14l-5.615-101.027 94.505-141.662c0.824-1.225 1.14-2.554 0.886-4.010z" />
<glyph unicode="&#xe938;" glyph-name="Group" data-tags="Group" d="M890.54 341.713c36.007 22.745 59.987 62.873 59.987 108.52 0 70.752-57.558 128.31-128.31 128.31s-128.31-57.558-128.31-128.31c0-41.045 19.377-77.6 49.45-101.101-6.963-2.291-13.834-4.97-20.522-8.017-31.081 35.159-70.774 62.528-115.781 78.723 55.177 32.593 92.282 92.649 92.282 161.246 0 103.207-83.968 187.197-187.197 187.197s-187.197-83.968-187.197-187.197c0-68.6 37.105-128.654 92.282-161.246-45.030-16.193-84.746-43.586-115.827-78.769-6.734 3.068-13.629 5.772-20.66 8.085 30.073 23.499 49.45 60.078 49.45 101.101 0 70.752-57.558 128.31-128.31 128.31s-128.31-57.558-128.31-128.31c0-45.649 23.981-85.777 59.987-108.52-71.279-31.906-121.072-103.505-121.072-186.511 0-15.186 12.3-27.485 27.485-27.485s27.485 12.3 27.485 27.485c0 82.296 66.95 149.245 149.245 149.245 17.751 0 35.251-3.16 51.695-9.23-23.798-41.251-37.425-89.075-37.425-140.038 0-15.186 12.3-27.485 27.485-27.485s27.485 12.3 27.485 27.485c0 124.715 101.466 226.159 226.159 226.159s226.159-101.466 226.159-226.159c0-15.186 12.3-27.485 27.485-27.485s27.485 12.3 27.485 27.485c0 50.962-13.629 98.81-37.449 140.084 16.4 6.024 33.852 9.162 51.535 9.162 82.296 0 149.245-66.95 149.245-149.245 0-15.186 12.3-27.485 27.485-27.485s27.485 12.3 27.485 27.485c0.092 83.028-49.703 154.604-120.98 186.511zM201.919 523.573c40.426 0 73.34-32.89 73.34-73.34s-32.89-73.34-73.34-73.34c-40.426 0-73.34 32.89-73.34 73.34s32.89 73.34 73.34 73.34zM512.16 713.314c72.905 0 132.227-59.322 132.227-132.227s-59.322-132.227-132.227-132.227-132.227 59.322-132.227 132.227 59.322 132.227 132.227 132.227zM822.216 523.573c40.426 0 73.34-32.89 73.34-73.34s-32.89-73.34-73.34-73.34-73.34 32.89-73.34 73.34 32.914 73.34 73.34 73.34z" />
<glyph unicode="&#xe939;" glyph-name="Group-Bold" data-tags="Group-Bold" d="M924.914 351.474c25.89 24.948 42.036 59.94 42.036 98.635 0 75.593-61.503 137.096-137.096 137.096s-137.096-61.503-137.096-137.096c0-33.749 12.27-64.65 32.571-88.57-0.728-0.343-1.457-0.707-2.184-1.071-23.877 26.768-52.808 48.91-85.294 64.95 41.887 35.27 68.569 88.078 68.569 147.010 0 105.959-86.193 192.152-192.152 192.152s-192.152-86.193-192.152-192.152c0-58.933 26.661-111.719 68.569-147.010-33.107-16.361-62.531-39.061-86.686-66.514-1.735 0.899-3.49 1.778-5.268 2.634 20.28 23.899 32.571 54.821 32.571 88.57 0 75.593-61.503 137.096-137.096 137.096s-137.096-61.503-137.096-137.096c0-38.696 16.147-73.688 42.036-98.635-59.425-36.683-99.149-102.404-99.149-177.226 0-23.663 19.166-42.829 42.829-42.829s42.829 19.166 42.829 42.829c0 67.499 54.907 122.406 122.406 122.406 17.174 0 34.071-3.598 49.574-10.472-15.033-34.306-23.384-72.167-23.384-111.934 0-23.663 19.166-42.829 42.829-42.829s42.829 19.166 42.829 42.829c0 107.158 87.178 194.316 194.316 194.316s194.316-87.178 194.316-194.316c0-23.663 19.166-42.829 42.829-42.829s42.829 19.166 42.829 42.829c0 40.387-8.609 78.805-24.070 113.54 14.476 5.825 30.023 8.887 45.806 8.887 67.499 0 122.406-54.907 122.406-122.406 0-23.663 19.166-42.829 42.829-42.829s42.829 19.166 42.829 42.829c0.064 74.801-39.638 140.522-99.085 177.205zM194.209 501.547c28.353 0 51.438-23.063 51.438-51.438s-23.063-51.438-51.438-51.438-51.438 23.063-51.438 51.438 23.084 51.438 51.438 51.438zM514.27 678.923c58.718 0 106.494-47.776 106.494-106.494s-47.776-106.494-106.494-106.494-106.494 47.776-106.494 106.494 47.776 106.494 106.494 106.494zM829.856 501.547c28.353 0 51.438-23.063 51.438-51.438s-23.063-51.438-51.438-51.438-51.438 23.063-51.438 51.438 23.084 51.438 51.438 51.438z" />
<glyph unicode="&#xe93a;" glyph-name="Person" data-tags="Person" d="M622.789 399.592c101.419 43.216 172.695 143.9 172.695 260.927 0 156.304-127.179 283.484-283.484 283.484s-283.484-127.179-283.484-283.484c0-117.026 71.273-217.713 172.695-260.927-185.527-49.073-322.688-218.376-322.688-419.129 0-15.724 12.738-28.462 28.462-28.462s28.462 12.738 28.462 28.462c0 207.631 168.922 376.555 376.555 376.555s376.555-168.922 376.555-376.555c0-15.724 12.738-28.462 28.462-28.462s28.462 12.738 28.462 28.462c0 200.753-137.165 370.055-322.688 419.129zM285.441 660.518c0 124.925 101.634 226.559 226.559 226.559s226.559-101.634 226.559-226.559-101.634-226.559-226.559-226.559-226.559 101.634-226.559 226.559z" />
<glyph unicode="&#xe93b;" glyph-name="Person-Bold" data-tags="Person-Bold" d="M665.835 405.418c82.469 51.491 137.479 143.074 137.479 247.27 0 160.619-130.67 291.312-291.312 291.312-160.619 0-291.312-130.67-291.312-291.312 0-104.193 54.986-195.755 137.479-247.27-164.594-62.32-281.946-221.569-281.946-407.729 0-25.243 20.446-45.689 45.689-45.689s45.689 20.446 45.689 45.689c0 189.906 154.497 344.403 344.403 344.403s344.403-154.474 344.403-344.403c0-25.243 20.446-45.689 45.689-45.689s45.689 20.446 45.689 45.689c0 186.183-117.352 345.409-281.946 407.729zM511.999 852.622c110.247 0 199.935-89.686 199.935-199.935s-89.686-199.935-199.935-199.935-199.935 89.686-199.935 199.935 89.686 199.935 199.935 199.935z" />
<glyph unicode="&#xe93c;" glyph-name="Events" data-tags="Events" d="M855.619 871.804h-106.166v35.574c0 15.437-12.503 27.937-27.937 27.937s-27.937-12.503-27.937-27.937v-35.574h-363.152v35.574c0 15.437-12.503 27.937-27.937 27.937s-27.937-12.503-27.937-27.937v-35.574h-106.166c-79.6 0-144.348-64.747-144.348-144.348v-622.421c0-79.6 64.747-144.348 144.348-144.348h687.239c79.6 0 144.348 64.747 144.348 144.348v622.421c0 79.6-64.747 144.348-144.348 144.348zM168.381 815.926h106.166v-72.522c0-15.437 12.503-27.937 27.937-27.937s27.937 12.503 27.937 27.937v72.522h363.131v-72.522c0-15.437 12.503-27.937 27.937-27.937s27.937 12.503 27.937 27.937v72.522h106.166c48.775 0 88.473-39.694 88.473-88.473v-74.27h-864.16v74.27c0 48.799 39.694 88.473 88.473 88.473zM855.619 16.584h-687.239c-48.775 0-88.473 39.694-88.473 88.473v492.276h864.182v-492.276c0-48.799-39.694-88.473-88.473-88.473z" />
<glyph unicode="&#xe93d;" glyph-name="Events-Bold" data-tags="Events-Bold" d="M849.186 873.004h-95.040v25.77c0 20.194-16.357 36.554-36.554 36.554s-36.554-16.357-36.554-36.554v-25.77h-338.075v25.77c0 20.194-16.357 36.554-36.554 36.554s-36.554-16.357-36.554-36.554v-25.77h-95.040c-83.136 0-150.785-67.647-150.785-150.785v-610.766c0-83.136 67.647-150.785 150.785-150.785h674.371c83.136 0 150.785 67.647 150.785 150.785v610.766c0 83.16-67.647 150.785-150.785 150.785zM174.816 799.896h95.040v-62.027c0-20.194 16.357-36.554 36.554-36.554s36.554 16.357 36.554 36.554v62.027h338.054v-62.027c0-20.194 16.357-36.554 36.554-36.554s36.554 16.357 36.554 36.554v62.027h95.040c42.837 0 77.677-34.84 77.677-77.677v-63.741h-829.7v63.741c0 42.837 34.84 77.677 77.677 77.677zM849.186 33.8h-674.371c-42.837 0-77.677 34.84-77.677 77.677v473.917h829.722v-473.917c0-42.837-34.84-77.677-77.677-77.677z" />
<glyph unicode="&#xe93e;" glyph-name="Ministry" data-tags="Ministry" d="M512.001 545.929c-60.868 0-110.398-49.551-110.398-110.464s49.53-110.464 110.398-110.464 110.398 49.551 110.398 110.464-49.53 110.464-110.398 110.464zM512.001 377.458c-31.964 0-57.961 26.021-57.961 58.028s26 58.028 57.961 58.028 57.961-26.021 57.961-58.028-26-58.028-57.961-58.028zM952.959 517.789l-209.303 78.631v222.74c0 27.266-14.332 52.435-38.366 67.291-26.13 16.168-58.225 17.631-85.841 3.868l-293.811-146.426c-27.943-13.918-45.312-41.205-45.312-71.159v-85.316l-206.595-70.044c-33.623-11.382-56.214-41.817-56.214-75.703v-364.993c0-44.33 38.016-80.378 84.748-80.378h344.127v179.437c0 36.18 29.43 65.609 65.609 65.609s65.609-29.43 65.609-65.609v-179.437h344.127c46.733 0 84.748 36.070 84.748 80.378v366.368c-0.022 33.186-21.019 62.53-53.528 74.741zM102.286 48.734c-17.828 0-32.314 12.541-32.314 27.943v364.993c0 11.405 8.28 21.87 20.603 26.043l189.771 64.321v-483.298h-178.060zM630.045 48.734v127.003c0 65.085-52.96 118.044-118.044 118.044s-118.044-52.96-118.044-118.044v-127.003h-61.195v623.999c0 9.941 6.227 19.225 16.255 24.229l293.856 146.426c13.218 6.598 26.677 3.539 34.848-1.53 4.063-2.513 13.523-9.766 13.523-22.7v-770.425h-61.195zM954.029 76.699c0-15.425-14.507-27.943-32.314-27.943h-178.060v491.667l190.864-71.705c11.864-4.457 19.51-14.529 19.51-25.651v-366.368z" />
<glyph unicode="&#xe93f;" glyph-name="Ministry-Bold" data-tags="Ministry-Bold" d="M511.96 552.807c-64.56 0-117.074-52.537-117.074-117.14s52.514-117.14 117.074-117.14 117.074 52.537 117.074 117.14-52.514 117.14-117.074 117.14zM511.96 387.253c-26.666 0-48.371 21.728-48.371 48.437s21.705 48.437 48.371 48.437 48.371-21.728 48.371-48.437-21.705-48.437-48.371-48.437zM948.313 524.596l-200.099 75.188v212.938c0 29.8-15.609 57.239-41.76 73.428-28.233 17.477-62.885 19.043-92.684 4.187l-288.749-143.891c-30.401-15.158-49.274-44.893-49.274-77.614v-77.679l-197.2-66.835c-36.519-12.388-61.059-45.538-61.059-82.53v-358.674c0-48.286 41.222-87.576 91.87-87.576h346.758v184.918c0 30.809 25.078 55.886 55.886 55.886s55.886-25.078 55.886-55.886v-184.918h346.758c50.648 0 91.87 39.289 91.87 87.576v360.006c-0.064 36.24-22.886 68.21-58.205 81.478zM109.336 64.22c-12.56 0-23.165 8.652-23.165 18.871v358.674c0 7.514 5.797 14.535 14.406 17.454l175.15 59.363v-454.364h-166.391zM636.548 64.22v116.215c0 68.703-55.886 124.588-124.588 124.588s-124.588-55.886-124.588-124.588v-116.215h-42.96v604.589c0 6.505 4.294 12.667 11.228 16.123l288.749 143.891c9.833 4.894 19.817 2.64 25.892-1.116 3.435-2.125 9.232-6.914 9.232-15.009v-748.502h-42.96zM937.747 83.091c0-10.241-10.605-18.871-23.165-18.871h-166.391v462.18l175.945-66.105c8.266-3.114 13.611-9.855 13.611-17.175v-360.026z" />
<glyph unicode="&#xe940;" glyph-name="Highlighted" data-tags="Highlighted" d="M983.32 751.253l-144.79 144.923c-31.078 31.122-80.886 32.252-113.336 2.571l-504.042-460.596c-2.992-2.748-5.763-5.697-8.292-8.801-3.369-1.285-6.539-3.28-9.266-6.007-7.094-7.094-9.356-17.201-6.739-26.223-1.020-4.146-1.729-8.402-2.084-12.723l-9.62-115.642-45.243-51.758c-17.688-20.237-23.674-47.037-18.266-71.73l-91.48-91.57c-13.101-13.123-16.979-32.651-9.887-49.786s23.674-28.195 42.205-28.195h116.218c12.213 0 23.697 4.765 32.32 13.388l33.184 33.206c6.007-1.352 12.147-2.062 18.309-2.062 18.996 0 38.039 6.495 53.354 19.638l40.344 34.602 130.495 20.104c4.855 0.753 9.576 1.928 14.165 3.503 0.377-0.022 0.753-0.044 1.13-0.044 6.805 0 13.61 2.593 18.798 7.779 1.663 1.663 3.014 3.48 4.146 5.408 3.989 3.148 7.713 6.649 11.105 10.53l451.109 517.587c28.174 32.384 26.489 81.528-3.835 111.897zM175.578 28.938h-94.983l69.536 69.602 47.502-47.525-22.055-22.078zM333.069 124.81l-51.868-44.51c-11.37-9.753-28.573-9.088-39.146 1.507l-60.803 60.869c-10.684 10.684-11.26 27.952-1.308 39.346l56.747 64.925 8.114 97.532 201.958-202.135-113.691-17.534zM947.012 674.359l-445.679-511.38-239.796 239.996 499.521 456.494c5.541 5.053 12.502 7.559 19.441 7.559 7.382 0 14.763-2.837 20.394-8.468l144.79-144.923c10.661-10.661 11.239-27.93 1.329-39.28z" />
<glyph unicode="&#xe941;" glyph-name="Highlighted-Bold" data-tags="Highlighted-Bold" d="M979.183 752.881l-139.793 139.922c-36.512 36.531-94.979 37.859-133.094 3.018l-486.623-444.698c-2.46-2.247-4.795-4.643-6.999-7.105-3.788-1.969-7.341-4.537-10.529-7.705-10.165-10.165-14.125-24.161-11.919-37.345-0.728-3.595-1.263-7.234-1.563-10.936l-8.818-106.044-39.978-45.736c-18.49-21.166-26.088-48.431-23.028-74.604l-82.138-82.225c-17.571-17.571-22.771-43.766-13.247-66.731 9.524-22.943 31.717-37.795 56.565-37.795h112.208c16.372 0 31.738 6.377 43.318 17.955l25.811 25.831c3.917-0.471 7.854-0.749 11.792-0.749 22.3 0 44.665 7.64 62.642 23.049l35.249 30.241 121.152 18.662c4.708 0.728 9.311 1.819 13.825 3.211 10.401 0.406 20.673 4.516 28.593 12.435 1.798 1.798 3.359 3.746 4.795 5.758 3.83 3.211 7.426 6.699 10.743 10.508l435.538 499.722c33.087 38.030 31.118 95.708-4.494 131.362zM136.803 60.525l25.831 25.853 21.659-21.679-4.173-4.194h-43.318zM331.836 152.144l-53.803-46.162c-4.217-3.617-10.615-3.382-14.531 0.557l-58.704 58.768c-3.959 3.959-4.173 10.379-0.493 14.618l58.512 66.921 5.243 62.962 145.015-145.144-81.239-12.519zM919.11 677.782l-418.248-479.882-205.882 206.073 469.075 428.668c2.054 1.883 4.643 2.805 7.212 2.805 2.74 0 5.478-1.049 7.576-3.147l139.793-139.922c3.937-3.959 4.152-10.358 0.471-14.595z" />
<glyph unicode="&#xe942;" glyph-name="My-content" data-tags="My content" d="M605.258 300.906c37.961 27.006 62.78 71.343 62.78 121.372 0 82.136-66.811 148.95-148.95 148.95s-148.95-66.811-148.95-148.95c0-50.030 24.822-94.366 62.78-121.372-78.882-33.611-134.33-111.923-134.33-202.962 0-15.097 12.229-27.325 27.325-27.325s27.325 12.229 27.325 27.325c0 91.451 74.395 165.846 165.846 165.846s165.846-74.395 165.846-165.846c0-15.097 12.229-27.325 27.325-27.325s27.325 12.229 27.325 27.325c0 91.019-55.45 169.33-134.33 202.962zM519.090 516.577c51.987 0 94.298-42.311 94.298-94.298s-42.311-94.298-94.298-94.298c-51.987 0-94.298 42.311-94.298 94.298s42.287 94.298 94.298 94.298zM976.229 663.362c-16.442 18.354-40.010 28.874-64.648 28.874h-799.193c-24.639 0-48.206-10.52-64.648-28.874s-24.342-42.925-21.656-67.405l61.962-566.558c4.828-44.131 41.944-77.402 86.328-77.402h675.271c44.382 0 81.499 33.268 86.328 77.402l61.962 566.558c2.641 24.479-5.26 49.050-21.701 67.405zM943.575 601.902l-61.962-566.558c-1.799-16.35-15.553-28.692-31.994-28.692h-675.271c-16.442 0-30.195 12.342-31.994 28.692l-61.962 566.558c-1.002 9.222 1.844 18.080 8.037 24.981s14.688 10.702 23.957 10.702h799.193c9.269 0 17.784-3.803 23.957-10.702 6.194-6.9 9.040-15.78 8.037-24.981zM105.58 769.16c0.023 0 0.045 0 0.092 0l812.789 2.39c15.097 0.045 27.28 12.319 27.235 27.418-0.045 15.075-12.274 27.235-27.325 27.235-0.023 0-0.045 0-0.092 0l-812.765-2.39c-15.097-0.045-27.304-12.319-27.257-27.418 0.045-15.051 12.274-27.235 27.325-27.235zM180.931 886.98c0.023 0 0.068 0 0.092 0l662.084 2.369c15.097 0.045 27.28 12.342 27.235 27.418-0.045 15.051-12.274 27.235-27.325 27.235-0.023 0-0.068 0-0.092 0l-662.084-2.369c-15.097-0.045-27.28-12.342-27.235-27.418 0.068-15.051 12.274-27.235 27.325-27.235z" />
<glyph unicode="&#xe943;" glyph-name="My-content-Bold" data-tags="My content-Bold" d="M633.532 309.96c28.774 29.148 46.588 69.146 46.588 113.229 0 88.914-72.33 161.244-161.244 161.244s-161.244-72.33-161.244-161.244c0-44.083 17.792-84.081 46.588-113.229-69.037-39.801-115.58-114.37-115.58-199.616 0-24.272 19.659-43.929 43.929-43.929s43.929 19.659 43.929 43.929c0 78.524 63.875 142.398 142.398 142.398s142.398-63.875 142.398-142.398c0-24.272 19.659-43.929 43.929-43.929s43.929 19.659 43.929 43.929c-0.043 85.246-46.61 159.815-115.623 199.616zM518.852 496.577c40.458 0 73.384-32.926 73.384-73.384s-32.926-73.384-73.384-73.384c-40.458 0-73.384 32.926-73.384 73.384s32.926 73.384 73.384 73.384zM972.889 667.462c-19.197 21.417-46.697 33.695-75.449 33.695h-770.879c-28.751 0-56.252-12.278-75.449-33.695s-28.401-50.079-25.281-78.656l59.766-546.487c5.623-51.486 48.938-90.319 100.73-90.319h651.346c51.794 0 95.108 38.835 100.73 90.319l59.766 546.487c3.119 28.576-6.085 57.241-25.281 78.656zM910.838 598.361l-59.766-546.487c-0.747-6.852-6.501-12.015-13.399-12.015h-651.346c-6.898 0-12.651 5.162-13.399 12.015l-59.766 546.487c-0.571 5.206 1.867 8.785 3.361 10.454s4.789 4.481 10.037 4.481h770.879c5.228 0 8.523-2.812 10.037-4.481 1.494-1.669 3.933-5.249 3.361-10.454zM119.994 740.21c0.043 0 0.089 0 0.132 0l783.993 2.284c24.272 0.066 43.865 19.79 43.799 44.061s-19.9 43.885-44.061 43.799l-783.97-2.284c-24.272-0.066-43.865-19.79-43.799-44.061 0.066-24.226 19.703-43.799 43.909-43.799zM192.674 853.856c0.043 0 0.109 0 0.154 0l638.63 2.284c24.272 0.089 43.865 19.834 43.777 44.083-0.089 24.206-19.747 43.777-43.929 43.777-0.043 0-0.109 0-0.154 0l-638.63-2.284c-24.272-0.089-43.865-19.834-43.777-44.083 0.089-24.206 19.747-43.777 43.929-43.777z" />
<glyph unicode="&#xe944;" glyph-name="Testimony" data-tags="Testimony" d="M967.023 750.125c-23.223 94.803-56.336 142.894-98.413 142.894-3.387 0-6.706-0.358-9.985-0.979-5.639 1.561-11.833 1.293-17.651-1.202l-763.879-328.421c-30.909-13.281-50.9-43.636-50.9-77.287v-74.278c0-33.651 19.968-63.982 50.9-77.287l150.181-64.56v-118.982c0-23.2 9.715-45.575 26.654-61.419 15.578-14.575 36.302-22.686 57.542-22.686 1.851 0 3.699 0.067 5.528 0.179l137.656 9.182c37.217 2.475 67.234 28.971 75.95 63.334l310.371-133.445c3.454-1.473 7.020-2.185 10.541-2.185 2.408 0 4.792 0.334 7.108 0.979 3.276-0.624 6.595-0.959 9.985-0.959 42.076 0 75.191 48.070 98.413 142.894 19.832 81.029 30.777 188.313 30.777 302.124 0 113.788-10.942 221.073-30.777 302.101zM79.685 410.872v74.278c0 12.258 7.287 23.311 18.542 28.146l690.337 296.775c-6.663-17.317-12.792-37.284-18.34-59.947-19.832-81.029-30.777-188.313-30.777-302.124s10.921-221.093 30.777-302.124c5.549-22.686 11.678-42.654 18.34-59.947l-690.337 296.799c-11.255 4.836-18.542 15.888-18.542 28.146zM792.931 448.001c0 27.522 0.668 54.645 1.962 81.076 37.618-4.813 66.789-36.994 66.789-75.903 0-39.067-29.417-71.357-67.258-75.97-0.979 23.176-1.492 46.844-1.492 70.8zM451.116 128.65l-137.656-9.182c-8.557-0.557-16.715 2.34-22.977 8.203s-9.715 13.795-9.715 22.375v95.984l198.896-85.51c0.692-16.536-11.944-30.777-28.548-31.867zM916.614 165.064c-20.036-85.51-42.677-107.193-48.003-108.554-5.326 1.36-27.967 23.065-48.003 108.554-10.675 45.551-18.475 99.771-23.021 158.694 65.877 6.284 117.577 61.932 117.577 129.412 0 67.214-51.258 122.682-116.753 129.345 4.637 54.956 12.147 105.522 22.196 148.422 20.036 85.51 42.677 107.193 48.003 108.554 5.326-1.36 27.967-23.065 48.003-108.554 17.85-76.237 27.677-176.723 27.677-282.937s-9.827-206.697-27.677-282.937z" />
<glyph unicode="&#xe945;" glyph-name="Testimony-Bold" data-tags="Testimony-Bold" d="M967.676 743.557c-10.040 41.022-22.144 73.937-35.97 97.804-14.038 24.252-38.571 53.168-75.679 53.168-3.182 0-6.279-0.237-9.289-0.624-7.891 1.355-16.255 0.536-24.166-2.86l-736.948-316.863c-36.141-15.545-59.512-51.019-59.512-90.363v-71.658c0-39.344 23.349-74.82 59.512-90.363l134.482-57.812v-103.456c0-27.11 11.353-53.298 31.154-71.831 18.231-17.051 42.442-26.531 67.274-26.531 2.149 0 4.322 0.064 6.471 0.215l132.805 8.857c36.464 2.428 67.013 24.575 81.958 55.319l282.807-121.581c5.548-2.385 11.288-3.504 16.963-3.504 2.428 0 4.859 0.237 7.245 0.643 2.987-0.409 6.085-0.624 9.267-0.624 37.108 0 61.641 28.918 75.679 53.168 13.824 23.864 25.907 56.759 35.97 97.804 19.456 79.462 30.185 184.425 30.185 295.558s-10.749 216.051-30.207 295.535zM911.088 497.191c-15.458 47.32-55.040 83.807-104.144 94.901 3.783 39.065 9.072 75.614 15.78 107.95 11.61 55.879 24.66 86.193 33.325 100.446 8.665-14.275 21.715-44.569 33.303-100.446 11.912-57.449 19.437-128.118 21.737-202.851zM800.213 447.976c0 18.663 0.345 37.173 0.969 55.449 18.338-9.373 30.958-28.466 30.958-50.461 0-22.101-12.751-41.279-31.261-50.61-0.43 15.094-0.666 30.315-0.666 45.624zM112.113 412.159v71.658c0 4.943 2.945 9.397 7.482 11.353l630.846 271.22c-2.087-7.31-4.106-14.922-6.042-22.833-19.456-79.462-30.185-184.425-30.185-295.558s10.73-216.092 30.185-295.558c1.934-7.912 3.955-15.524 6.042-22.833l-630.846 271.198c-4.537 1.957-7.482 6.406-7.482 11.353zM452.089 157.043l-132.824-8.857c-4.43-0.302-7.482 1.634-9.267 3.312s-3.913 4.603-3.913 9.030v66.477l154.024-66.22c-2.042-2.106-4.836-3.527-8.018-3.742zM889.331 195.959c-11.61-55.879-24.66-86.193-33.303-100.446-8.665 14.255-21.715 44.569-33.325 100.446-7.267 35.001-12.9 74.928-16.706 117.689 49.836 10.901 90.019 47.922 105.369 95.976-1.87-78.731-9.524-153.466-22.037-213.664z" />
</font>
</defs>
</svg>
