<?xml version="1.0" encoding="utf-8"?>
<!-- Generator: Adobe Illustrator 23.1.1, SVG Export Plug-In . SVG Version: 6.00 Build 0)  -->
<svg version="1.1" id="Layer_1" xmlns="http://www.w3.org/2000/svg" xmlns:xlink="http://www.w3.org/1999/xlink" x="0px" y="0px"
	 viewBox="0 0 50 50" style="enable-background:new 0 0 50 50;" xml:space="preserve">
<style type="text/css">
	.st0{opacity:0.4;fill:#969696;enable-background:new    ;}
	.st1{fill:#FFFFFF;}
</style>
<path class="st0" d="M42.8,41.1c8.3-9.1,8.3-23.1,0-32.2L41,7.1C31.9-1.1,18-1,8.9,7.2L7.1,8.9C-1,18-1,31.9,7.1,41l1.7,1.8
	c9.1,8.3,23.1,8.3,32.2,0.1L42.8,41.1z"/>
<path class="st1" d="M33.6,31.7L26.9,25l6.7-6.7c0.5-0.5,0.5-1.4,0-1.9c-0.5-0.5-1.4-0.5-1.9,0L25,23.1l-6.7-6.7
	c-0.5-0.5-1.4-0.5-1.9,0c-0.5,0.5-0.5,1.4,0,1.9l6.7,6.7l-6.7,6.7c-0.5,0.5-0.5,1.4,0,1.9c0.5,0.5,1.4,0.5,1.9,0l6.7-6.7l6.7,6.7
	c0.5,0.5,1.4,0.5,1.9,0C34.1,33.1,34.1,32.2,33.6,31.7z"/>
</svg>
