<?xml version="1.0" encoding="utf-8"?>
<!-- Generator: Adobe Illustrator 21.0.2, SVG Export Plug-In . SVG Version: 6.00 Build 0)  -->
<svg version="1.1" xmlns="http://www.w3.org/2000/svg" xmlns:xlink="http://www.w3.org/1999/xlink" x="0px" y="0px"
	 viewBox="0 0 23 23" style="enable-background:new 0 0 23 23;" xml:space="preserve">
<style type="text/css">
	.st0{fill:#FFFFFF;stroke:#FFFFFF;stroke-width:0.9;}
</style>
<g id="user-body_1_">
	<title>user</title>
	<desc>Created with Sketch.</desc>
	<g id="Symbols">
		<g id="user">
		</g>
	</g>
	<path id="user-body" class="st0" d="M11,13c-3.9,0-7,3-7,6.7C4,19.9,4.1,20,4.2,20s0.2-0.1,0.2-0.2c0-3.5,2.9-6.3,6.6-6.3
		s6.6,2.8,6.6,6.3c0,0.1,0.1,0.2,0.2,0.2c0.1,0,0.2-0.1,0.2-0.2C18.1,16,14.9,13,11,13z"/>
</g>
<g id="user-head_1_">
	<path id="user-head" class="st0" d="M11,2C8.2,2,6,4.2,6,7s2.2,5,5,5s5-2.2,5-5S13.8,2,11,2z M11,11.6c-2.5,0-4.6-2.1-4.6-4.6
		S8.5,2.4,11,2.4s4.6,2.1,4.6,4.6S13.5,11.6,11,11.6z"/>
</g>
</svg>
